<svg width="60" height="59" viewBox="0 0 60 59" fill="none" xmlns="http://www.w3.org/2000/svg">
<g clip-path="url(#clip0)">
<path d="M30.46 59C24.6255 59 18.9219 57.2699 14.0707 54.0284C9.21943 50.7869 5.43834 46.1796 3.20556 40.7892C0.972773 35.3988 0.388575 29.4673 1.52684 23.7448C2.6651 18.0224 5.47471 12.766 9.60036 8.64036C13.726 4.51471 18.9824 1.70511 24.7048 0.566848C30.4273 -0.571416 36.3587 0.0127819 41.7492 2.24557C47.1396 4.47835 51.7469 8.25944 54.9884 13.1107C58.2299 17.9619 59.96 23.6655 59.96 29.5C59.9521 37.3215 56.8415 44.8203 51.3109 50.3509C45.7803 55.8815 38.2815 58.9921 30.46 59ZM30.46 5.00001C25.6144 5.00001 20.8775 6.43691 16.8485 9.12901C12.8195 11.8211 9.6793 15.6475 7.82496 20.1243C5.97061 24.6011 5.48543 29.5272 6.43077 34.2797C7.3761 39.0323 9.7095 43.3977 13.1359 46.8241C16.5623 50.2505 20.9278 52.5839 25.6803 53.5293C30.4328 54.4746 35.359 53.9894 39.8357 52.1351C44.3125 50.2807 48.1389 47.1405 50.831 43.1115C53.5231 39.0825 54.96 34.3457 54.96 29.5C54.9521 23.0046 52.3683 16.7776 47.7753 12.1847C43.1824 7.59174 36.9554 5.00795 30.46 5.00001Z" fill="black"/>
<path d="M44.46 32H16.46C15.797 32 15.1611 31.7366 14.6922 31.2678C14.2234 30.7989 13.96 30.1631 13.96 29.5C13.96 28.837 14.2234 28.2011 14.6922 27.7322C15.1611 27.2634 15.797 27 16.46 27H44.46C45.123 27 45.7589 27.2634 46.2278 27.7322C46.6966 28.2011 46.96 28.837 46.96 29.5C46.96 30.1631 46.6966 30.7989 46.2278 31.2678C45.7589 31.7366 45.123 32 44.46 32Z" fill="black"/>
<path d="M30.46 46C29.797 46 29.1611 45.7366 28.6922 45.2678C28.2234 44.7989 27.96 44.1631 27.96 43.5V15.5C27.96 14.837 28.2234 14.2011 28.6922 13.7322C29.1611 13.2634 29.797 13 30.46 13C31.123 13 31.7589 13.2634 32.2278 13.7322C32.6966 14.2011 32.96 14.837 32.96 15.5V43.5C32.96 44.1631 32.6966 44.7989 32.2278 45.2678C31.7589 45.7366 31.123 46 30.46 46Z" fill="black"/>
</g>
<defs>
<clipPath id="clip0">
<rect width="59" height="59" fill="white" transform="translate(0.959991)"/>
</clipPath>
</defs>
</svg>
