<svg width="59" height="59" viewBox="0 0 59 59" fill="none" xmlns="http://www.w3.org/2000/svg">
<g clip-path="url(#clip0)">
<path d="M30.2114 18.7678C30.6802 18.2989 31.3161 18.0355 31.9792 18.0355C32.6422 18.0355 33.2781 18.2989 33.7469 18.7678C34.2158 19.2366 34.4792 19.8725 34.4792 20.5355C34.4792 21.1986 34.2158 21.8345 33.7469 22.3033L27.0294 29.0208L33.7469 35.7383C34.2158 36.2072 34.4792 36.8431 34.4792 37.5061C34.4792 38.1692 34.2158 38.805 33.7469 39.2739C33.2781 39.7427 32.6422 40.0061 31.9792 40.0061C31.3161 40.0061 30.6802 39.7427 30.2114 39.2739L21.7261 30.7886C21.2573 30.3198 20.9939 29.6839 20.9939 29.0208C20.9939 28.3578 21.2573 27.7219 21.7261 27.2531L30.2114 18.7678Z" fill="black"/>
<path fill-rule="evenodd" clip-rule="evenodd" d="M4.97163 13.1107C1.73013 17.9619 -1.50038e-05 23.6655 -1.52588e-05 29.5C0.0079266 37.3215 3.1185 44.8203 8.6491 50.3509C14.1797 55.8815 21.6785 58.9921 29.5 59C35.3345 59 41.0381 57.2699 45.8893 54.0284C50.7406 50.7869 54.5216 46.1796 56.7544 40.7892C58.9872 35.3988 59.5714 29.4673 58.4331 23.7449C57.2949 18.0224 54.4853 12.766 50.3596 8.64036C46.234 4.51472 40.9776 1.70511 35.2551 0.566848C29.5327 -0.571416 23.6012 0.0127816 18.2108 2.24557C12.8204 4.47835 8.21314 8.25944 4.97163 13.1107ZM49.871 15.8885C52.5631 19.9175 54 24.6544 54 29.5C53.992 35.9954 51.4083 42.2224 46.8153 46.8154C42.2224 51.4083 35.9953 53.9921 29.5 54C24.6543 54 19.9175 52.5631 15.8885 49.871C11.8595 47.1789 8.71928 43.3525 6.86494 38.8758C5.01059 34.399 4.52541 29.4728 5.47075 24.7203C6.41608 19.9678 8.74949 15.6023 12.1759 12.1759C15.6023 8.74951 19.9677 6.41611 24.7203 5.47077C29.4728 4.52544 34.3989 5.01062 38.8757 6.86497C43.3525 8.71931 47.1789 11.8595 49.871 15.8885Z" fill="black"/>
</g>
<defs>
<clipPath id="clip0">
<rect width="59" height="59" fill="white"/>
</clipPath>
</defs>
</svg>
