<svg width="60" height="59" viewBox="0 0 60 59" fill="none" xmlns="http://www.w3.org/2000/svg">
<g clip-path="url(#clip0)">
<path d="M29.3786 40.2322C28.9097 40.7011 28.2739 40.9645 27.6108 40.9645C26.9478 40.9645 26.3119 40.7011 25.8431 40.2322C25.3742 39.7634 25.1108 39.1275 25.1108 38.4645C25.1108 37.8014 25.3742 37.1655 25.8431 36.6967L32.5606 29.9792L25.8431 23.2617C25.3742 22.7928 25.1108 22.1569 25.1108 21.4939C25.1108 20.8309 25.3742 20.195 25.8431 19.7261C26.3119 19.2573 26.9478 18.9939 27.6108 18.9939C28.2739 18.9939 28.9097 19.2573 29.3786 19.7261L37.8639 28.2114C38.3327 28.6803 38.5961 29.3161 38.5961 29.9792C38.5961 30.6422 38.3327 31.2781 37.8639 31.747L29.3786 40.2322Z" fill="black"/>
<path fill-rule="evenodd" clip-rule="evenodd" d="M54.6184 45.8893C57.8599 41.0381 59.59 35.3345 59.59 29.5C59.5821 21.6785 56.4715 14.1797 50.9409 8.64912C45.4103 3.11852 37.9115 0.00794186 30.09 0C24.2555 2.55036e-07 18.5519 1.73015 13.7007 4.97165C8.84944 8.21315 5.06835 12.8204 2.83556 18.2108C0.602778 23.6013 0.0185798 29.5327 1.15684 35.2552C2.29511 40.9776 5.10471 46.234 9.23036 50.3596C13.356 54.4853 18.6124 57.2949 24.3348 58.4332C30.0573 59.5714 35.9887 58.9872 41.3792 56.7544C46.7696 54.5217 51.3769 50.7406 54.6184 45.8893ZM9.71901 43.1115C7.02691 39.0825 5.59001 34.3456 5.59001 29.5C5.59795 23.0046 8.18174 16.7776 12.7747 12.1847C17.3676 7.59174 23.5946 5.00794 30.09 5C34.9356 5 39.6725 6.4369 43.7015 9.12899C47.7305 11.8211 50.8707 15.6475 52.7251 20.1243C54.5794 24.601 55.0646 29.5272 54.1192 34.2797C53.1739 39.0322 50.8405 43.3977 47.4141 46.8241C43.9877 50.2505 39.6223 52.5839 34.8697 53.5292C30.1172 54.4746 25.1911 53.9894 20.7143 52.135C16.2375 50.2807 12.4111 47.1405 9.71901 43.1115Z" fill="black"/>
</g>
<defs>
<clipPath id="clip0">
<rect width="59" height="59" fill="white" transform="translate(0.589996)"/>
</clipPath>
</defs>
</svg>
