<svg width="60" height="59" viewBox="0 0 60 59" fill="none" xmlns="http://www.w3.org/2000/svg">
<g clip-path="url(#clip0)">
<path d="M40.8222 30.2114C41.2911 30.6803 41.5545 31.3161 41.5545 31.9792C41.5545 32.6422 41.2911 33.2781 40.8222 33.747C40.3534 34.2158 39.7175 34.4792 39.0545 34.4792C38.3914 34.4792 37.7555 34.2158 37.2867 33.747L30.5692 27.0294L23.8517 33.747C23.3828 34.2158 22.7469 34.4792 22.0839 34.4792C21.4209 34.4792 20.785 34.2158 20.3161 33.747C19.8473 33.2781 19.5839 32.6422 19.5839 31.9792C19.5839 31.3161 19.8473 30.6803 20.3161 30.2114L28.8014 21.7261C29.2703 21.2573 29.9061 20.9939 30.5692 20.9939C31.2322 20.9939 31.8681 21.2573 32.3369 21.7261L40.8222 30.2114Z" fill="black"/>
<path fill-rule="evenodd" clip-rule="evenodd" d="M46.4793 4.97164C41.6281 1.73014 35.9245 -5.10072e-07 30.09 0C22.2685 0.00794288 14.7697 3.11852 9.23911 8.64912C3.70851 14.1797 0.597938 21.6786 0.589996 29.5C0.589997 35.3345 2.32014 41.0381 5.56164 45.8893C8.80315 50.7406 13.4104 54.5217 18.8008 56.7544C24.1913 58.9872 30.1227 59.5714 35.8452 58.4332C41.5676 57.2949 46.824 54.4853 50.9496 50.3596C55.0753 46.234 57.8849 40.9776 59.0232 35.2552C60.1614 29.5327 59.5772 23.6013 57.3444 18.2108C55.1117 12.8204 51.3306 8.21315 46.4793 4.97164ZM43.7015 49.871C39.6725 52.5631 34.9356 54 30.09 54C23.5946 53.9921 17.3676 51.4083 12.7747 46.8153C8.18173 42.2224 5.59794 35.9954 5.59 29.5C5.59 24.6544 7.0269 19.9175 9.71899 15.8885C12.4111 11.8595 16.2375 8.7193 20.7143 6.86495C25.191 5.01061 30.1172 4.52542 34.8697 5.47076C39.6222 6.4161 43.9877 8.7495 47.4141 12.1759C50.8405 15.6023 53.1739 19.9678 54.1192 24.7203C55.0646 29.4728 54.5794 34.3989 52.725 38.8757C50.8707 43.3525 47.7305 47.1789 43.7015 49.871Z" fill="black"/>
</g>
<defs>
<clipPath id="clip0">
<rect width="59" height="59" fill="white" transform="translate(0.589996)"/>
</clipPath>
</defs>
</svg>
