<svg width="60" height="59" viewBox="0 0 60 59" fill="none" xmlns="http://www.w3.org/2000/svg">
<g clip-path="url(#clip0)">
<path d="M19.3578 28.7886C18.8889 28.3198 18.6255 27.6839 18.6255 27.0208C18.6255 26.3578 18.8889 25.7219 19.3578 25.2531C19.8266 24.7842 20.4625 24.5208 21.1255 24.5208C21.7886 24.5208 22.4245 24.7842 22.8933 25.2531L29.6108 31.9706L36.3283 25.2531C36.7972 24.7842 37.4331 24.5208 38.0961 24.5208C38.7591 24.5208 39.395 24.7842 39.8639 25.2531C40.3327 25.7219 40.5961 26.3578 40.5961 27.0208C40.5961 27.6839 40.3327 28.3198 39.8639 28.7886L31.3786 37.2739C30.9097 37.7427 30.2739 38.0061 29.6108 38.0061C28.9478 38.0061 28.3119 37.7427 27.8431 37.2739L19.3578 28.7886Z" fill="black"/>
<path fill-rule="evenodd" clip-rule="evenodd" d="M13.7007 54.0284C18.5519 57.2699 24.2555 59 30.09 59C37.9115 58.9921 45.4103 55.8815 50.9409 50.3509C56.4715 44.8203 59.5821 37.3215 59.59 29.5C59.59 23.6655 57.8599 17.9619 54.6184 13.1107C51.3769 8.25944 46.7696 4.47835 41.3792 2.24557C35.9887 0.0127819 30.0573 -0.571416 24.3348 0.566848C18.6124 1.70511 13.356 4.51471 9.23036 8.64036C5.10471 12.766 2.29511 18.0224 1.15684 23.7448C0.0185798 29.4673 0.602778 35.3988 2.83556 40.7892C5.06835 46.1796 8.84944 50.7869 13.7007 54.0284ZM16.4785 9.12901C20.5075 6.43691 25.2444 5.00001 30.09 5.00001C36.5854 5.00795 42.8124 7.59174 47.4054 12.1847C51.9983 16.7776 54.5821 23.0046 54.59 29.5C54.59 34.3457 53.1531 39.0825 50.461 43.1115C47.7689 47.1405 43.9425 50.2807 39.4658 52.1351C34.989 53.9894 30.0628 54.4746 25.3103 53.5293C20.5578 52.5839 16.1923 50.2505 12.7659 46.8241C9.33951 43.3977 7.00611 39.0323 6.06077 34.2797C5.11543 29.5272 5.60061 24.6011 7.45496 20.1243C9.30931 15.6475 12.4495 11.8211 16.4785 9.12901Z" fill="black"/>
</g>
<defs>
<clipPath id="clip0">
<rect width="59" height="59" fill="white" transform="translate(0.589996)"/>
</clipPath>
</defs>
</svg>
