<svg width="58" height="59" viewBox="0 0 58 59" fill="none" xmlns="http://www.w3.org/2000/svg">
<g clip-path="url(#clip0)">
<path d="M26.45 59C24.5894 58.9991 22.7618 58.5094 21.15 57.58L5.30999 48.43C2.87287 47.0165 1.09515 44.6948 0.366072 41.9734C-0.363011 39.252 0.0159551 36.3526 1.41999 33.91L18.19 4.91C18.5239 4.34048 19.0695 3.92614 19.7077 3.7574C20.3459 3.58866 21.025 3.67922 21.5967 4.00931C22.1684 4.3394 22.5864 4.88223 22.7594 5.51933C22.9323 6.15644 22.8463 6.8361 22.52 7.41L5.74999 36.41C5.00627 37.7036 4.80548 39.2392 5.19158 40.6805C5.57768 42.1218 6.51921 43.3514 7.80999 44.1L23.65 53.25C24.9436 53.9937 26.4792 54.1945 27.9205 53.8084C29.3618 53.4223 30.5914 52.4808 31.34 51.19L51.66 16C52.1361 15.1732 52.2655 14.1916 52.02 13.2697C51.7746 12.3478 51.1741 11.5606 50.35 11.08L40.67 5.49C39.8432 5.01392 38.8616 4.88448 37.9397 5.12994C37.0178 5.37541 36.2306 5.97584 35.75 6.8L20 34.08C19.7937 34.4408 19.7389 34.8687 19.8477 35.2699C19.9564 35.671 20.2197 36.0127 20.58 36.22L24.1 38.22C24.276 38.3242 24.4711 38.392 24.6738 38.4195C24.8765 38.447 25.0826 38.4336 25.28 38.38C25.4789 38.3274 25.6653 38.2358 25.8284 38.1105C25.9915 37.9852 26.128 37.8286 26.23 37.65L38.43 16.53C38.5929 16.2434 38.811 15.9918 39.0716 15.7898C39.3321 15.5878 39.6301 15.4394 39.9483 15.353C40.2664 15.2666 40.5986 15.244 40.9255 15.2865C41.2525 15.329 41.5678 15.4357 41.8533 15.6006C42.1388 15.7654 42.3889 15.9851 42.5892 16.247C42.7895 16.5089 42.936 16.8079 43.0202 17.1266C43.1045 17.4454 43.1249 17.7776 43.0802 18.1043C43.0356 18.431 42.9267 18.7456 42.76 19.03L30.56 40.18C30.1301 40.9321 29.5553 41.5915 28.8689 42.1199C28.1825 42.6484 27.398 43.0354 26.561 43.2586C25.7239 43.4819 24.8509 43.5368 23.9925 43.4203C23.1341 43.3038 22.3073 43.0182 21.56 42.58L18.04 40.58C17.289 40.149 16.6306 39.5739 16.1027 38.8876C15.5748 38.2013 15.1877 37.4175 14.9637 36.5811C14.7398 35.7447 14.6833 34.8723 14.7977 34.014C14.912 33.1558 15.1949 32.3286 15.63 31.58L31.42 4.3C32.5636 2.32747 34.443 0.889116 36.6457 0.30046C38.8485 -0.288196 41.1948 0.0209196 43.17 1.16L52.85 6.74C54.8242 7.88196 56.2647 9.76056 56.8553 11.9635C57.4458 14.1664 57.1382 16.5136 56 18.49L35.67 53.69C34.7336 55.3057 33.3889 56.6469 31.7706 57.5789C30.1523 58.5109 28.3175 59.001 26.45 59Z" fill="black"/>
</g>
<defs>
<clipPath id="clip0">
<rect width="57.15" height="59" fill="white"/>
</clipPath>
</defs>
</svg>
