<svg width="60" height="59" viewBox="0 0 60 59" fill="none" xmlns="http://www.w3.org/2000/svg">
<g clip-path="url(#clip0)">
<path d="M30.31 59C24.4754 59 18.7719 57.2699 13.9207 54.0284C9.06941 50.7868 5.28832 46.1796 3.05553 40.7892C0.822749 35.3987 0.238551 29.4673 1.37681 23.7448C2.51508 18.0224 5.32468 12.766 9.45033 8.64035C13.576 4.5147 18.8324 1.7051 24.5548 0.566832C30.2773 -0.571432 36.2087 0.0127666 41.5991 2.24555C46.9896 4.47834 51.5968 8.25943 54.8383 13.1107C58.0798 17.9619 59.81 23.6654 59.81 29.5C59.802 37.3214 56.6915 44.8203 51.1609 50.3509C45.6303 55.8815 38.1314 58.9921 30.31 59ZM30.31 5C25.4643 5 20.7275 6.4369 16.6985 9.12899C12.6695 11.8211 9.52928 15.6475 7.67493 20.1243C5.82059 24.601 5.3354 29.5272 6.28074 34.2797C7.22608 39.0322 9.55948 43.3977 12.9859 46.8241C16.4123 50.2505 20.7777 52.5839 25.5303 53.5292C30.2828 54.4746 35.2089 53.9894 39.6857 52.135C44.1625 50.2807 47.9889 47.1405 50.681 43.1115C53.3731 39.0825 54.81 34.3456 54.81 29.5C54.802 23.0046 52.2182 16.7776 47.6253 12.1847C43.0324 7.59173 36.8053 5.00794 30.31 5Z" fill="black"/>
<path d="M49.4 51.09C49.0714 51.0911 48.7458 51.0272 48.442 50.9019C48.1382 50.7766 47.8622 50.5925 47.63 50.36L9.44998 12.18C8.98055 11.7106 8.71682 11.0739 8.71682 10.41C8.71682 9.74612 8.9809 9.10978 9.45033 8.64035C9.91976 8.17092 10.5561 7.90684 11.22 7.90684C11.8839 7.90684 12.5205 8.17057 12.99 8.64L51.17 46.82C51.5205 47.1696 51.7593 47.6155 51.8562 48.101C51.953 48.5866 51.9035 49.09 51.7139 49.5473C51.5243 50.0047 51.2032 50.3955 50.7912 50.6701C50.3793 50.9447 49.8951 51.0909 49.4 51.09Z" fill="black"/>
</g>
<defs>
<clipPath id="clip0">
<rect width="59" height="59" fill="white" transform="translate(0.809982)"/>
</clipPath>
</defs>
</svg>
