<svg width="46" height="59" viewBox="0 0 46 59" fill="none" xmlns="http://www.w3.org/2000/svg">
<g clip-path="url(#clip0)">
<path d="M43.31 59H11.31C8.52604 58.9974 5.85686 57.8903 3.8883 55.9217C1.91974 53.9531 0.812645 51.284 0.809998 48.5V8.5C0.809998 7.83696 1.07339 7.20107 1.54223 6.73223C2.01107 6.26339 2.64696 6 3.31 6C3.97304 6 4.60892 6.26339 5.07776 6.73223C5.54661 7.20107 5.81 7.83696 5.81 8.5V48.5C5.81264 49.9579 6.39295 51.3553 7.42383 52.3862C8.45471 53.417 9.85212 53.9974 11.31 54H40.81V17H26.7C26.037 17 25.4011 16.7366 24.9322 16.2678C24.4634 15.7989 24.2 15.163 24.2 14.5C24.2 13.837 24.4634 13.2011 24.9322 12.7322C25.4011 12.2634 26.037 12 26.7 12H43.31C43.973 12 44.6089 12.2634 45.0778 12.7322C45.5466 13.2011 45.81 13.837 45.81 14.5V56.5C45.81 57.163 45.5466 57.7989 45.0778 58.2678C44.6089 58.7366 43.973 59 43.31 59Z" fill="black"/>
<path d="M37.31 17H9.31C7.05566 17 4.89365 16.1045 3.29959 14.5104C1.70553 12.9163 0.809998 10.7543 0.809998 8.5C0.809998 6.24566 1.70553 4.08365 3.29959 2.48959C4.89365 0.895533 7.05566 0 9.31 0H37.31C37.973 0 38.6089 0.263392 39.0778 0.732233C39.5466 1.20107 39.81 1.83696 39.81 2.5V14.5C39.81 15.163 39.5466 15.7989 39.0778 16.2678C38.6089 16.7366 37.973 17 37.31 17ZM9.31 5C8.38174 5 7.4915 5.36875 6.83512 6.02513C6.17875 6.6815 5.81 7.57174 5.81 8.5C5.81 9.42826 6.17875 10.3185 6.83512 10.9749C7.4915 11.6313 8.38174 12 9.31 12H34.81V5H9.31Z" fill="black"/>
<path d="M33.31 31.33H13.31C12.647 31.33 12.0111 31.0666 11.5422 30.5978C11.0734 30.1289 10.81 29.493 10.81 28.83C10.81 28.167 11.0734 27.5311 11.5422 27.0622C12.0111 26.5934 12.647 26.33 13.31 26.33H33.31C33.973 26.33 34.6089 26.5934 35.0778 27.0622C35.5466 27.5311 35.81 28.167 35.81 28.83C35.81 29.493 35.5466 30.1289 35.0778 30.5978C34.6089 31.0666 33.973 31.33 33.31 31.33Z" fill="black"/>
<path d="M33.31 44.67H13.31C12.647 44.67 12.0111 44.4066 11.5422 43.9378C11.0734 43.4689 10.81 42.833 10.81 42.17C10.81 41.507 11.0734 40.8711 11.5422 40.4022C12.0111 39.9334 12.647 39.67 13.31 39.67H33.31C33.973 39.67 34.6089 39.9334 35.0778 40.4022C35.5466 40.8711 35.81 41.507 35.81 42.17C35.81 42.833 35.5466 43.4689 35.0778 43.9378C34.6089 44.4066 33.973 44.67 33.31 44.67Z" fill="black"/>
</g>
<defs>
<clipPath id="clip0">
<rect width="45" height="59" fill="white" transform="translate(0.809998)"/>
</clipPath>
</defs>
</svg>
