<svg width="59" height="52" viewBox="0 0 59 52" fill="none" xmlns="http://www.w3.org/2000/svg">
<g clip-path="url(#clip0)">
<path d="M46.54 42.14C46.1018 42.1397 45.6712 42.026 45.29 41.81L32.83 34.67C32.5368 34.5115 32.2782 34.2961 32.0695 34.0362C31.8608 33.7764 31.7062 33.4774 31.6147 33.1569C31.5232 32.8365 31.4967 32.5009 31.5368 32.1701C31.5768 31.8392 31.6827 31.5197 31.848 31.2303C32.0134 30.9409 32.2349 30.6875 32.4996 30.485C32.7643 30.2825 33.0669 30.135 33.3894 30.0511C33.712 29.9672 34.0481 29.9487 34.3779 29.9966C34.7077 30.0445 35.0246 30.1578 35.31 30.33L44.04 35.33V32.41C44.04 31.747 44.3034 31.1111 44.7722 30.6422C45.2411 30.1734 45.877 29.91 46.54 29.91C47.203 29.91 47.8389 30.1734 48.3078 30.6422C48.7766 31.1111 49.04 31.747 49.04 32.41V39.64C49.0413 39.9687 48.9776 40.2944 48.8524 40.5983C48.7272 40.9022 48.5431 41.1783 48.3107 41.4107C48.0783 41.6431 47.8022 41.8272 47.4983 41.9524C47.1944 42.0776 46.8687 42.1413 46.54 42.14Z" fill="black"/>
<path d="M34.07 35H27.36C23.6712 34.9816 20.1387 33.5081 17.5303 30.8997C14.9219 28.2913 13.4484 24.7588 13.43 21.07V13.93C13.4484 10.2412 14.9219 6.70873 17.5303 4.10033C20.1387 1.49193 23.6712 0.0183983 27.36 0H45.07C48.7588 0.0183983 52.2913 1.49193 54.8997 4.10033C57.5081 6.70873 58.9816 10.2412 59 13.93V21.07C58.9862 24.4527 57.748 27.716 55.5145 30.2566C53.2809 32.7971 50.2031 34.443 46.85 34.89C46.5217 34.9314 46.1885 34.9077 45.8693 34.8202C45.5502 34.7328 45.2514 34.5834 44.99 34.3805C44.7286 34.1776 44.5097 33.9252 44.3458 33.6377C44.182 33.3502 44.0764 33.0333 44.035 32.705C43.9936 32.3767 44.0173 32.0435 44.1048 31.7243C44.1922 31.4052 44.3416 31.1064 44.5445 30.845C44.7474 30.5836 44.9998 30.3647 45.2873 30.2008C45.5748 30.037 45.8917 29.9314 46.22 29.89C48.3591 29.5975 50.3218 28.5457 51.75 26.9266C53.1782 25.3075 53.9767 23.2289 54 21.07V13.93C53.9817 11.5673 53.035 9.30652 51.3642 7.63577C49.6935 5.96502 47.4327 5.01831 45.07 5H27.36C24.9924 5.00265 22.7226 5.94433 21.0485 7.61846C19.3743 9.29259 18.4326 11.5624 18.43 13.93V21.07C18.4326 23.4376 19.3743 25.7074 21.0485 27.3815C22.7226 29.0557 24.9924 29.9974 27.36 30H34.07C34.733 30 35.3689 30.2634 35.8378 30.7322C36.3066 31.2011 36.57 31.837 36.57 32.5C36.57 33.163 36.3066 33.7989 35.8378 34.2678C35.3689 34.7366 34.733 35 34.07 35Z" fill="black"/>
<path d="M12.46 51.79C12.021 51.7862 11.5905 51.669 11.21 51.45C10.8388 51.2253 10.5322 50.9081 10.3201 50.5296C10.1081 50.151 9.99778 49.7239 10 49.29V42.05C10 41.387 10.2634 40.7511 10.7322 40.2822C11.2011 39.8134 11.837 39.55 12.5 39.55C13.163 39.55 13.7989 39.8134 14.2678 40.2822C14.7366 40.7511 15 41.387 15 42.05V45L23.73 40C24.0154 39.8278 24.3323 39.7145 24.6621 39.6666C24.9919 39.6187 25.328 39.6372 25.6506 39.7211C25.9731 39.805 26.2757 39.9525 26.5404 40.155C26.8051 40.3575 27.0266 40.6109 27.192 40.9003C27.3573 41.1897 27.4632 41.5092 27.5032 41.84C27.5433 42.1709 27.5168 42.5065 27.4253 42.8269C27.3338 43.1474 27.1792 43.4464 26.9705 43.7062C26.7618 43.966 26.5032 44.1815 26.21 44.34L13.71 51.46C13.3288 51.676 12.8982 51.7897 12.46 51.79Z" fill="black"/>
<path d="M29.64 44.64H24.93C24.267 44.64 23.6311 44.3766 23.1622 43.9078C22.6934 43.4389 22.43 42.803 22.43 42.14C22.43 41.477 22.6934 40.8411 23.1622 40.3722C23.6311 39.9034 24.267 39.64 24.93 39.64H29.64C31.3024 39.649 32.9339 39.1907 34.3484 38.3172C35.7629 37.4438 36.9035 36.1904 37.64 34.7C37.9401 34.1125 38.4603 33.6675 39.0871 33.4619C39.7139 33.2562 40.3966 33.3067 40.9864 33.6022C41.5761 33.8978 42.0252 34.4145 42.2357 35.0397C42.4461 35.6649 42.401 36.3479 42.11 36.94C40.9596 39.2613 39.1813 41.2134 36.9769 42.5746C34.7726 43.9357 32.2307 44.6513 29.64 44.64Z" fill="black"/>
<path d="M12.47 44.55H12.15C8.79351 44.1026 5.71294 42.4538 3.47896 39.909C1.24498 37.3643 0.00900631 34.0962 0 30.71V23.57C0.0183983 19.8812 1.49193 16.3487 4.10033 13.7403C6.70873 11.1319 10.2412 9.6584 13.93 9.64H16.07C16.733 9.64 17.3689 9.90339 17.8378 10.3722C18.3066 10.8411 18.57 11.477 18.57 12.14C18.57 12.803 18.3066 13.4389 17.8378 13.9078C17.3689 14.3766 16.733 14.64 16.07 14.64H13.93C11.5624 14.6426 9.29259 15.5843 7.61846 17.2585C5.94433 18.9326 5.00265 21.2024 5 23.57V30.71C4.99894 32.88 5.78803 34.976 7.21982 36.6066C8.65161 38.2371 10.6281 39.2906 12.78 39.57C13.443 39.6111 14.0626 39.9139 14.5024 40.4118C14.9421 40.9097 15.1661 41.562 15.125 42.225C15.0839 42.888 14.7811 43.5076 14.2832 43.9474C13.7853 44.3871 13.133 44.6111 12.47 44.57V44.55Z" fill="black"/>
<path d="M44.21 24.75H28.21C27.547 24.75 26.9111 24.4866 26.4422 24.0178C25.9734 23.5489 25.71 22.913 25.71 22.25C25.71 21.587 25.9734 20.9511 26.4422 20.4822C26.9111 20.0134 27.547 19.75 28.21 19.75H44.21C44.873 19.75 45.5089 20.0134 45.9778 20.4822C46.4466 20.9511 46.71 21.587 46.71 22.25C46.71 22.913 46.4466 23.5489 45.9778 24.0178C45.5089 24.4866 44.873 24.75 44.21 24.75Z" fill="black"/>
<path d="M44.21 15.25H28.21C27.547 15.25 26.9111 14.9866 26.4422 14.5178C25.9734 14.0489 25.71 13.413 25.71 12.75C25.71 12.087 25.9734 11.4511 26.4422 10.9822C26.9111 10.5134 27.547 10.25 28.21 10.25H44.21C44.873 10.25 45.5089 10.5134 45.9778 10.9822C46.4466 11.4511 46.71 12.087 46.71 12.75C46.71 13.413 46.4466 14.0489 45.9778 14.5178C45.5089 14.9866 44.873 15.25 44.21 15.25Z" fill="black"/>
</g>
<defs>
<clipPath id="clip0">
<rect width="59" height="51.79" fill="white"/>
</clipPath>
</defs>
</svg>
