<svg width="60" height="59" viewBox="0 0 60 59" fill="none" xmlns="http://www.w3.org/2000/svg">
<g clip-path="url(#clip0)">
<path d="M29.65 59C23.8155 59 18.1119 57.2699 13.2607 54.0284C8.40944 50.7868 4.62835 46.1796 2.39556 40.7892C0.162776 35.3987 -0.421423 29.4673 0.716841 23.7448C1.85511 18.0224 4.66471 12.766 8.79036 8.64035C12.916 4.5147 18.1724 1.7051 23.8948 0.566832C29.6173 -0.571432 35.5487 0.0127666 40.9392 2.24555C46.3296 4.47834 50.9369 8.25943 54.1784 13.1107C57.4199 17.9619 59.15 23.6654 59.15 29.5C59.1421 37.3214 56.0315 44.8203 50.5009 50.3509C44.9703 55.8815 37.4715 58.9921 29.65 59ZM29.65 5C24.8044 5 20.0675 6.4369 16.0385 9.12899C12.0095 11.8211 8.86931 15.6475 7.01496 20.1243C5.16061 24.601 4.67543 29.5272 5.62077 34.2797C6.56611 39.0322 8.8995 43.3977 12.3259 46.8241C15.7523 50.2505 20.1178 52.5839 24.8703 53.5292C29.6228 54.4746 34.549 53.9894 39.0257 52.135C43.5025 50.2807 47.3289 47.1405 50.021 43.1115C52.7131 39.0825 54.15 34.3456 54.15 29.5C54.1421 23.0046 51.5583 16.7776 46.9654 12.1847C42.3724 7.59173 36.1454 5.00794 29.65 5Z" fill="black"/>
<path d="M26.52 39.24C26.1914 39.2411 25.8658 39.1772 25.562 39.0519C25.2583 38.9266 24.9823 38.7424 24.75 38.51L17.53 31.29C17.0739 30.8191 16.821 30.188 16.8257 29.5325C16.8305 28.8769 17.0925 28.2495 17.5554 27.7853C18.0183 27.3211 18.645 27.0573 19.3005 27.0507C19.956 27.0441 20.5879 27.2952 21.06 27.75L26.52 33.21L38.24 21.49C38.4612 21.2213 38.7361 21.0018 39.0471 20.8455C39.358 20.6891 39.6982 20.5995 40.0458 20.5822C40.3934 20.5649 40.7408 20.6203 41.0657 20.745C41.3906 20.8697 41.6859 21.0609 41.9327 21.3063C42.1795 21.5517 42.3724 21.8459 42.4989 22.1701C42.6254 22.4943 42.6829 22.8414 42.6676 23.1891C42.6522 23.5368 42.5645 23.8775 42.4099 24.1893C42.2554 24.5011 42.0374 24.7773 41.77 25L28.29 38.51C28.0577 38.7424 27.7818 38.9266 27.478 39.0519C27.1742 39.1772 26.8486 39.2411 26.52 39.24Z" fill="black"/>
</g>
<defs>
<clipPath id="clip0">
<rect width="59" height="59" fill="white" transform="translate(0.149994)"/>
</clipPath>
</defs>
</svg>
