<svg width="46" height="37" viewBox="0 0 46 37" fill="none" xmlns="http://www.w3.org/2000/svg">
<g clip-path="url(#clip0)">
<path d="M15.4025 35.9272C15.9374 36.1689 16.5106 36.2922 17.0892 36.29C17.6678 36.2922 18.2411 36.1689 18.7759 35.9272C19.3108 35.6855 19.7968 35.3302 20.2057 34.8817L43.9406 8.81872C44.4114 8.38901 44.7952 7.85632 45.0673 7.25475C45.3395 6.65317 45.494 5.99597 45.5209 5.32521C45.5479 4.65445 45.4468 3.9849 45.2239 3.35944C45.0011 2.73398 44.6616 2.16637 44.2271 1.69296C43.7925 1.21955 43.2726 0.850765 42.7004 0.610211C42.1283 0.369657 41.5167 0.262636 40.9046 0.295996C40.2926 0.329357 39.6936 0.502365 39.1461 0.803945C38.5986 1.10553 38.1146 1.52903 37.7251 2.04736L17.0892 24.6571L7.47554 14.1239C6.64423 13.2466 5.53165 12.7621 4.37747 12.7749C3.22329 12.7876 2.11985 13.2965 1.30483 14.192C0.489816 15.0875 0.0284381 16.298 0.0200742 17.5626C0.0117104 18.8272 0.45703 20.0448 1.26012 20.9532L13.9727 34.8817C14.3817 35.3302 14.8676 35.6855 15.4025 35.9272Z" fill="black"/>
</g>
<defs>
<clipPath id="clip0">
<rect width="46" height="36" fill="white" transform="translate(0 0.290039)"/>
</clipPath>
</defs>
</svg>
