<svg width="60" height="59" viewBox="0 0 60 59" fill="none" xmlns="http://www.w3.org/2000/svg">
<g clip-path="url(#clip0)">
<path d="M29.65 59C23.8155 59 18.1119 57.2699 13.2607 54.0284C8.40944 50.7868 4.62835 46.1796 2.39556 40.7892C0.162776 35.3987 -0.421423 29.4673 0.716841 23.7448C1.85511 18.0224 4.66471 12.766 8.79036 8.64035C12.916 4.5147 18.1724 1.7051 23.8948 0.566832C29.6173 -0.571432 35.5487 0.0127666 40.9392 2.24555C46.3296 4.47834 50.9369 8.25943 54.1784 13.1107C57.4199 17.9619 59.15 23.6654 59.15 29.5C59.1421 37.3214 56.0315 44.8203 50.5009 50.3509C44.9703 55.8815 37.4715 58.9921 29.65 59ZM29.65 5C24.8044 5 20.0675 6.4369 16.0385 9.12899C12.0095 11.8211 8.86931 15.6475 7.01496 20.1243C5.16061 24.601 4.67543 29.5272 5.62077 34.2797C6.56611 39.0322 8.8995 43.3977 12.3259 46.8241C15.7523 50.2505 20.1178 52.5839 24.8703 53.5292C29.6228 54.4746 34.549 53.9894 39.0257 52.135C43.5025 50.2807 47.3289 47.1405 50.021 43.1115C52.7131 39.0825 54.15 34.3456 54.15 29.5C54.1421 23.0046 51.5583 16.7776 46.9654 12.1847C42.3724 7.59173 36.1454 5.00794 29.65 5Z" fill="black"/>
<path d="M19.65 42C19.3214 42.0011 18.9958 41.9372 18.692 41.8119C18.3883 41.6866 18.1123 41.5024 17.88 41.27C17.4147 40.7984 17.1537 40.1625 17.1537 39.5C17.1537 38.8375 17.4147 38.2016 17.88 37.73L37.88 17.73C38.3494 17.2606 38.9861 16.9968 39.65 16.9968C40.3139 16.9968 40.9506 17.2606 41.42 17.73C41.8894 18.1994 42.1532 18.8361 42.1532 19.5C42.1532 20.1639 41.8894 20.8006 41.42 21.27L21.42 41.27C21.1877 41.5024 20.9118 41.6866 20.608 41.8119C20.3042 41.9372 19.9786 42.0011 19.65 42Z" fill="black"/>
<path d="M39.65 42C39.3214 42.0011 38.9958 41.9372 38.692 41.8119C38.3883 41.6866 38.1123 41.5024 37.88 41.27L17.88 21.27C17.4106 20.8006 17.1468 20.1639 17.1468 19.5C17.1468 18.8361 17.4106 18.1994 17.88 17.73C18.3494 17.2606 18.9861 16.9968 19.65 16.9968C20.3139 16.9968 20.9506 17.2606 21.42 17.73L41.42 37.73C41.8854 38.2016 42.1463 38.8375 42.1463 39.5C42.1463 40.1625 41.8854 40.7984 41.42 41.27C41.1877 41.5024 40.9118 41.6866 40.608 41.8119C40.3042 41.9372 39.9786 42.0011 39.65 42Z" fill="black"/>
</g>
<defs>
<clipPath id="clip0">
<rect width="59" height="59" fill="white" transform="translate(0.149994)"/>
</clipPath>
</defs>
</svg>
