<svg width="60" height="59" viewBox="0 0 60 59" fill="none" xmlns="http://www.w3.org/2000/svg">
<g clip-path="url(#clip0)">
<path d="M46.55 17H2.54999C1.88695 17 1.25106 16.7366 0.782221 16.2678C0.31338 15.7989 0.0499878 15.163 0.0499878 14.5C0.0499878 13.837 0.31338 13.2011 0.782221 12.7322C1.25106 12.2634 1.88695 12 2.54999 12H46.55C47.213 12 47.8489 12.2634 48.3178 12.7322C48.7866 13.2011 49.05 13.837 49.05 14.5C49.05 15.163 48.7866 15.7989 48.3178 16.2678C47.8489 16.7366 47.213 17 46.55 17Z" fill="black"/>
<path d="M14.55 29C14.2214 29.0011 13.8958 28.9372 13.592 28.8119C13.2882 28.6866 13.0123 28.5025 12.78 28.27L0.779988 16.27C0.314639 15.7984 0.0537269 15.1625 0.0537269 14.5C0.0537269 13.8375 0.314639 13.2016 0.779988 12.73L12.78 0.729999C13.2494 0.260566 13.8861 -0.00315857 14.55 -0.00315857C15.2139 -0.00315856 15.8506 0.260566 16.32 0.729999C16.7894 1.19943 17.0531 1.83612 17.0531 2.5C17.0531 3.16388 16.7894 3.80057 16.32 4.27L6.04999 14.5L16.32 24.73C16.7853 25.2016 17.0462 25.8375 17.0462 26.5C17.0462 27.1625 16.7853 27.7984 16.32 28.27C16.0877 28.5025 15.8117 28.6866 15.508 28.8119C15.2042 28.9372 14.8786 29.0011 14.55 29Z" fill="black"/>
<path d="M56.55 47H12.55C11.8869 47 11.2511 46.7366 10.7822 46.2678C10.3134 45.7989 10.05 45.163 10.05 44.5C10.05 43.837 10.3134 43.2011 10.7822 42.7322C11.2511 42.2634 11.8869 42 12.55 42H56.55C57.213 42 57.8489 42.2634 58.3178 42.7322C58.7866 43.2011 59.05 43.837 59.05 44.5C59.05 45.163 58.7866 45.7989 58.3178 46.2678C57.8489 46.7366 57.213 47 56.55 47Z" fill="black"/>
<path d="M44.55 59C44.2214 59.0011 43.8958 58.9372 43.592 58.8119C43.2882 58.6866 43.0123 58.5025 42.78 58.27C42.3146 57.7984 42.0537 57.1625 42.0537 56.5C42.0537 55.8375 42.3146 55.2016 42.78 54.73L53.05 44.5L42.78 34.27C42.3106 33.8006 42.0468 33.1639 42.0468 32.5C42.0468 31.8361 42.3106 31.1994 42.78 30.73C43.2494 30.2606 43.8861 29.9968 44.55 29.9968C45.2139 29.9968 45.8506 30.2606 46.32 30.73L58.32 42.73C58.7853 43.2016 59.0462 43.8375 59.0462 44.5C59.0462 45.1625 58.7853 45.7984 58.32 46.27L46.32 58.27C46.0877 58.5025 45.8117 58.6866 45.508 58.8119C45.2042 58.9372 44.8786 59.0011 44.55 59Z" fill="black"/>
</g>
<defs>
<clipPath id="clip0">
<rect width="59" height="59" fill="white" transform="translate(0.0499878)"/>
</clipPath>
</defs>
</svg>
