<svg width="60" height="59" viewBox="0 0 60 59" fill="none" xmlns="http://www.w3.org/2000/svg">
<g clip-path="url(#clip0)">
<path d="M2.65 59C2.23371 59.0005 1.82387 58.8971 1.45769 58.699C1.09151 58.501 0.780579 58.2147 0.55311 57.866C0.325641 57.5174 0.188837 57.1174 0.155115 56.7025C0.121392 56.2876 0.191819 55.8708 0.360002 55.49L15.7 20.75C15.8633 20.3781 16.1151 20.0518 16.4335 19.7996C16.7518 19.5473 17.1271 19.3768 17.5264 19.3028C17.9258 19.2289 18.3372 19.2537 18.7248 19.3752C19.1124 19.4968 19.4643 19.7112 19.75 20L39.15 39.4C39.437 39.688 39.6498 40.0414 39.77 40.4299C39.8902 40.8184 39.9142 41.2302 39.84 41.63C39.7664 42.0291 39.5957 42.404 39.3428 42.7214C39.0899 43.0389 38.7626 43.2891 38.39 43.45L3.66 58.79C3.34091 58.9273 2.99737 58.9987 2.65 59ZM18.8 26.11L7.54 51.61L33.04 40.35L18.8 26.11Z" fill="black"/>
<path d="M33.21 28.44C32.8814 28.4411 32.5558 28.3772 32.252 28.2519C31.9482 28.1266 31.6723 27.9424 31.44 27.71C30.9747 27.2384 30.7137 26.6025 30.7137 25.94C30.7137 25.2775 30.9747 24.6416 31.44 24.17L50.49 5.16999C50.7166 4.91645 50.9926 4.71181 51.3011 4.5686C51.6096 4.42539 51.944 4.34662 52.2839 4.3371C52.6239 4.32759 52.9622 4.38753 53.2782 4.51327C53.5942 4.639 53.8812 4.82789 54.1216 5.06836C54.3621 5.30883 54.551 5.59584 54.6767 5.91182C54.8025 6.2278 54.8624 6.56612 54.8529 6.90606C54.8434 7.24601 54.7646 7.58044 54.6214 7.8889C54.4782 8.19735 54.2735 8.47335 54.02 8.69999L35.02 27.75C34.7797 27.9801 34.4957 28.1597 34.1848 28.2782C33.874 28.3967 33.5425 28.4517 33.21 28.44Z" fill="black"/>
<path d="M56.65 26.74C56.3207 26.7398 55.9947 26.6743 55.6909 26.5473C55.3871 26.4203 55.1114 26.2343 54.88 26C53.9861 25.1103 52.7762 24.6108 51.515 24.6108C50.2538 24.6108 49.0439 25.1103 48.15 26C47.9197 26.2391 47.6441 26.4299 47.3393 26.5613C47.0345 26.6928 46.7065 26.7622 46.3746 26.7655C46.0427 26.7689 45.7134 26.7061 45.406 26.5808C45.0986 26.4555 44.8192 26.2703 44.5842 26.0359C44.3491 25.8015 44.1631 25.5227 44.037 25.2156C43.9108 24.9086 43.8471 24.5795 43.8495 24.2475C43.8519 23.9156 43.9204 23.5875 44.051 23.2823C44.1815 22.9771 44.3716 22.701 44.61 22.47C46.4437 20.6393 48.9289 19.611 51.52 19.611C54.1111 19.611 56.5963 20.6393 58.43 22.47C58.7771 22.8202 59.0129 23.2651 59.1078 23.749C59.2027 24.2328 59.1523 24.7339 58.9632 25.1892C58.774 25.6445 58.4544 26.0338 58.0446 26.3079C57.6348 26.5821 57.1531 26.7289 56.66 26.73L56.65 26.74Z" fill="black"/>
<path d="M52.63 37.25C52.4239 37.2523 52.2185 37.2254 52.02 37.17L41.69 34.59C41.0469 34.4282 40.4943 34.0176 40.1539 33.4484C39.8136 32.8792 39.7132 32.1981 39.875 31.555C40.0368 30.9118 40.4474 30.3593 41.0166 30.0189C41.5858 29.6785 42.2669 29.5782 42.91 29.74L53.24 32.32C53.8367 32.4641 54.3595 32.8227 54.7088 33.3275C55.0581 33.8323 55.2094 34.4479 55.1341 35.0571C55.0587 35.6663 54.7618 36.2264 54.3 36.6309C53.8382 37.0353 53.2438 37.2556 52.63 37.25Z" fill="black"/>
<path d="M34.91 15.28C34.4137 15.2809 33.9283 15.1341 33.5158 14.8582C33.1032 14.5823 32.7821 14.1898 32.5933 13.7308C32.4045 13.2718 32.3567 12.7669 32.4558 12.2806C32.555 11.7943 32.7966 11.3485 33.15 11C34.0428 10.1057 34.5442 8.89366 34.5442 7.62999C34.5442 6.36633 34.0428 5.15431 33.15 4.25999C32.7397 3.78232 32.5249 3.16743 32.5483 2.5382C32.5717 1.90897 32.8317 1.31175 33.2763 0.865878C33.7209 0.420007 34.3174 0.158329 34.9465 0.133137C35.5757 0.107946 36.1912 0.321096 36.67 0.729993C38.5007 2.56365 39.529 5.04887 39.529 7.63999C39.529 10.2311 38.5007 12.7163 36.67 14.55C36.4403 14.7831 36.1662 14.9677 35.8639 15.0931C35.5616 15.2185 35.2372 15.282 34.91 15.28Z" fill="black"/>
<path d="M26.99 19.35C26.433 19.3478 25.8925 19.1611 25.4529 18.8192C25.0132 18.4772 24.6992 17.9993 24.56 17.46L21.98 7.12999C21.8999 6.81154 21.8833 6.48042 21.9312 6.15555C21.979 5.83068 22.0904 5.51842 22.2589 5.23659C22.5993 4.66742 23.1518 4.25677 23.795 4.09499C24.4382 3.93321 25.1192 4.03355 25.6884 4.37392C26.2576 4.7143 26.6682 5.26684 26.83 5.90999L29.41 16.24C29.564 16.879 29.4592 17.553 29.1182 18.115C28.7773 18.677 28.2279 19.0814 27.59 19.24C27.3966 19.3062 27.1944 19.3433 26.99 19.35Z" fill="black"/>
</g>
<defs>
<clipPath id="clip0">
<rect width="59" height="59" fill="white" transform="translate(0.150002)"/>
</clipPath>
</defs>
</svg>
