<svg width="60" height="59" viewBox="0 0 60 59" fill="none" xmlns="http://www.w3.org/2000/svg">
<g clip-path="url(#clip0)">
<path d="M24.34 18H3.34C2.67696 18 2.04107 17.7366 1.57223 17.2678C1.10339 16.7989 0.839996 16.163 0.839996 15.5V2.5C0.839996 1.83696 1.10339 1.20107 1.57223 0.732233C2.04107 0.263392 2.67696 0 3.34 0H24.34C25.003 0 25.6389 0.263392 26.1078 0.732233C26.5766 1.20107 26.84 1.83696 26.84 2.5V15.5C26.84 16.163 26.5766 16.7989 26.1078 17.2678C25.6389 17.7366 25.003 18 24.34 18ZM5.84 13H21.84V5H5.84V13Z" fill="black"/>
<path d="M57.34 35H36.34C35.677 35 35.0411 34.7366 34.5722 34.2678C34.1034 33.7989 33.84 33.163 33.84 32.5V2.5C33.84 1.83696 34.1034 1.20107 34.5722 0.732233C35.0411 0.263392 35.677 0 36.34 0H57.34C58.003 0 58.6389 0.263392 59.1078 0.732233C59.5766 1.20107 59.84 1.83696 59.84 2.5V32.5C59.84 33.163 59.5766 33.7989 59.1078 34.2678C58.6389 34.7366 58.003 35 57.34 35ZM38.84 30H54.84V5H38.84V30Z" fill="black"/>
<path d="M24.34 59H3.34C2.67696 59 2.04107 58.7366 1.57223 58.2678C1.10339 57.7989 0.839996 57.163 0.839996 56.5V26.5C0.839996 25.837 1.10339 25.2011 1.57223 24.7322C2.04107 24.2634 2.67696 24 3.34 24H24.34C25.003 24 25.6389 24.2634 26.1078 24.7322C26.5766 25.2011 26.84 25.837 26.84 26.5V56.5C26.84 57.163 26.5766 57.7989 26.1078 58.2678C25.6389 58.7366 25.003 59 24.34 59ZM5.84 54H21.84V29H5.84V54Z" fill="black"/>
<path d="M57.34 59H36.34C35.677 59 35.0411 58.7366 34.5722 58.2678C34.1034 57.7989 33.84 57.163 33.84 56.5V43.5C33.84 42.837 34.1034 42.2011 34.5722 41.7322C35.0411 41.2634 35.677 41 36.34 41H57.34C58.003 41 58.6389 41.2634 59.1078 41.7322C59.5766 42.2011 59.84 42.837 59.84 43.5V56.5C59.84 57.163 59.5766 57.7989 59.1078 58.2678C58.6389 58.7366 58.003 59 57.34 59ZM38.84 54H54.84V46H38.84V54Z" fill="black"/>
</g>
<defs>
<clipPath id="clip0">
<rect width="59" height="59" fill="white" transform="translate(0.839996)"/>
</clipPath>
</defs>
</svg>
