<svg width="57" height="59" viewBox="0 0 57 59" fill="none" xmlns="http://www.w3.org/2000/svg">
<g clip-path="url(#clip0)">
<path d="M36.37 59H21.02C18.5093 58.9901 16.0926 58.0436 14.2431 56.3457C12.3935 54.6478 11.2442 52.3207 11.02 49.82L7.99 13.52L12.99 13.1L16.04 49.4C16.1408 50.6556 16.7117 51.8269 17.6387 52.6797C18.5657 53.5325 19.7804 54.004 21.04 54H36.37C37.6256 53.9903 38.8328 53.5141 39.7568 52.664C40.6809 51.8138 41.2559 50.6505 41.37 49.4L44.37 13.1L49.37 13.52L46.32 49.82C46.0967 52.3122 44.9545 54.6322 43.1154 56.3289C41.2764 58.0256 38.8721 58.9777 36.37 59Z" fill="black"/>
<path d="M54.09 15.81H3.31C2.64696 15.81 2.01107 15.5466 1.54223 15.0778C1.07339 14.6089 0.809998 13.973 0.809998 13.31C0.809998 12.647 1.07339 12.0111 1.54223 11.5422C2.01107 11.0734 2.64696 10.81 3.31 10.81H54.09C54.753 10.81 55.3889 11.0734 55.8578 11.5422C56.3266 12.0111 56.59 12.647 56.59 13.31C56.59 13.973 56.3266 14.6089 55.8578 15.0778C55.3889 15.5466 54.753 15.81 54.09 15.81Z" fill="black"/>
<path d="M42.01 15.81H37.01V13.31C37.0074 11.1069 36.131 8.99472 34.5731 7.43687C33.0153 5.87901 30.9031 5.00265 28.7 5C26.5049 5.02849 24.4077 5.91316 22.8554 7.46545C21.3032 9.01775 20.4185 11.1149 20.39 13.31V15.81H15.39V13.31C15.39 9.77997 16.7923 6.39452 19.2884 3.89841C21.7845 1.4023 25.17 0 28.7 0C32.23 0 35.6155 1.4023 38.1116 3.89841C40.6077 6.39452 42.01 9.77997 42.01 13.31V15.81Z" fill="black"/>
<path d="M33.37 45.39H33.2C32.8723 45.3684 32.5521 45.2824 32.2577 45.1371C31.9632 44.9917 31.7003 44.7897 31.484 44.5427C31.2676 44.2957 31.102 44.0084 30.9967 43.6974C30.8913 43.3864 30.8483 43.0577 30.87 42.73L31.87 28.32C31.9138 27.657 32.2191 27.0385 32.7189 26.6006C33.2187 26.1627 33.872 25.9412 34.535 25.985C35.198 26.0288 35.8165 26.3341 36.2544 26.8339C36.6923 27.3337 36.9138 27.987 36.87 28.65L35.87 43.06C35.8245 43.6923 35.5415 44.284 35.0778 44.7162C34.614 45.1484 34.0039 45.3891 33.37 45.39Z" fill="black"/>
<path d="M24.03 45.39C23.3955 45.3888 22.7852 45.1463 22.3228 44.7118C21.8605 44.2773 21.5806 43.6832 21.54 43.05L20.54 28.64C20.4962 27.977 20.7177 27.3237 21.1556 26.8239C21.5935 26.3241 22.212 26.0188 22.875 25.975C23.538 25.9312 24.1913 26.1527 24.6911 26.5906C25.1909 27.0285 25.4962 27.647 25.54 28.31L26.54 42.72C26.5617 43.0477 26.5187 43.3764 26.4133 43.6874C26.308 43.9984 26.1424 44.2857 25.926 44.5327C25.7097 44.7797 25.4468 44.9817 25.1523 45.1271C24.8579 45.2724 24.5377 45.3584 24.21 45.38L24.03 45.39Z" fill="black"/>
</g>
<defs>
<clipPath id="clip0">
<rect width="55.78" height="59" fill="white" transform="translate(0.809998)"/>
</clipPath>
</defs>
</svg>
