<svg width="49" height="59" viewBox="0 0 49 59" fill="none" xmlns="http://www.w3.org/2000/svg">
<g clip-path="url(#clip0)">
<path d="M46.5 21H30.5C29.837 21 29.2011 20.7366 28.7322 20.2678C28.2634 19.7989 28 19.163 28 18.5V2.5C28 1.83696 28.2634 1.20107 28.7322 0.732233C29.2011 0.263392 29.837 2.29244e-08 30.5 2.29244e-08C31.163 2.29244e-08 31.7989 0.263392 32.2678 0.732233C32.7366 1.20107 33 1.83696 33 2.5V16H46.5C47.163 16 47.7989 16.2634 48.2678 16.7322C48.7366 17.2011 49 17.837 49 18.5C49 19.163 48.7366 19.7989 48.2678 20.2678C47.7989 20.7366 47.163 21 46.5 21Z" fill="black"/>
<path d="M38.5 59H10.5C7.71604 58.9974 5.04686 57.8903 3.0783 55.9217C1.10974 53.9531 0.00264761 51.284 0 48.5V10.5C0.00264761 7.71604 1.10974 5.04686 3.0783 3.0783C5.04686 1.10974 7.71604 0.00264763 10.5 2.29244e-08H34.5C35.1633 -8.95572e-05 35.7996 0.26236 36.27 0.73L48.27 12.73C48.7376 13.2004 49.0001 13.8367 49 14.5V48.5C48.9974 51.284 47.8903 53.9531 45.9217 55.9217C43.9531 57.8903 41.284 58.9974 38.5 59ZM10.5 5C9.04212 5.00264 7.64471 5.58295 6.61383 6.61383C5.58295 7.64471 5.00264 9.04212 5 10.5V48.5C5.00264 49.9579 5.58295 51.3553 6.61383 52.3862C7.64471 53.417 9.04212 53.9974 10.5 54H38.5C39.9579 53.9974 41.3553 53.417 42.3862 52.3862C43.417 51.3553 43.9974 49.9579 44 48.5V15.5L33.46 5H10.5Z" fill="black"/>
<path d="M27.5 33.67H11.5C10.837 33.67 10.2011 33.4066 9.73223 32.9378C9.26339 32.4689 9 31.833 9 31.17C9 30.507 9.26339 29.8711 9.73223 29.4022C10.2011 28.9334 10.837 28.67 11.5 28.67H27.5C28.163 28.67 28.7989 28.9334 29.2678 29.4022C29.7366 29.8711 30 30.507 30 31.17C30 31.833 29.7366 32.4689 29.2678 32.9378C28.7989 33.4066 28.163 33.67 27.5 33.67Z" fill="black"/>
<path d="M35.5 46.33H11.5C10.837 46.33 10.2011 46.0666 9.73223 45.5978C9.26339 45.1289 9 44.493 9 43.83C9 43.167 9.26339 42.5311 9.73223 42.0622C10.2011 41.5934 10.837 41.33 11.5 41.33H35.5C36.163 41.33 36.7989 41.5934 37.2678 42.0622C37.7366 42.5311 38 43.167 38 43.83C38 44.493 37.7366 45.1289 37.2678 45.5978C36.7989 46.0666 36.163 46.33 35.5 46.33Z" fill="black"/>
</g>
<defs>
<clipPath id="clip0">
<rect width="49" height="59" fill="white"/>
</clipPath>
</defs>
</svg>
