<svg width="59" height="59" viewBox="0 0 59 59" fill="none" xmlns="http://www.w3.org/2000/svg">
<g clip-path="url(#clip0)">
<path d="M45.5 41.21H39.5C38.8369 41.21 38.201 40.9467 37.7322 40.4778C37.2634 40.009 37 39.3731 37 38.71C37 38.047 37.2634 37.4111 37.7322 36.9423C38.201 36.4734 38.8369 36.21 39.5 36.21H45.5C47.7543 36.21 49.9163 35.3145 51.5104 33.7205C53.1044 32.1264 54 29.9644 54 27.71C54 25.4557 53.1044 23.2937 51.5104 21.6996C49.9163 20.1056 47.7543 19.21 45.5 19.21H43.73C43.098 19.2115 42.4891 18.9726 42.0268 18.5418C41.5644 18.111 41.2831 17.5205 41.24 16.89C41.0208 13.7323 39.6118 10.7752 37.2973 8.61583C34.9829 6.45645 31.9354 5.25555 28.77 5.25555C25.6046 5.25555 22.5571 6.45645 20.2426 8.61583C17.9282 10.7752 16.5191 13.7323 16.3 16.89C16.2568 17.5205 15.9756 18.111 15.5132 18.5418C15.0508 18.9726 14.4419 19.2115 13.81 19.21H13.5C11.2456 19.21 9.08363 20.1056 7.48957 21.6996C5.89551 23.2937 4.99998 25.4557 4.99998 27.71C4.99998 29.9644 5.89551 32.1264 7.48957 33.7205C9.08363 35.3145 11.2456 36.21 13.5 36.21H19.5C20.163 36.21 20.7989 36.4734 21.2677 36.9423C21.7366 37.4111 22 38.047 22 38.71C22 39.3731 21.7366 40.009 21.2677 40.4778C20.7989 40.9467 20.163 41.21 19.5 41.21H13.5C10.0799 41.2154 6.78523 39.9225 4.28162 37.5924C1.77802 35.2624 0.252088 32.069 0.0121154 28.6573C-0.227857 25.2456 0.836014 21.87 2.9888 19.2125C5.14159 16.5549 8.22281 14.8135 11.61 14.34C12.4041 10.3865 14.5393 6.8285 17.6545 4.26777C20.7696 1.70705 24.6735 0.300718 28.706 0.286606C32.7385 0.272494 36.6522 1.65146 39.7851 4.19033C42.9181 6.72919 45.0782 10.2721 45.9 14.22C49.4804 14.2731 52.8931 15.7463 55.3873 18.3155C57.8816 20.8848 59.253 24.3396 59.2 27.92C59.1469 31.5005 57.6737 34.9132 55.1045 37.4074C52.5352 39.9016 49.0804 41.2731 45.5 41.22V41.21Z" fill="black"/>
<path d="M29.5 58.75C28.8438 58.7501 28.2139 58.4922 27.7462 58.032C27.2785 57.5718 27.0105 56.9461 27 56.29V25.29C27 24.627 27.2634 23.9911 27.7322 23.5223C28.2011 23.0534 28.8369 22.79 29.5 22.79C30.163 22.79 30.7989 23.0534 31.2677 23.5223C31.7366 23.9911 32 24.627 32 25.29V56.29C31.9895 56.9461 31.7215 57.5718 31.2538 58.032C30.786 58.4922 30.1561 58.7501 29.5 58.75Z" fill="black"/>
<path d="M29.5 58.75C29.1714 58.7512 28.8458 58.6873 28.542 58.562C28.2382 58.4367 27.9622 58.2525 27.73 58.02L19.73 50.02C19.4975 49.7876 19.3132 49.5117 19.1874 49.208C19.0616 48.9043 18.9968 48.5788 18.9968 48.25C18.9968 47.9213 19.0616 47.5958 19.1874 47.2921C19.3132 46.9884 19.4975 46.7125 19.73 46.48C19.9624 46.2476 20.2384 46.0632 20.5421 45.9374C20.8458 45.8116 21.1713 45.7469 21.5 45.7469C21.8287 45.7469 22.1542 45.8116 22.4579 45.9374C22.7616 46.0632 23.0375 46.2476 23.27 46.48L29.5 52.72L35.73 46.48C35.9624 46.2476 36.2384 46.0632 36.5421 45.9374C36.8458 45.8116 37.1713 45.7469 37.5 45.7469C37.8287 45.7469 38.1542 45.8116 38.4579 45.9374C38.7616 46.0632 39.0375 46.2476 39.27 46.48C39.5024 46.7125 39.6868 46.9884 39.8126 47.2921C39.9384 47.5958 40.0031 47.9213 40.0031 48.25C40.0031 48.5788 39.9384 48.9043 39.8126 49.208C39.6868 49.5117 39.5024 49.7876 39.27 50.02L31.27 58.02C31.0377 58.2525 30.7617 58.4367 30.4579 58.562C30.1542 58.6873 29.8286 58.7512 29.5 58.75Z" fill="black"/>
</g>
<defs>
<clipPath id="clip0">
<rect width="59" height="58.46" fill="white" transform="translate(0 0.290039)"/>
</clipPath>
</defs>
</svg>
