<svg width="60" height="59" viewBox="0 0 60 59" fill="none" xmlns="http://www.w3.org/2000/svg">
<g clip-path="url(#clip0)">
<path d="M3.33999 59C2.67736 58.9969 2.04218 58.7349 1.56999 58.27C1.26422 57.9619 1.04359 57.5797 0.929666 57.1608C0.815739 56.7419 0.812406 56.3006 0.919992 55.88L4.01999 43.76C4.13144 43.3261 4.35569 42.9293 4.66999 42.61L46.55 0.730015C47.0216 0.264666 47.6575 0.00375366 48.32 0.00375366C48.9825 0.00375366 49.6184 0.264666 50.09 0.730015L59.09 9.73001C59.5578 10.2003 59.8203 10.8367 59.8203 11.5C59.8203 12.1633 59.5578 12.7997 59.09 13.27L17.23 55.17C16.9107 55.4843 16.5139 55.7086 16.08 55.82L3.95999 58.92C3.75722 58.9711 3.5491 58.998 3.33999 59ZM8.68999 45.66L6.83999 53L14.21 51.12L53.84 11.52L48.32 6.00001L8.68999 45.66Z" fill="black"/>
<path d="M49.6 21.76C48.9363 21.7474 48.3042 21.4744 47.84 21L38.84 12C38.6076 11.7676 38.4232 11.4916 38.2974 11.1879C38.1716 10.8842 38.1068 10.5587 38.1068 10.23C38.1068 9.9013 38.1716 9.5758 38.2974 9.2721C38.4232 8.9684 38.6076 8.69245 38.84 8.46001C39.0724 8.22757 39.3484 8.04319 39.6521 7.9174C39.9558 7.7916 40.2813 7.72686 40.61 7.72686C40.9387 7.72686 41.2642 7.7916 41.5679 7.9174C41.8716 8.04319 42.1476 8.22757 42.38 8.46001L51.38 17.46C51.7305 17.8097 51.9694 18.2555 52.0662 18.7411C52.163 19.2266 52.1135 19.73 51.9239 20.1873C51.7343 20.6447 51.4132 21.0355 51.0013 21.3101C50.5893 21.5848 50.1051 21.7309 49.61 21.73L49.6 21.76Z" fill="black"/>
<path d="M47.73 59H27.46C26.797 59 26.1611 58.7366 25.6922 58.2678C25.2234 57.7989 24.96 57.1631 24.96 56.5C24.96 55.837 25.2234 55.2011 25.6922 54.7322C26.1611 54.2634 26.797 54 27.46 54H47.73C48.393 54 49.0289 54.2634 49.4978 54.7322C49.9666 55.2011 50.23 55.837 50.23 56.5C50.23 57.1631 49.9666 57.7989 49.4978 58.2678C49.0289 58.7366 48.393 59 47.73 59Z" fill="black"/>
</g>
<defs>
<clipPath id="clip0">
<rect width="59" height="59" fill="white" transform="translate(0.839996)"/>
</clipPath>
</defs>
</svg>
