<svg width="60" height="59" viewBox="0 0 60 59" fill="none" xmlns="http://www.w3.org/2000/svg">
<g clip-path="url(#clip0)">
<path d="M30.34 34.05C29.677 34.05 29.0411 33.7866 28.5722 33.3178C28.1034 32.8489 27.84 32.2131 27.84 31.55V17.55C27.84 16.887 28.1034 16.2511 28.5722 15.7822C29.0411 15.3134 29.677 15.05 30.34 15.05C31.0031 15.05 31.6389 15.3134 32.1078 15.7822C32.5766 16.2511 32.84 16.887 32.84 17.55V31.55C32.84 32.2131 32.5766 32.8489 32.1078 33.3178C31.6389 33.7866 31.0031 34.05 30.34 34.05Z" fill="black"/>
<path d="M30.34 44C29.677 44 29.0411 43.7366 28.5722 43.2678C28.1034 42.7989 27.84 42.1631 27.84 41.5V40.33C27.84 39.667 28.1034 39.0311 28.5722 38.5622C29.0411 38.0934 29.677 37.83 30.34 37.83C31.0031 37.83 31.6389 38.0934 32.1078 38.5622C32.5766 39.0311 32.84 39.667 32.84 40.33V41.5C32.84 42.1631 32.5766 42.7989 32.1078 43.2678C31.6389 43.7366 31.0031 44 30.34 44Z" fill="black"/>
<path d="M30.34 59C24.5055 59 18.8019 57.2699 13.9507 54.0284C9.09944 50.7869 5.31835 46.1796 3.08556 40.7892C0.852778 35.3988 0.26858 29.4673 1.40684 23.7448C2.54511 18.0224 5.35471 12.766 9.48036 8.64036C13.606 4.51471 18.8624 1.70511 24.5848 0.566848C30.3073 -0.571416 36.2388 0.0127819 41.6292 2.24557C47.0196 4.47835 51.6269 8.25944 54.8684 13.1107C58.1099 17.9619 59.84 23.6655 59.84 29.5C59.8321 37.3215 56.7215 44.8203 51.1909 50.3509C45.6603 55.8815 38.1615 58.9921 30.34 59ZM30.34 5.00001C25.4944 5.00001 20.7575 6.43691 16.7285 9.12901C12.6995 11.8211 9.55931 15.6475 7.70496 20.1243C5.85061 24.6011 5.36543 29.5272 6.31077 34.2797C7.25611 39.0323 9.58951 43.3977 13.0159 46.8241C16.4423 50.2505 20.8078 52.5839 25.5603 53.5293C30.3128 54.4746 35.239 53.9894 39.7158 52.1351C44.1925 50.2807 48.0189 47.1405 50.711 43.1115C53.4031 39.0825 54.84 34.3457 54.84 29.5C54.8321 23.0046 52.2483 16.7776 47.6554 12.1847C43.0624 7.59174 36.8354 5.00795 30.34 5.00001Z" fill="black"/>
</g>
<defs>
<clipPath id="clip0">
<rect width="59" height="59" fill="white" transform="translate(0.839996)"/>
</clipPath>
</defs>
</svg>
