<svg width="60" height="59" viewBox="0 0 60 59" fill="none" xmlns="http://www.w3.org/2000/svg">
<g clip-path="url(#clip0)">
<path d="M30.34 59C23.5254 58.9914 16.9245 56.6205 11.6617 52.2913C6.39888 47.962 2.79973 41.9421 1.47729 35.257C0.154847 28.5719 1.19091 21.6351 4.40899 15.6281C7.62707 9.62118 12.8281 4.91566 19.1262 2.31309C25.4243 -0.289486 32.4299 -0.628131 38.9497 1.35483C45.4695 3.3378 51.1001 7.51972 54.8826 13.1883C58.6651 18.8568 60.3654 25.6614 59.6939 32.4428C59.0224 39.2243 56.0207 45.5633 51.2 50.38C48.4622 53.1201 45.21 55.2923 41.6302 56.7716C38.0503 58.2509 34.2134 59.0082 30.34 59ZM30.34 5C24.6767 5.00464 19.1902 6.97273 14.8152 10.569C10.4402 14.1652 7.44746 19.1671 6.34681 24.7224C5.24617 30.2777 6.10573 36.0429 8.77904 41.0355C11.4524 46.0282 15.774 49.9395 21.0078 52.1031C26.2415 54.2667 32.0635 54.5487 37.4819 52.9011C42.9003 51.2535 47.5798 47.7782 50.7231 43.0673C53.8665 38.3565 55.2792 32.7014 54.7207 27.0657C54.1622 21.43 51.6669 16.1623 47.66 12.16C45.3865 9.88522 42.6861 8.08175 39.7139 6.85306C36.7417 5.62437 33.5562 4.99464 30.34 5Z" fill="black"/>
<path d="M18.34 44C17.9339 43.9979 17.5343 43.8972 17.1756 43.7067C16.8169 43.5162 16.5098 43.2414 16.2807 42.9061C16.0515 42.5707 15.9072 42.1848 15.8601 41.7814C15.8129 41.378 15.8644 40.9691 16.01 40.59L22.73 23.36C22.8563 23.0395 23.0477 22.7488 23.2921 22.5061C23.5365 22.2634 23.8287 22.074 24.15 21.95L41.43 15.17C41.8828 14.9925 42.3775 14.9509 42.8536 15.0503C43.3296 15.1498 43.7664 15.3859 44.1102 15.7298C44.4541 16.0737 44.6902 16.5104 44.7897 16.9864C44.8891 17.4625 44.8475 17.9572 44.67 18.41L37.89 35.68C37.7637 36.0005 37.5723 36.2912 37.3279 36.5339C37.0835 36.7766 36.7913 36.966 36.47 37.09L19.25 43.81C18.9618 43.9315 18.6528 43.9961 18.34 44ZM26.99 26.2L22.74 37.08L33.63 32.83L37.92 21.9L26.99 26.2Z" fill="black"/>
</g>
<defs>
<clipPath id="clip0">
<rect width="59" height="58.97" fill="white" transform="translate(0.839996)"/>
</clipPath>
</defs>
</svg>
