<svg width="52" height="59" viewBox="0 0 52 59" fill="none" xmlns="http://www.w3.org/2000/svg">
<g clip-path="url(#clip0)">
<path d="M19.49 59C19.1608 59 18.8349 58.935 18.531 58.8087C18.227 58.6825 17.951 58.4974 17.7187 58.2642C17.4864 58.031 17.3025 57.7542 17.1774 57.4498C17.0524 57.1453 16.9887 56.8191 16.99 56.49L17.05 31.86C17.0443 26.1446 14.7798 20.663 10.75 16.61L1.80999 7.68C1.18145 7.05068 0.753505 6.24921 0.580198 5.37682C0.406892 4.50442 0.496 3.60024 0.836268 2.77846C1.17654 1.95668 1.7527 1.25417 2.492 0.759646C3.23129 0.265127 4.10055 0.000782324 4.98999 0H47.49C48.3724 0.000544288 49.2351 0.260496 49.9709 0.747519C50.7067 1.23454 51.2831 1.92715 51.6284 2.73918C51.9737 3.55121 52.0726 4.44683 51.9129 5.31463C51.7531 6.18244 51.3418 6.98414 50.73 7.62L42.02 16.62C38.1555 20.6236 36.0032 25.9756 36.02 31.54V48.5C36.0209 48.9409 35.9047 49.3741 35.6833 49.7553C35.4619 50.1366 35.1433 50.4522 34.76 50.67L20.76 58.67C20.373 58.8898 19.935 59.0036 19.49 59ZM6.19999 5L14.27 13.07C19.2365 18.0677 22.029 24.8242 22.04 31.87L21.99 52.19L30.99 47.05V31.58C30.9711 24.7209 33.6255 18.1243 38.39 13.19L46.28 5H6.19999Z" fill="black"/>
</g>
<defs>
<clipPath id="clip0">
<rect width="51.47" height="59" fill="white" transform="translate(0.48999)"/>
</clipPath>
</defs>
</svg>
