<svg width="43" height="59" viewBox="0 0 43 59" fill="none" xmlns="http://www.w3.org/2000/svg">
<g clip-path="url(#clip0)">
<path d="M21.33 59C17.0534 58.999 12.8758 57.7132 9.33884 55.3091C5.80191 52.9051 3.06887 49.4939 1.49417 45.5177C-0.080544 41.5416 -0.424278 37.1841 0.50754 33.0103C1.43936 28.8364 3.60374 25.0388 6.72 22.11C7.12 21.74 8.71999 20.35 9.18999 19.89L9.49 19.62C10.92 18.35 12.05 17.25 13.16 16.07C17.0338 12.0782 19.852 7.18415 21.36 1.83C21.465 1.44591 21.6606 1.09261 21.9304 0.799727C22.2001 0.506849 22.5362 0.282939 22.9104 0.146783C23.2846 0.010626 23.686 -0.0338063 24.0809 0.0172132C24.4758 0.0682328 24.8527 0.213216 25.18 0.44C25.57 0.7 34.62 7 34.93 16.2C35.11 21.47 33.13 27.42 28.51 35.51C28.139 36.1697 27.9428 36.9132 27.94 37.67C27.9453 38.8202 28.4059 39.9215 29.2211 40.733C30.0363 41.5445 31.1398 42 32.29 42C34.3998 41.9383 36.4614 41.3542 38.29 40.3C38.7202 40.0352 39.2206 39.907 39.7252 39.9323C40.2297 39.9575 40.7148 40.135 41.1165 40.4414C41.5182 40.7478 41.8176 41.1687 41.9753 41.6487C42.133 42.1286 42.1416 42.6451 42 43.13C40.8568 47.4057 38.4154 51.2214 35.0124 54.0513C31.6094 56.8811 27.4124 58.5857 23 58.93C22.47 58.93 21.88 59 21.3 59H21.33ZM25 6.8C23.1438 11.5429 20.3594 15.8674 16.81 19.52C15.63 20.78 14.4 21.97 12.86 23.36L12.55 23.63L10.15 25.78C7.77378 28.0239 6.12508 30.9289 5.41692 34.1196C4.70876 37.3102 4.97368 40.6399 6.17746 43.6784C7.38124 46.7169 9.46856 49.3247 12.1697 51.1646C14.8709 53.0046 18.0617 53.9923 21.33 54C21.79 54 22.22 54 22.63 54C25.0803 53.8002 27.4543 53.0521 29.5764 51.811C31.6986 50.5699 33.5145 48.8676 34.89 46.83C34.0501 46.97 33.2013 47.0502 32.35 47.07C30.7054 47.082 29.0867 46.6601 27.6573 45.8467C26.2279 45.0333 25.0383 43.8572 24.2086 42.4372C23.3789 41.0172 22.9384 39.4034 22.9317 37.7588C22.9249 36.1141 23.352 34.4968 24.17 33.07C28.3 25.84 30.08 20.7 29.93 16.42C29.8 12.38 27.1 8.93 25 6.8Z" fill="black"/>
</g>
<defs>
<clipPath id="clip0">
<rect width="42.05" height="59" fill="white"/>
</clipPath>
</defs>
</svg>
