<svg width="59" height="37" viewBox="0 0 59 37" fill="none" xmlns="http://www.w3.org/2000/svg">
<path d="M10.74 36H10.61C9.08374 35.9825 7.57879 35.6395 6.19562 34.9941C4.81246 34.3486 3.58292 33.4155 2.58911 32.257C1.59531 31.0985 0.8601 29.7413 0.432589 28.276C0.0050773 26.8108 -0.1049 25.2712 0.11 23.76L2.33 8.21C2.66475 5.93651 3.8031 3.85823 5.53865 2.35202C7.27419 0.845796 9.49203 0.0113569 11.79 0H47.22C49.5185 0.00930161 51.7375 0.843016 53.4734 2.34961C55.2094 3.8562 56.3472 5.93565 56.68 8.21L58.89 23.64C59.1078 25.1632 58.9957 26.7154 58.5614 28.1915C58.1271 29.6676 57.3807 31.0332 56.3727 32.1957C55.3647 33.3583 54.1187 34.2906 52.719 34.9297C51.3193 35.5688 49.7987 35.8997 48.26 35.9H48C45.9141 35.8986 43.8737 35.2898 42.1281 34.1479C40.3824 33.0061 39.0071 31.3806 38.17 29.47L36.92 26.63C36.2898 25.1861 35.2523 23.9573 33.9344 23.0941C32.6165 22.2309 31.0754 21.7707 29.5 21.77H29.28C27.6978 21.7694 26.1501 22.2321 24.8279 23.1011C23.5057 23.9702 22.467 25.2074 21.84 26.66L20.6 29.53C19.7712 31.4559 18.3948 33.0958 16.6418 34.246C14.8889 35.3963 12.8366 36.0062 10.74 36ZM11.74 5C10.6521 5.01717 9.60591 5.42106 8.78869 6.13933C7.97148 6.8576 7.43665 7.84333 7.28 8.92L5.06 24.46C4.85373 25.8389 5.15727 27.2456 5.91374 28.4167C6.67022 29.5879 7.82773 30.443 9.16944 30.822C10.5112 31.201 11.945 31.0777 13.2024 30.4754C14.4598 29.8731 15.4544 28.833 16 27.55L17.24 24.68C18.2527 22.3362 19.9277 20.3392 22.0595 18.934C24.1912 17.5289 26.6868 16.7767 29.24 16.77H29.46C32.0073 16.7678 34.4999 17.5095 36.6316 18.904C38.7633 20.2985 40.4415 22.2852 41.46 24.62L42.71 27.46C43.1572 28.489 43.8971 29.3638 44.8377 29.9754C45.7783 30.5871 46.878 30.9086 48 30.9H48.27C49.0915 30.898 49.903 30.72 50.65 30.3779C51.3969 30.0359 52.0618 29.5378 52.6 28.9171C53.1383 28.2965 53.5372 27.5677 53.7701 26.7799C54.003 25.9921 54.0643 25.1635 53.95 24.35L51.73 8.92C51.572 7.83492 51.0299 6.84253 50.2023 6.12319C49.3747 5.40386 48.3165 5.00532 47.22 5H11.74Z" fill="black"/>
<path d="M20.1 16.17H12.1C11.437 16.17 10.8011 15.9066 10.3322 15.4378C9.86339 14.9689 9.6 14.333 9.6 13.67C9.6 13.007 9.86339 12.3711 10.3322 11.9022C10.8011 11.4334 11.437 11.17 12.1 11.17H20.1C20.763 11.17 21.3989 11.4334 21.8678 11.9022C22.3366 12.3711 22.6 13.007 22.6 13.67C22.6 14.333 22.3366 14.9689 21.8678 15.4378C21.3989 15.9066 20.763 16.17 20.1 16.17Z" fill="black"/>
<path d="M16.1 20.17C15.437 20.17 14.8011 19.9066 14.3322 19.4378C13.8634 18.9689 13.6 18.333 13.6 17.67V9.67C13.6 9.00696 13.8634 8.37107 14.3322 7.90223C14.8011 7.43339 15.437 7.17 16.1 7.17C16.763 7.17 17.3989 7.43339 17.8678 7.90223C18.3366 8.37107 18.6 9.00696 18.6 9.67V17.67C18.6013 17.9987 18.5376 18.3244 18.4124 18.6283C18.2872 18.9322 18.1031 19.2083 17.8707 19.4407C17.6383 19.6731 17.3622 19.8572 17.0583 19.9824C16.7544 20.1076 16.4287 20.1713 16.1 20.17Z" fill="black"/>
<path d="M42.93 8.6C42.4377 8.11767 41.814 7.7914 41.137 7.66213C40.4601 7.53285 39.76 7.60631 39.1246 7.8733C38.4893 8.14029 37.9468 8.58892 37.5654 9.16294C37.184 9.73695 36.9805 10.4108 36.9805 11.1C36.9805 11.7892 37.184 12.463 37.5654 13.0371C37.9468 13.6111 38.4893 14.0597 39.1246 14.3267C39.76 14.5937 40.4601 14.6672 41.137 14.5379C41.814 14.4086 42.4377 14.0823 42.93 13.6C43.2638 13.2748 43.5292 12.8861 43.7103 12.4567C43.8915 12.0273 43.9848 11.566 43.9848 11.1C43.9848 10.634 43.8915 10.1727 43.7103 9.74329C43.5292 9.31392 43.2638 8.92518 42.93 8.6Z" fill="black"/>
<path d="M46.08 19.34C47.5436 19.34 48.73 18.1536 48.73 16.69C48.73 15.2264 47.5436 14.04 46.08 14.04C44.6164 14.04 43.43 15.2264 43.43 16.69C43.43 18.1536 44.6164 19.34 46.08 19.34Z" fill="black"/>
</svg>
