<svg width="59" height="47" viewBox="0 0 59 47" fill="none" xmlns="http://www.w3.org/2000/svg">
<g clip-path="url(#clip0)">
<path d="M33.15 46.57H5.85002C4.96281 46.5722 4.08672 46.3726 3.28805 45.9862C2.48937 45.5999 1.78903 45.0369 1.24002 44.34C0.703382 43.6686 0.326395 42.884 0.137561 42.0455C-0.051273 41.207 -0.0470114 40.3366 0.150023 39.5C1.18562 35.1468 3.65889 31.2699 7.1701 28.496C10.6813 25.7221 15.0253 24.2132 19.5 24.2132C23.9747 24.2132 28.3187 25.7221 31.8299 28.496C35.3412 31.2699 37.8144 35.1468 38.85 39.5C39.0464 40.3382 39.0504 41.2101 38.8616 42.0501C38.6728 42.8901 38.2962 43.6764 37.76 44.35C37.209 45.044 36.508 45.6042 35.7096 45.9887C34.9112 46.3732 34.0362 46.5719 33.15 46.57ZM19.5 29.2C16.1423 29.1791 12.8774 30.3014 10.2422 32.3823C7.60695 34.4632 5.75824 37.3789 5.00002 40.65C4.97689 40.7525 4.97748 40.8589 5.00174 40.9612C5.026 41.0634 5.0733 41.1588 5.14002 41.24C5.22327 41.3428 5.32841 41.4258 5.44777 41.4829C5.56713 41.54 5.69771 41.5697 5.83002 41.57H33.13C33.2623 41.5697 33.3929 41.54 33.5123 41.4829C33.6316 41.4258 33.7368 41.3428 33.82 41.24C33.8867 41.1588 33.934 41.0634 33.9583 40.9612C33.9826 40.8589 33.9832 40.7525 33.96 40.65C33.2033 37.3857 31.3605 34.475 28.7335 32.3948C26.1065 30.3146 22.8509 29.1882 19.5 29.2Z" fill="black"/>
<path d="M19.5 21.65C17.3576 21.652 15.2628 21.0185 13.4805 19.8297C11.6982 18.6409 10.3085 16.9501 9.48728 14.9714C8.66605 12.9926 8.45015 10.8148 8.8669 8.7133C9.28365 6.61183 10.3143 4.68117 11.8285 3.16557C13.3427 1.64996 15.2724 0.617512 17.3735 0.198823C19.4746 -0.219866 21.6527 -0.00598043 23.6322 0.813422C25.6117 1.63282 27.3037 3.02093 28.4941 4.80213C29.6846 6.58333 30.32 8.67759 30.32 10.82C30.3174 13.6897 29.1769 16.4413 27.1486 18.4715C25.1203 20.5017 22.3698 21.6447 19.5 21.65ZM19.5 4.99999C18.3461 4.99801 17.2176 5.33851 16.2573 5.97835C15.297 6.6182 14.5482 7.52862 14.1057 8.59432C13.6632 9.66002 13.5469 10.8331 13.7716 11.9649C13.9962 13.0967 14.5517 14.1365 15.3676 14.9524C16.1835 15.7684 17.2233 16.3238 18.3551 16.5484C19.4869 16.7731 20.66 16.6568 21.7257 16.2143C22.7914 15.7718 23.7018 15.023 24.3417 14.0627C24.9815 13.1025 25.322 11.9739 25.32 10.82C25.3174 9.27724 24.7034 7.79844 23.6125 6.70755C22.5216 5.61666 21.0428 5.00263 19.5 4.99999Z" fill="black"/>
<path d="M53.74 46.57H30.26C29.597 46.57 28.9611 46.3066 28.4923 45.8378C28.0234 45.3689 27.76 44.733 27.76 44.07C27.76 43.407 28.0234 42.7711 28.4923 42.3022C28.9611 41.8334 29.597 41.57 30.26 41.57H53.74C53.7818 41.5708 53.8233 41.5623 53.8614 41.5449C53.8994 41.5276 53.9331 41.502 53.96 41.47C53.9683 41.4511 53.9725 41.4306 53.9725 41.41C53.9725 41.3893 53.9683 41.3689 53.96 41.35C53.4898 39.3723 52.5174 37.5492 51.1369 36.057C49.7563 34.5648 48.0142 33.4539 46.079 32.8316C44.1437 32.2093 42.0806 32.0966 40.0891 32.5045C38.0975 32.9124 36.2449 33.827 34.71 35.16C34.4646 35.3886 34.1756 35.5655 33.8604 35.6801C33.5451 35.7947 33.21 35.8447 32.8751 35.8272C32.5401 35.8096 32.2121 35.7248 31.9106 35.5778C31.6091 35.4308 31.3402 35.2246 31.12 34.9715C30.8999 34.7185 30.7329 34.4237 30.629 34.1047C30.5251 33.7858 30.4865 33.4492 30.5154 33.115C30.5444 32.7808 30.6402 32.4559 30.7974 32.1595C30.9545 31.8632 31.1696 31.6015 31.43 31.39C33.6128 29.4881 36.25 28.1827 39.0859 27.6001C41.9217 27.0176 44.86 27.1778 47.6158 28.0652C50.3715 28.9525 52.8511 30.537 54.8142 32.6649C56.7773 34.7928 58.1572 37.3918 58.82 40.21C58.9949 40.965 58.9957 41.7499 58.8224 42.5052C58.6492 43.2606 58.3064 43.9667 57.82 44.57C57.3322 45.1866 56.7126 45.6862 56.0066 46.0323C55.3007 46.3784 54.5262 46.5621 53.74 46.57Z" fill="black"/>
<path d="M42.5 26C40.6508 26 38.843 25.4516 37.3054 24.4242C35.7678 23.3968 34.5694 21.9366 33.8617 20.2281C33.1541 18.5196 32.9689 16.6396 33.3297 14.8259C33.6905 13.0122 34.581 11.3462 35.8886 10.0385C37.1962 8.73092 38.8622 7.84042 40.6759 7.47965C42.4897 7.11888 44.3696 7.30404 46.0781 8.01172C47.7866 8.7194 49.2469 9.91781 50.2743 11.4554C51.3017 12.993 51.85 14.8007 51.85 16.65C51.85 17.8778 51.6082 19.0937 51.1383 20.2281C50.6684 21.3625 49.9797 22.3932 49.1115 23.2614C48.2432 24.1297 47.2125 24.8184 46.0781 25.2883C44.9437 25.7581 43.7279 26 42.5 26ZM42.5 12.3C41.6397 12.3 40.7986 12.5551 40.0833 13.0331C39.3679 13.5111 38.8104 14.1905 38.4811 14.9853C38.1519 15.7802 38.0658 16.6548 38.2336 17.4986C38.4015 18.3424 38.8157 19.1175 39.4241 19.7259C40.0325 20.3343 40.8076 20.7486 41.6514 20.9164C42.4952 21.0843 43.3698 20.9981 44.1647 20.6689C44.9596 20.3396 45.6389 19.7821 46.1169 19.0667C46.5949 18.3514 46.85 17.5103 46.85 16.65C46.8395 15.5032 46.3765 14.4071 45.5619 13.5999C44.7472 12.7927 43.6468 12.3399 42.5 12.34V12.3Z" fill="black"/>
</g>
<defs>
<clipPath id="clip0">
<rect width="59" height="46.57" fill="white"/>
</clipPath>
</defs>
</svg>
