<svg width="60" height="58" viewBox="0 0 60 58" fill="none" xmlns="http://www.w3.org/2000/svg">
<g clip-path="url(#clip0)">
<path d="M29.68 57.27L28.6 56.76C23.4896 54.1437 18.7483 50.8618 14.5 47C5.17999 38.54 0.179993 28.68 0.179993 18.5C0.178998 15.0746 1.12953 11.7163 2.92559 8.7996C4.72165 5.88287 7.29262 3.52238 10.3518 1.98139C13.411 0.440401 16.8381 -0.220514 20.2509 0.0723536C23.6637 0.365221 26.9281 1.60036 29.68 3.64002C32.4319 1.60036 35.6963 0.365221 39.1091 0.0723536C42.5219 -0.220514 45.949 0.440401 49.0082 1.98139C52.0674 3.52238 54.6383 5.88287 56.4344 8.7996C58.2305 11.7163 59.181 15.0746 59.18 18.5C59.18 28.68 54.18 38.5 44.86 47.02C40.6105 50.8747 35.8693 54.1499 30.76 56.76L29.68 57.27ZM18.68 5.00002C15.1012 5.00531 11.6705 6.42933 9.1399 8.95992C6.6093 11.4905 5.18528 14.9212 5.17999 18.5C5.17999 37.2 24.81 49 29.68 51.68C34.54 49 54.18 37.2 54.18 18.5C54.1817 15.8608 53.4091 13.2791 51.9581 11.0746C50.507 8.87004 48.4412 7.13959 46.0164 6.09751C43.5917 5.05544 40.9145 4.74751 38.3164 5.21188C35.7184 5.67625 33.3136 6.8925 31.4 8.71002L29.68 10.35L27.96 8.71002C25.4574 6.32821 22.1348 4.99989 18.68 5.00002Z" fill="black"/>
</g>
<defs>
<clipPath id="clip0">
<rect width="59" height="57.27" fill="white" transform="translate(0.179993)"/>
</clipPath>
</defs>
</svg>
