<svg width="60" height="59" viewBox="0 0 60 59" fill="none" xmlns="http://www.w3.org/2000/svg">
<g clip-path="url(#clip0)">
<path d="M30.31 59C24.4755 59 18.7719 57.2699 13.9207 54.0284C9.06944 50.7868 5.28835 46.1796 3.05556 40.7892C0.822779 35.3987 0.238581 29.4673 1.37685 23.7448C2.51511 18.0224 5.32471 12.766 9.45036 8.64035C13.576 4.5147 18.8324 1.7051 24.5548 0.566832C30.2773 -0.571432 36.2088 0.0127666 41.5992 2.24555C46.9896 4.47834 51.5969 8.25943 54.8384 13.1107C58.0799 17.9619 59.81 23.6654 59.81 29.5C59.8021 37.3214 56.6915 44.8203 51.1609 50.3509C45.6303 55.8815 38.1315 58.9921 30.31 59ZM30.31 5C25.4644 5 20.7275 6.4369 16.6985 9.12899C12.6695 11.8211 9.52931 15.6475 7.67496 20.1243C5.82062 24.601 5.33543 29.5272 6.28077 34.2797C7.22611 39.0322 9.55951 43.3977 12.9859 46.8241C16.4123 50.2505 20.7778 52.5839 25.5303 53.5292C30.2828 54.4746 35.209 53.9894 39.6858 52.135C44.1625 50.2807 47.9889 47.1405 50.681 43.1115C53.3731 39.0825 54.81 34.3456 54.81 29.5C54.8021 23.0046 52.2183 16.7776 47.6254 12.1847C43.0324 7.59173 36.8054 5.00794 30.31 5Z" fill="black"/>
<path d="M29.56 37.62C28.897 37.62 28.2611 37.3566 27.7922 36.8878C27.3234 36.4189 27.06 35.783 27.06 35.12C27.0543 33.2489 27.6498 31.4255 28.7589 29.9185C29.8679 28.4116 31.4318 27.3008 33.22 26.75C33.9905 26.5153 34.6646 26.0381 35.142 25.3895C35.6195 24.7408 35.8748 23.9554 35.87 23.15C35.87 21.6754 35.2842 20.2612 34.2415 19.2185C33.1988 18.1758 31.7846 17.59 30.31 17.59C28.8354 17.59 27.4212 18.1758 26.3785 19.2185C25.3358 20.2612 24.75 21.6754 24.75 23.15C24.75 23.813 24.4866 24.4489 24.0178 24.9178C23.5489 25.3866 22.9131 25.65 22.25 25.65C21.587 25.65 20.9511 25.3866 20.4822 24.9178C20.0134 24.4489 19.75 23.813 19.75 23.15C19.75 20.3493 20.8626 17.6633 22.843 15.683C24.8233 13.7026 27.5093 12.59 30.31 12.59C33.1107 12.59 35.7967 13.7026 37.7771 15.683C39.7574 17.6633 40.87 20.3493 40.87 23.15C40.8758 25.0211 40.2802 26.8445 39.1711 28.3515C38.0621 29.8584 36.4982 30.9692 34.71 31.52C33.9404 31.7561 33.2672 32.2337 32.79 32.882C32.3127 33.5303 32.0568 34.315 32.06 35.12C32.06 35.4483 31.9953 35.7734 31.8697 36.0767C31.7441 36.38 31.5599 36.6556 31.3278 36.8878C31.0956 37.1199 30.82 37.3041 30.5167 37.4297C30.2134 37.5553 29.8883 37.62 29.56 37.62Z" fill="black"/>
<path d="M29.57 45.91C31.2269 45.91 32.57 44.5668 32.57 42.91C32.57 41.2531 31.2269 39.91 29.57 39.91C27.9132 39.91 26.57 41.2531 26.57 42.91C26.57 44.5668 27.9132 45.91 29.57 45.91Z" fill="black"/>
</g>
<defs>
<clipPath id="clip0">
<rect width="59" height="59" fill="white" transform="translate(0.809998)"/>
</clipPath>
</defs>
</svg>
