<svg width="60" height="59" viewBox="0 0 60 59" fill="none" xmlns="http://www.w3.org/2000/svg">
<g clip-path="url(#clip0)">
<path d="M56.64 58.9999C56.3114 59.0011 55.9858 58.9372 55.682 58.8119C55.3782 58.6866 55.1023 58.5024 54.87 58.2699L0.869992 4.26994C0.413886 3.79909 0.160969 3.16793 0.16572 2.5124C0.17047 1.85688 0.432507 1.22945 0.895388 0.765253C1.35827 0.30106 1.98496 0.0372492 2.64047 0.0306446C3.29598 0.0240401 3.92785 0.27517 4.39999 0.729943L58.4 54.7299C58.6328 54.9622 58.8175 55.238 58.9436 55.5418C59.0696 55.8455 59.1345 56.1711 59.1345 56.4999C59.1345 56.8288 59.0696 57.1544 58.9436 57.4581C58.8175 57.7618 58.6328 58.0377 58.4 58.2699C58.1703 58.503 57.8961 58.6877 57.5939 58.813C57.2916 58.9384 56.9672 59.002 56.64 58.9999Z" fill="black"/>
<path d="M29.61 51.9299C17.28 51.9299 6.93999 42.6899 1.86999 37.1799C0.727147 35.9483 0.0920715 34.3302 0.0920715 32.6499C0.0920715 30.9697 0.727147 29.3516 1.86999 28.1199C6.29525 23.1885 11.6204 19.1463 17.56 16.2099C18.162 15.9301 18.8506 15.901 19.4741 16.1288C20.0977 16.3567 20.6052 16.8229 20.885 17.4249C21.1648 18.027 21.194 18.7155 20.9661 19.3391C20.7383 19.9626 20.272 20.4701 19.67 20.7499C13.28 23.7499 8.07999 28.7499 5.54999 31.5099C5.26107 31.8192 5.10036 32.2267 5.10036 32.6499C5.10036 33.0732 5.26107 33.4807 5.54999 33.7899C9.18999 37.7899 18.8 46.9299 29.61 46.9299C34 46.9299 38.61 45.4299 43.39 42.4599C43.6684 42.2827 43.979 42.1619 44.304 42.1047C44.6291 42.0474 44.9622 42.0548 45.2845 42.1263C45.6067 42.1978 45.9117 42.3321 46.182 42.5214C46.4523 42.7108 46.6827 42.9515 46.86 43.2299C47.0373 43.5083 47.158 43.8189 47.2152 44.144C47.2725 44.469 47.2652 44.8022 47.1937 45.1244C47.1222 45.4466 46.9879 45.7516 46.7985 46.0219C46.6092 46.2923 46.3684 46.5227 46.09 46.6999C40.48 50.1699 34.95 51.9299 29.61 51.9299Z" fill="black"/>
<path d="M52.63 40.8899C52.1295 40.8892 51.6407 40.7382 51.227 40.4565C50.8133 40.1748 50.4936 39.7754 50.3094 39.3101C50.1252 38.8447 50.0849 38.3347 50.1938 37.8462C50.3026 37.3577 50.5556 36.9131 50.92 36.5699C51.92 35.6399 52.86 34.6699 53.77 33.6799C54.0258 33.3999 54.1676 33.0342 54.1676 32.6549C54.1676 32.2756 54.0258 31.91 53.77 31.6299C50.2 27.7299 40.77 18.6299 30.06 18.3799C29.3978 18.3616 28.7696 18.0822 28.3126 17.6026C27.8555 17.1231 27.6065 16.4823 27.62 15.8199C27.6251 15.4908 27.6957 15.166 27.8277 14.8644C27.9597 14.5628 28.1504 14.2906 28.3886 14.0634C28.6269 13.8363 28.908 13.6589 29.2156 13.5416C29.5231 13.4242 29.851 13.3693 30.18 13.3799C42.34 13.6599 52.49 22.8199 57.46 28.2499C58.5655 29.4486 59.1792 31.0194 59.1792 32.6499C59.1792 34.2805 58.5655 35.8513 57.46 37.0499C56.46 38.1299 55.46 39.1899 54.35 40.2099C53.8841 40.6473 53.269 40.8905 52.63 40.8899Z" fill="black"/>
<path d="M29.61 41.4399C27.6003 41.44 25.6513 40.7513 24.0878 39.4888C22.5242 38.2263 21.4405 36.4661 21.0172 34.5015C20.5938 32.5369 20.8565 30.4866 21.7614 28.6922C22.6662 26.8977 24.1587 25.4676 25.99 24.6399C26.5934 24.3615 27.2826 24.3341 27.9062 24.5638C28.5298 24.7935 29.0365 25.2616 29.315 25.8649C29.5935 26.4683 29.6209 27.1576 29.3911 27.7811C29.1614 28.4047 28.6934 28.9115 28.09 29.1899C27.5272 29.4392 27.0335 29.8217 26.6518 30.3045C26.27 30.7873 26.0115 31.3559 25.8987 31.961C25.7859 32.5661 25.8222 33.1895 26.0045 33.7774C26.1867 34.3654 26.5094 34.9001 26.9446 35.3353C27.3799 35.7705 27.9146 36.0932 28.5025 36.2755C29.0904 36.4577 29.7139 36.494 30.319 36.3812C30.9241 36.2684 31.4926 36.01 31.9754 35.6282C32.4582 35.2464 32.8408 34.7528 33.09 34.1899C33.3632 33.5852 33.8654 33.1138 34.4861 32.8794C35.1069 32.645 35.7953 32.6668 36.4 32.9399C37.0047 33.2131 37.4761 33.7153 37.7105 34.3361C37.9449 34.9568 37.9232 35.6452 37.65 36.2499C36.9524 37.7977 35.8225 39.111 34.3961 40.0317C32.9697 40.9525 31.3077 41.4415 29.61 41.4399Z" fill="black"/>
</g>
<defs>
<clipPath id="clip0">
<rect width="59.09" height="59" fill="white" transform="translate(0.0899963)"/>
</clipPath>
</defs>
</svg>
