<svg width="59" height="58" viewBox="0 0 59 58" fill="none" xmlns="http://www.w3.org/2000/svg">
<g clip-path="url(#clip0)">
<path d="M2.50001 32C2.01101 31.9951 1.53418 31.8469 1.12856 31.5738C0.72294 31.3006 0.406335 30.9145 0.217947 30.4632C0.0295592 30.0119 -0.0223394 29.5153 0.0686768 29.0348C0.159693 28.5543 0.389627 28.1111 0.730012 27.76L27.73 0.76C28.1881 0.288601 28.8129 0.0157212 29.47 2.29244e-08C30.1333 -8.95572e-05 30.7696 0.26236 31.24 0.73L58.24 27.73C58.7094 28.1994 58.9732 28.8361 58.9732 29.5C58.9732 30.1639 58.7094 30.8006 58.24 31.27C57.7706 31.7394 57.1339 32.0032 56.47 32.0032C55.8061 32.0032 55.1694 31.7394 54.7 31.27L29.47 6L4.27001 31.29C3.797 31.7512 3.16065 32.0065 2.50001 32Z" fill="black"/>
<path d="M41.55 57.86H17.45C14.6748 57.8494 12.0169 56.7396 10.0583 54.7734C8.09969 52.8073 6.99999 50.1452 7.00001 47.37V22.57C7.00001 21.907 7.2634 21.2711 7.73224 20.8022C8.20109 20.3334 8.83697 20.07 9.50001 20.07C10.1631 20.07 10.7989 20.3334 11.2678 20.8022C11.7366 21.2711 12 21.907 12 22.57V47.37C12 48.826 12.5784 50.2224 13.608 51.252C14.1178 51.7618 14.723 52.1662 15.3891 52.4421C16.0552 52.718 16.7691 52.86 17.49 52.86H41.59C43.0321 52.839 44.4081 52.2513 45.4204 51.224C46.4328 50.1967 47.0002 48.8123 47 47.37V22.57C47 21.907 47.2634 21.2711 47.7322 20.8022C48.2011 20.3334 48.837 20.07 49.5 20.07C50.1631 20.07 50.7989 20.3334 51.2678 20.8022C51.7366 21.2711 52 21.907 52 22.57V47.37C52 50.1452 50.9003 52.8073 48.9417 54.7734C46.9831 56.7396 44.3252 57.8494 41.55 57.86Z" fill="black"/>
<path d="M36.5 48.86H22.5C22.1713 48.8613 21.8457 48.7976 21.5417 48.6724C21.2378 48.5472 20.9617 48.3631 20.7293 48.1307C20.4969 47.8983 20.3128 47.6222 20.1876 47.3183C20.0625 47.0144 19.9987 46.6887 20 46.36V39.51C20 36.9904 21.0009 34.5741 22.7825 32.7925C24.5641 31.0109 26.9805 30.01 29.5 30.01C32.0196 30.01 34.4359 31.0109 36.2175 32.7925C37.9991 34.5741 39 36.9904 39 39.51V46.36C39.0013 46.6887 38.9376 47.0144 38.8124 47.3183C38.6872 47.6222 38.5031 47.8983 38.2707 48.1307C38.0383 48.3631 37.7622 48.5472 37.4583 48.6724C37.1544 48.7976 36.8287 48.8613 36.5 48.86ZM25 43.86H34V39.51C34 38.3165 33.5259 37.1719 32.682 36.328C31.8381 35.4841 30.6935 35.01 29.5 35.01C28.3065 35.01 27.1619 35.4841 26.318 36.328C25.4741 37.1719 25 38.3165 25 39.51V43.86Z" fill="black"/>
</g>
<defs>
<clipPath id="clip0">
<rect width="59" height="57.86" fill="white"/>
</clipPath>
</defs>
</svg>
