<svg width="60" height="59" viewBox="0 0 60 59" fill="none" xmlns="http://www.w3.org/2000/svg">
<g clip-path="url(#clip0)">
<path d="M49.34 59H11.34C8.55604 58.9974 5.88686 57.8903 3.9183 55.9217C1.94974 53.9531 0.842644 51.284 0.839996 48.5V10.5C0.842644 7.71604 1.94974 5.04686 3.9183 3.0783C5.88686 1.10974 8.55604 0.00264761 11.34 0H49.34C52.124 0.00264761 54.7931 1.10974 56.7617 3.0783C58.7303 5.04686 59.8373 7.71604 59.84 10.5V48.5C59.8373 51.284 58.7303 53.9531 56.7617 55.9217C54.7931 57.8903 52.124 58.9974 49.34 59ZM11.34 5C9.88212 5.00264 8.48471 5.58295 7.45383 6.61383C6.42295 7.64471 5.84264 9.04212 5.84 10.5V48.5C5.84264 49.9579 6.42295 51.3553 7.45383 52.3862C8.48471 53.417 9.88212 53.9974 11.34 54H49.34C50.7979 53.9974 52.1953 53.417 53.2262 52.3862C54.257 51.3553 54.8374 49.9579 54.84 48.5V10.5C54.8374 9.04212 54.257 7.64471 53.2262 6.61383C52.1953 5.58295 50.7979 5.00264 49.34 5H11.34Z" fill="black"/>
<path d="M3.34 49.52C2.84694 49.5189 2.36522 49.3721 1.95542 49.0979C1.54561 48.8238 1.22602 48.4346 1.03684 47.9792C0.847657 47.5239 0.797335 47.0228 0.892202 46.539C0.987068 46.0551 1.22289 45.6102 1.57 45.26L18.24 28.59C18.4722 28.3572 18.7481 28.1725 19.0518 28.0464C19.3556 27.9204 19.6812 27.8555 20.01 27.8555C20.3388 27.8555 20.6644 27.9204 20.9682 28.0464C21.2719 28.1725 21.5478 28.3572 21.78 28.59L28.28 35.08L41.15 22.21C41.3822 21.9772 41.6581 21.7925 41.9618 21.6664C42.2656 21.5404 42.5912 21.4755 42.92 21.4755C43.2488 21.4755 43.5744 21.5404 43.8782 21.6664C44.1819 21.7925 44.4578 21.9772 44.69 22.21L59.11 36.63C59.5648 37.1021 59.8159 37.734 59.8093 38.3895C59.8027 39.045 59.5389 39.6717 59.0747 40.1346C58.6105 40.5975 57.9831 40.8595 57.3275 40.8643C56.672 40.869 56.0408 40.6161 55.57 40.16L42.92 27.51L30.04 40.39C29.5714 40.8572 28.9367 41.1195 28.275 41.1195C27.6133 41.1195 26.9786 40.8572 26.51 40.39L20.01 33.89L5.11 48.79C4.87773 49.0225 4.60175 49.2066 4.29797 49.3319C3.99418 49.4572 3.6686 49.5211 3.34 49.52Z" fill="black"/>
<path d="M28.12 21.86C30.3291 21.86 32.12 20.0691 32.12 17.86C32.12 15.6509 30.3291 13.86 28.12 13.86C25.9109 13.86 24.12 15.6509 24.12 17.86C24.12 20.0691 25.9109 21.86 28.12 21.86Z" fill="black"/>
</g>
<defs>
<clipPath id="clip0">
<rect width="59" height="59" fill="white" transform="translate(0.839996)"/>
</clipPath>
</defs>
</svg>
