<svg width="60" height="55" viewBox="0 0 60 55" fill="none" xmlns="http://www.w3.org/2000/svg">
<g clip-path="url(#clip0)">
<path d="M48.55 55H10.55C7.76603 54.9974 5.09685 53.8903 3.12829 51.9217C1.15973 49.9531 0.0526354 47.284 0.0499878 44.5V27.5C0.0513256 27.1889 0.108919 26.8806 0.219988 26.59L10.02 1.59C10.2032 1.12124 10.5236 0.718682 10.9393 0.434994C11.355 0.151307 11.8467 -0.000302016 12.35 4.51697e-07H46.75C47.2481 0.00569206 47.7332 0.160092 48.1431 0.443392C48.5529 0.726691 48.8687 1.12597 49.05 1.59L58.85 26.59C58.9611 26.8806 59.0187 27.1889 59.02 27.5V44.5C59.0174 47.2788 57.9144 49.9434 55.9523 51.9111C53.9902 53.8788 51.3287 54.9894 48.55 55ZM5.04999 28V44.5C5.05263 45.9579 5.63294 47.3553 6.66382 48.3862C7.6947 49.417 9.09211 49.9974 10.55 50H48.55C50.0079 49.9974 51.4053 49.417 52.4362 48.3862C53.467 47.3553 54.0473 45.9579 54.05 44.5V28L45.05 5H14.05L5.04999 28Z" fill="black"/>
<path d="M29.55 43C25.8778 42.9952 22.3268 41.6852 19.5315 39.3038C16.7361 36.9224 14.8783 33.6248 14.29 30H4.54999C3.88695 30 3.25106 29.7366 2.78222 29.2678C2.31338 28.7989 2.04999 28.163 2.04999 27.5C2.04999 26.837 2.31338 26.2011 2.78222 25.7322C3.25106 25.2634 3.88695 25 4.54999 25H16.55C17.213 25 17.8489 25.2634 18.3178 25.7322C18.7866 26.2011 19.05 26.837 19.05 27.5C19.05 30.2848 20.1562 32.9555 22.1254 34.9246C24.0945 36.8938 26.7652 38 29.55 38C32.3348 38 35.0055 36.8938 36.9746 34.9246C38.9437 32.9555 40.05 30.2848 40.05 27.5C40.05 26.837 40.3134 26.2011 40.7822 25.7322C41.2511 25.2634 41.8869 25 42.55 25H54.55C55.213 25 55.8489 25.2634 56.3178 25.7322C56.7866 26.2011 57.05 26.837 57.05 27.5C57.05 28.163 56.7866 28.7989 56.3178 29.2678C55.8489 29.7366 55.213 30 54.55 30H44.81C44.2217 33.6248 42.3639 36.9224 39.5685 39.3038C36.7731 41.6852 33.2222 42.9952 29.55 43Z" fill="black"/>
</g>
<defs>
<clipPath id="clip0">
<rect width="59" height="55" fill="white" transform="translate(0.0499878)"/>
</clipPath>
</defs>
</svg>
