<svg width="59" height="54" viewBox="0 0 59 54" fill="none" xmlns="http://www.w3.org/2000/svg">
<g clip-path="url(#clip0)">
<path d="M43.79 53.34H25.48C22.7442 53.3439 20.0746 52.4983 17.84 50.92L13.1 47.57H6.15001C4.51974 47.5674 2.957 46.9186 1.80422 45.7658C0.651446 44.613 0.00265226 43.0503 7.86351e-06 41.42V30C-0.00526252 29.1885 0.149849 28.384 0.456432 27.6327C0.763015 26.8814 1.21503 26.198 1.7865 25.6219C2.35798 25.0458 3.03765 24.5882 3.78648 24.2756C4.53531 23.9629 5.33853 23.8013 6.15001 23.8H12.72L19.37 15.25C19.6092 14.9446 19.7394 14.5679 19.74 14.18V4.25C19.7427 3.12191 20.1926 2.04093 20.9913 1.24419C21.7899 0.447444 22.8719 -3.10809e-06 24 0C26.9493 0.00529382 29.7762 1.17993 31.8607 3.26635C33.9453 5.35277 35.1174 8.18068 35.12 11.13V18.59H50.48C51.7631 18.5911 53.0272 18.9009 54.1655 19.4931C55.3038 20.0854 56.2829 20.9427 57.0202 21.9929C57.7576 23.043 58.2315 24.2551 58.402 25.5268C58.5726 26.7986 58.4347 28.0927 58 29.3L51.34 48C50.7892 49.5622 49.7671 50.9149 48.4148 51.8714C47.0624 52.8279 45.4465 53.3411 43.79 53.34ZM6.15001 28.3C5.92905 28.2999 5.71033 28.3442 5.50681 28.4302C5.3033 28.5162 5.11913 28.6423 4.96524 28.8008C4.81135 28.9594 4.69088 29.1472 4.61096 29.3532C4.53104 29.5592 4.49331 29.7791 4.50001 30V41.42C4.50001 41.8576 4.67385 42.2773 4.98328 42.5867C5.29272 42.8962 5.7124 43.07 6.15001 43.07H13.82C14.2814 43.0742 14.7309 43.217 15.11 43.48L20.43 47.24C21.9064 48.2847 23.6714 48.8439 25.48 48.84H43.79C44.5141 48.838 45.2201 48.6134 45.8122 48.1966C46.4043 47.7798 46.8539 47.191 47.1 46.51L53.79 27.79C53.9788 27.2594 54.0375 26.6912 53.9613 26.1332C53.885 25.5752 53.6759 25.0437 53.3516 24.5832C53.0273 24.1227 52.5973 23.7468 52.0976 23.487C51.5979 23.2271 51.0432 23.091 50.48 23.09H32.87C32.2733 23.09 31.701 22.8529 31.279 22.431C30.8571 22.009 30.62 21.4367 30.62 20.84V11.13C30.6163 9.41557 29.9505 7.76882 28.7618 6.53347C27.573 5.29811 25.953 4.5696 24.24 4.5V14.18C24.2307 15.5636 23.7669 16.9058 22.92 18L15.59 27.41C15.3814 27.681 15.1133 27.9005 14.8064 28.0513C14.4995 28.2022 14.162 28.2804 13.82 28.28L6.15001 28.3Z" fill="black"/>
<path d="M13.82 47.57C13.2233 47.57 12.651 47.3329 12.229 46.911C11.8071 46.489 11.57 45.9167 11.57 45.32V26.05C11.57 25.4533 11.8071 24.881 12.229 24.459C12.651 24.0371 13.2233 23.8 13.82 23.8C14.4167 23.8 14.989 24.0371 15.411 24.459C15.833 24.881 16.07 25.4533 16.07 26.05V45.32C16.07 45.9167 15.833 46.489 15.411 46.911C14.989 47.3329 14.4167 47.57 13.82 47.57Z" fill="black"/>
</g>
<defs>
<clipPath id="clip0">
<rect width="58.49" height="53.34" fill="white"/>
</clipPath>
</defs>
</svg>
