<svg width="59" height="31" viewBox="0 0 59 31" fill="none" xmlns="http://www.w3.org/2000/svg">
<g clip-path="url(#clip0)">
<path d="M18.84 30.96C8.45 30.96 0 24.08 0 15.63C0 7.18004 8.45 0.290039 18.84 0.290039C19.503 0.290039 20.1389 0.553431 20.6078 1.02227C21.0766 1.49111 21.34 2.127 21.34 2.79004C21.34 3.45308 21.0766 4.08896 20.6078 4.55781C20.1389 5.02665 19.503 5.29004 18.84 5.29004C11.21 5.29004 5 9.93004 5 15.63C5 21.33 11.21 25.96 18.84 25.96C26.47 25.96 32.67 21.29 32.67 15.63C32.67 14.967 32.9334 14.3311 33.4022 13.8623C33.8711 13.3934 34.507 13.13 35.17 13.13C35.833 13.13 36.4689 13.3934 36.9378 13.8623C37.4066 14.3311 37.67 14.967 37.67 15.63C37.67 24.08 29.22 30.96 18.84 30.96Z" fill="black"/>
<path d="M40.16 30.96C39.497 30.96 38.8611 30.6966 38.3922 30.2278C37.9234 29.759 37.66 29.1231 37.66 28.46C37.66 27.797 37.9234 27.1611 38.3922 26.6923C38.8611 26.2234 39.497 25.96 40.16 25.96C47.79 25.96 54 21.29 54 15.63C54 9.97004 47.79 5.29004 40.16 5.29004C32.53 5.29004 26.33 9.93004 26.33 15.63C26.33 16.2931 26.0666 16.929 25.5978 17.3978C25.1289 17.8666 24.493 18.13 23.83 18.13C23.167 18.13 22.5311 17.8666 22.0622 17.3978C21.5934 16.929 21.33 16.2931 21.33 15.63C21.33 7.17004 29.78 0.290039 40.16 0.290039C50.54 0.290039 59 7.17004 59 15.63C59 24.09 50.55 30.96 40.16 30.96Z" fill="black"/>
</g>
<defs>
<clipPath id="clip0">
<rect width="59" height="30.67" fill="white" transform="translate(0 0.290039)"/>
</clipPath>
</defs>
</svg>
