<svg width="53" height="59" viewBox="0 0 53 59" fill="none" xmlns="http://www.w3.org/2000/svg">
<g clip-path="url(#clip0)">
<path d="M41.99 59H10.99C8.20603 58.9974 5.53685 57.8903 3.56829 55.9217C1.59973 53.9531 0.492638 51.284 0.48999 48.5V39.5C0.48999 38.837 0.753382 38.2011 1.22222 37.7322C1.69106 37.2634 2.32695 37 2.98999 37C3.65303 37 4.28892 37.2634 4.75776 37.7322C5.2266 38.2011 5.48999 38.837 5.48999 39.5V48.5C5.49263 49.9579 6.07295 51.3553 7.10382 52.3862C8.1347 53.417 9.53211 53.9974 10.99 54H41.99C43.4479 53.9974 44.8453 53.417 45.8762 52.3862C46.907 51.3553 47.4873 49.9579 47.49 48.5V10.5C47.4873 9.04212 46.907 7.64471 45.8762 6.61383C44.8453 5.58295 43.4479 5.00264 41.99 5H10.99C9.53211 5.00264 8.1347 5.58295 7.10382 6.61383C6.07295 7.64471 5.49263 9.04212 5.48999 10.5V19.5C5.48999 20.163 5.2266 20.7989 4.75776 21.2678C4.28892 21.7366 3.65303 22 2.98999 22C2.32695 22 1.69106 21.7366 1.22222 21.2678C0.753382 20.7989 0.48999 20.163 0.48999 19.5V10.5C0.492638 7.71604 1.59973 5.04686 3.56829 3.0783C5.53685 1.10974 8.20603 0.00264761 10.99 0H41.99C44.774 0.00264761 47.4431 1.10974 49.4117 3.0783C51.3802 5.04686 52.4873 7.71604 52.49 10.5V48.5C52.4873 51.284 51.3802 53.9531 49.4117 55.9217C47.4431 57.8903 44.774 58.9974 41.99 59Z" fill="black"/>
<path d="M35.49 32H2.98999C2.32695 32 1.69106 31.7366 1.22222 31.2678C0.753382 30.7989 0.48999 30.163 0.48999 29.5C0.48999 28.837 0.753382 28.2011 1.22222 27.7322C1.69106 27.2634 2.32695 27 2.98999 27H35.49C36.153 27 36.7889 27.2634 37.2578 27.7322C37.7266 28.2011 37.99 28.837 37.99 29.5C37.99 30.163 37.7266 30.7989 37.2578 31.2678C36.7889 31.7366 36.153 32 35.49 32Z" fill="black"/>
<path d="M23.49 44C23.1614 44.0011 22.8358 43.9372 22.532 43.8119C22.2282 43.6866 21.9523 43.5025 21.72 43.27C21.2546 42.7984 20.9937 42.1625 20.9937 41.5C20.9937 40.8375 21.2546 40.2016 21.72 39.73L31.95 29.5L21.72 19.27C21.2506 18.8006 20.9868 18.1639 20.9868 17.5C20.9868 16.8361 21.2506 16.1994 21.72 15.73C22.1894 15.2606 22.8261 14.9968 23.49 14.9968C24.1539 14.9968 24.7906 15.2606 25.26 15.73L37.26 27.73C37.7253 28.2016 37.9863 28.8375 37.9863 29.5C37.9863 30.1625 37.7253 30.7984 37.26 31.27L25.26 43.27C25.0277 43.5025 24.7517 43.6866 24.448 43.8119C24.1442 43.9372 23.8186 44.0011 23.49 44Z" fill="black"/>
</g>
<defs>
<clipPath id="clip0">
<rect width="52" height="59" fill="white" transform="translate(0.48999)"/>
</clipPath>
</defs>
</svg>
