<svg width="60" height="59" viewBox="0 0 60 59" fill="none" xmlns="http://www.w3.org/2000/svg">
<g clip-path="url(#clip0)">
<path d="M32 59H31.74C30.7876 58.9562 29.871 58.6238 29.1119 58.0469C28.3528 57.47 27.7872 56.6759 27.49 55.77L21.56 37.93L3.71998 32C2.82144 31.6991 2.03399 31.1353 1.45967 30.3816C0.885346 29.628 0.550632 28.7191 0.498906 27.773C0.44718 26.8268 0.680826 25.8869 1.16956 25.0751C1.6583 24.2633 2.3796 23.617 3.23998 23.22L52.78 0.440011C53.6575 0.0381184 54.6369 -0.0857127 55.5869 0.0851404C56.5368 0.255994 57.4117 0.713353 58.0942 1.39583C58.7766 2.0783 59.234 2.95322 59.4049 3.90313C59.5757 4.85305 59.4519 5.8325 59.05 6.71001L36.29 56.25C35.915 57.0723 35.3109 57.7691 34.55 58.2569C33.7891 58.7446 32.9038 59.0026 32 59ZM5.99998 27.46L24.37 33.58C24.7382 33.7021 25.0728 33.9085 25.3472 34.1828C25.6215 34.4571 25.8279 34.7918 25.95 35.16L32.07 53.53L54.2 5.29001L5.99998 27.46Z" fill="black"/>
<path d="M23.54 38.45C23.2114 38.4511 22.8858 38.3872 22.582 38.2619C22.2782 38.1366 22.0022 37.9525 21.77 37.72C21.3046 37.2484 21.0437 36.6125 21.0437 35.95C21.0437 35.2875 21.3046 34.6516 21.77 34.18L26.65 29.31C27.1263 28.8843 27.7475 28.657 28.386 28.6749C29.0246 28.6927 29.6322 28.9544 30.0839 29.4061C30.5356 29.8578 30.7973 30.4654 30.8151 31.1039C30.833 31.7425 30.6057 32.3637 30.18 32.84L25.31 37.72C25.0777 37.9525 24.8017 38.1366 24.4979 38.2619C24.1942 38.3872 23.8686 38.4511 23.54 38.45Z" fill="black"/>
</g>
<defs>
<clipPath id="clip0">
<rect width="59" height="59" fill="white" transform="translate(0.48999)"/>
</clipPath>
</defs>
</svg>
