<svg width="60" height="51" viewBox="0 0 60 51" fill="none" xmlns="http://www.w3.org/2000/svg">
<g clip-path="url(#clip0)">
<path d="M48.55 51H10.55C7.76603 50.9974 5.09685 49.8903 3.12829 47.9217C1.15973 45.9531 0.0526354 43.284 0.0499878 40.5V10.5C0.0526354 7.71604 1.15973 5.04686 3.12829 3.0783C5.09685 1.10974 7.76603 0.00264761 10.55 0H48.55C51.334 0.00264761 54.0031 1.10974 55.9717 3.0783C57.9402 5.04686 59.0473 7.71604 59.05 10.5V40.5C59.0473 43.284 57.9402 45.9531 55.9717 47.9217C54.0031 49.8903 51.334 50.9974 48.55 51ZM10.55 5C9.09211 5.00264 7.6947 5.58295 6.66382 6.61383C5.63294 7.64471 5.05263 9.04212 5.04999 10.5V40.5C5.05263 41.9579 5.63294 43.3553 6.66382 44.3862C7.6947 45.417 9.09211 45.9974 10.55 46H48.55C50.0079 45.9974 51.4053 45.417 52.4362 44.3862C53.467 43.3553 54.0473 41.9579 54.05 40.5V10.5C54.0473 9.04212 53.467 7.64471 52.4362 6.61383C51.4053 5.58295 50.0079 5.00264 48.55 5H10.55Z" fill="black"/>
<path d="M29.55 28.51C27.7465 28.5152 25.9723 28.0536 24.4 27.17L1.46999 14.28C0.891816 13.9538 0.466913 13.4113 0.288754 12.7718C0.110594 12.1323 0.193772 11.4482 0.519988 10.87C0.846204 10.2918 1.38874 9.86693 2.02824 9.68877C2.66774 9.51061 3.35182 9.59378 3.92999 9.92L26.85 22.82C27.6747 23.277 28.6021 23.5168 29.545 23.5168C30.4879 23.5168 31.4153 23.277 32.24 22.82L55.17 9.92C55.4563 9.75847 55.7716 9.65492 56.0979 9.61524C56.4242 9.57557 56.7551 9.60055 57.0717 9.68877C57.3884 9.77698 57.6846 9.9267 57.9433 10.1294C58.2021 10.3321 58.4185 10.5837 58.58 10.87C58.7415 11.1563 58.8451 11.4716 58.8847 11.7979C58.9244 12.1242 58.8994 12.4551 58.8112 12.7718C58.723 13.0884 58.5733 13.3846 58.3706 13.6434C58.1679 13.9021 57.9163 14.1185 57.63 14.28L34.7 27.17C33.1277 28.0536 31.3535 28.5152 29.55 28.51Z" fill="black"/>
</g>
<defs>
<clipPath id="clip0">
<rect width="59" height="51" fill="white" transform="translate(0.0499878)"/>
</clipPath>
</defs>
</svg>
