<svg width="59" height="57" viewBox="0 0 59 57" fill="none" xmlns="http://www.w3.org/2000/svg">
<g clip-path="url(#clip0)">
<path d="M16.45 57C15.9999 56.9988 15.5581 56.878 15.17 56.65C14.807 56.422 14.5088 56.1045 14.3039 55.728C14.099 55.3515 13.9943 54.9286 14 54.5V44.37C14 43.707 14.2634 43.0711 14.7322 42.6022C15.2011 42.1334 15.837 41.87 16.5 41.87C17.163 41.87 17.7989 42.1334 18.2678 42.6022C18.7366 43.0711 19 43.707 19 44.37V50.3L33.76 42.3C34.3435 41.9844 35.0284 41.9135 35.6642 42.1029C36.2999 42.2923 36.8344 42.7265 37.15 43.31C37.4656 43.8935 37.5365 44.5784 37.3471 45.2142C37.1577 45.8499 36.7235 46.3844 36.14 46.7L17.69 56.7C17.3096 56.9056 16.8823 57.0089 16.45 57Z" fill="black"/>
<path d="M40.5 47H34.9C34.237 47 33.6011 46.7366 33.1322 46.2678C32.6634 45.7989 32.4 45.163 32.4 44.5C32.4 43.837 32.6634 43.2011 33.1322 42.7322C33.6011 42.2634 34.237 42 34.9 42H40.5C44.0788 41.9947 47.5095 40.5707 50.0401 38.0401C52.5707 35.5095 53.9947 32.0788 54 28.5V18.5C53.9947 14.9212 52.5707 11.4905 50.0401 8.9599C47.5095 6.42931 44.0788 5.00529 40.5 5H18.5C14.9212 5.00529 11.4905 6.42931 8.95991 8.9599C6.42931 11.4905 5.0053 14.9212 5.00001 18.5V28.5C5.00395 31.7798 6.20002 34.9464 8.36539 37.4098C10.5308 39.8732 13.5178 41.4655 16.77 41.89C17.4331 41.9749 18.0352 42.3197 18.444 42.8485C18.8529 43.3774 19.0349 44.047 18.95 44.71C18.8651 45.373 18.5204 45.9752 17.9915 46.384C17.4626 46.7929 16.793 46.9749 16.13 46.89C11.6664 46.307 7.56763 44.119 4.59931 40.7348C1.63099 37.3506 -0.00389939 33.0015 6.98419e-06 28.5V18.5C0.00530098 13.5951 1.9561 8.89265 5.42438 5.42437C8.89265 1.9561 13.5951 0.00529399 18.5 0H40.5C45.4049 0.00529399 50.1074 1.9561 53.5756 5.42437C57.0439 8.89265 58.9947 13.5951 59 18.5V28.5C58.9947 33.4049 57.0439 38.1074 53.5756 41.5756C50.1074 45.0439 45.4049 46.9947 40.5 47Z" fill="black"/>
<path d="M41 26H18C17.337 26 16.7011 25.7366 16.2322 25.2678C15.7634 24.7989 15.5 24.163 15.5 23.5C15.5 22.837 15.7634 22.2011 16.2322 21.7322C16.7011 21.2634 17.337 21 18 21H41C41.663 21 42.2989 21.2634 42.7678 21.7322C43.2366 22.2011 43.5 22.837 43.5 23.5C43.5 24.163 43.2366 24.7989 42.7678 25.2678C42.2989 25.7366 41.663 26 41 26Z" fill="black"/>
<path d="M41 35.5H18C17.337 35.5 16.7011 35.2366 16.2322 34.7678C15.7634 34.2989 15.5 33.663 15.5 33C15.5 32.337 15.7634 31.7011 16.2322 31.2322C16.7011 30.7634 17.337 30.5 18 30.5H41C41.663 30.5 42.2989 30.7634 42.7678 31.2322C43.2366 31.7011 43.5 32.337 43.5 33C43.5 33.663 43.2366 34.2989 42.7678 34.7678C42.2989 35.2366 41.663 35.5 41 35.5Z" fill="black"/>
<path d="M41 16.5H18C17.337 16.5 16.7011 16.2366 16.2322 15.7678C15.7634 15.2989 15.5 14.663 15.5 14C15.5 13.337 15.7634 12.7011 16.2322 12.2322C16.7011 11.7634 17.337 11.5 18 11.5H41C41.663 11.5 42.2989 11.7634 42.7678 12.2322C43.2366 12.7011 43.5 13.337 43.5 14C43.5 14.663 43.2366 15.2989 42.7678 15.7678C42.2989 16.2366 41.663 16.5 41 16.5Z" fill="black"/>
</g>
<defs>
<clipPath id="clip0">
<rect width="59" height="57" fill="white"/>
</clipPath>
</defs>
</svg>
