<svg width="60" height="59" viewBox="0 0 60 59" fill="none" xmlns="http://www.w3.org/2000/svg">
<g clip-path="url(#clip0)">
<path d="M39.4857 32H20.1943C19.5699 32 18.9711 31.7366 18.5296 31.2678C18.0881 30.7989 17.84 30.1631 17.84 29.5C17.84 28.837 18.0881 28.2011 18.5296 27.7322C18.9711 27.2634 19.5699 27 20.1943 27L39.4857 27C40.1101 27 40.7089 27.2634 41.1504 27.7322C41.592 28.2011 41.84 28.837 41.84 29.5C41.84 30.1631 41.592 30.7989 41.1505 31.2678C40.7089 31.7366 40.1101 32 39.4857 32Z" fill="black"/>
<path fill-rule="evenodd" clip-rule="evenodd" d="M13.9507 54.0284C18.8019 57.2699 24.5055 59 30.34 59C38.1615 58.9921 45.6603 55.8815 51.1909 50.3509C56.7215 44.8203 59.8321 37.3215 59.84 29.5C59.84 23.6655 58.1099 17.9619 54.8684 13.1107C51.6269 8.25944 47.0196 4.47835 41.6292 2.24557C36.2387 0.0127819 30.3073 -0.571416 24.5848 0.566848C18.8624 1.70511 13.606 4.51471 9.48036 8.64036C5.35471 12.766 2.54511 18.0224 1.40684 23.7448C0.26858 29.4673 0.852778 35.3988 3.08556 40.7892C5.31835 46.1796 9.09944 50.7869 13.9507 54.0284ZM16.7285 9.12901C20.7575 6.43691 25.4944 5.00001 30.34 5.00001C36.8354 5.00795 43.0624 7.59174 47.6554 12.1847C52.2483 16.7776 54.8321 23.0046 54.84 29.5C54.84 34.3457 53.4031 39.0825 50.711 43.1115C48.0189 47.1405 44.1925 50.2807 39.7158 52.1351C35.239 53.9894 30.3128 54.4746 25.5603 53.5293C20.8078 52.5839 16.4423 50.2505 13.0159 46.8241C9.58951 43.3977 7.25611 39.0323 6.31077 34.2797C5.36543 29.5272 5.85061 24.6011 7.70496 20.1243C9.55931 15.6475 12.6995 11.8211 16.7285 9.12901Z" fill="black"/>
</g>
<defs>
<clipPath id="clip0">
<rect width="59" height="59" fill="white" transform="translate(0.839996)"/>
</clipPath>
</defs>
</svg>
