<svg width="37" height="59" viewBox="0 0 37 59" fill="none" xmlns="http://www.w3.org/2000/svg">
<g clip-path="url(#clip0)">
<path d="M26.42 12.92C23.6573 12.9174 21.0084 11.8187 19.0549 9.86513C17.1013 7.91157 16.0027 5.26274 16 2.5C16 1.83696 16.2634 1.20107 16.7322 0.732233C17.2011 0.263392 17.837 0 18.5 0C19.163 0 19.7989 0.263392 20.2678 0.732233C20.7366 1.20107 21 1.83696 21 2.5C21 3.93747 21.571 5.31607 22.5875 6.33252C23.6039 7.34897 24.9825 7.92 26.42 7.92C27.083 7.92 27.7189 8.18339 28.1878 8.65223C28.6566 9.12107 28.92 9.75696 28.92 10.42C28.92 11.083 28.6566 11.7189 28.1878 12.1878C27.7189 12.6566 27.083 12.92 26.42 12.92Z" fill="black"/>
<path d="M34.34 20.84C34.0113 20.8413 33.6856 20.7776 33.3817 20.6524C33.0778 20.5272 32.8017 20.3431 32.5693 20.1107C32.3369 19.8783 32.1528 19.6022 32.0276 19.2983C31.9024 18.9944 31.8387 18.6687 31.84 18.34C31.84 16.9025 31.269 15.5239 30.2525 14.5075C29.2361 13.491 27.8575 12.92 26.42 12.92C25.757 12.92 25.1211 12.6566 24.6522 12.1878C24.1834 11.7189 23.92 11.083 23.92 10.42C23.92 9.75696 24.1834 9.12107 24.6522 8.65223C25.1211 8.18339 25.757 7.92 26.42 7.92C29.1827 7.92265 31.8316 9.02132 33.7851 10.9749C35.7387 12.9284 36.8374 15.5773 36.84 18.34C36.8413 18.6687 36.7776 18.9944 36.6524 19.2983C36.5272 19.6022 36.3431 19.8783 36.1107 20.1107C35.8783 20.3431 35.6022 20.5272 35.2983 20.6524C34.9944 20.7776 34.6687 20.8413 34.34 20.84Z" fill="black"/>
<path d="M10.5 59C8.4233 59 6.39323 58.3842 4.66652 57.2304C2.9398 56.0767 1.59399 54.4368 0.79927 52.5182C0.00454944 50.5996 -0.203386 48.4884 0.201759 46.4516C0.606904 44.4148 1.60693 42.5438 3.07538 41.0754C4.54384 39.6069 6.41476 38.6069 8.45156 38.2018C10.4884 37.7966 12.5996 38.0045 14.5182 38.7993C16.4368 39.594 18.0767 40.9398 19.2304 42.6665C20.3842 44.3932 21 46.4233 21 48.5C20.9974 51.284 19.8903 53.9531 17.9217 55.9217C15.9531 57.8903 13.284 58.9974 10.5 59ZM10.5 43C9.41221 43 8.34884 43.3226 7.44437 43.9269C6.5399 44.5313 5.83495 45.3902 5.41867 46.3952C5.00239 47.4002 4.89347 48.5061 5.10569 49.573C5.3179 50.6399 5.84173 51.6199 6.61092 52.3891C7.38011 53.1583 8.36011 53.6821 9.42701 53.8943C10.4939 54.1065 11.5998 53.9976 12.6048 53.5813C13.6098 53.1651 14.4687 52.4601 15.0731 51.5556C15.6774 50.6512 16 49.5878 16 48.5C15.9974 47.0421 15.417 45.6447 14.3862 44.6138C13.3553 43.583 11.9579 43.0026 10.5 43Z" fill="black"/>
<path d="M18.5 51C17.837 51 17.2011 50.7366 16.7322 50.2678C16.2634 49.7989 16 49.163 16 48.5V2.5C16 1.83696 16.2634 1.20107 16.7322 0.732233C17.2011 0.263392 17.837 0 18.5 0C19.163 0 19.7989 0.263392 20.2678 0.732233C20.7366 1.20107 21 1.83696 21 2.5V48.5C21 49.163 20.7366 49.7989 20.2678 50.2678C19.7989 50.7366 19.163 51 18.5 51Z" fill="black"/>
</g>
<defs>
<clipPath id="clip0">
<rect width="36.84" height="59" fill="white"/>
</clipPath>
</defs>
</svg>
