<svg width="48" height="59" viewBox="0 0 48 59" fill="none" xmlns="http://www.w3.org/2000/svg">
<g clip-path="url(#clip0)">
<path d="M41.13 49H6.68001C5.46781 48.9991 4.2787 48.6684 3.24011 48.0433C2.20152 47.4182 1.35261 46.5222 0.784352 45.4515C0.216093 44.3807 -0.050093 43.1755 0.0143226 41.965C0.0787381 40.7546 0.471327 39.5844 1.15001 38.58L3.67001 34.85C4.32597 33.8786 4.67441 32.7322 4.67001 31.56V19.7C4.59728 14.6868 6.46324 9.83923 9.87853 6.16868C13.2938 2.49813 17.9946 0.288196 23 1.71866e-05C25.6002 -0.120326 28.1977 0.287902 30.6356 1.20002C33.0735 2.11214 35.3011 3.50919 37.1836 5.30672C39.0662 7.10425 40.5647 9.2649 41.5885 11.658C42.6123 14.0512 43.1401 16.6271 43.14 19.23V31.56C43.1356 32.7322 43.4841 33.8786 44.14 34.85L46.66 38.58C47.3387 39.5844 47.7313 40.7546 47.7957 41.965C47.8601 43.1755 47.5939 44.3807 47.0257 45.4515C46.4574 46.5222 45.6085 47.4182 44.5699 48.0433C43.5313 48.6684 42.3422 48.9991 41.13 49ZM23.91 5.00002H23.21C19.4939 5.23381 16.0115 6.89306 13.4889 9.63177C10.9663 12.3705 9.59825 15.9773 9.67001 19.7V31.56C9.67368 33.7304 9.02572 35.852 7.81001 37.65L5.29001 41.38C5.11612 41.6317 5.01561 41.9268 4.99971 42.2323C4.98382 42.5378 5.05317 42.8417 5.20001 43.11C5.33859 43.3821 5.5508 43.6098 5.81246 43.7671C6.07412 43.9245 6.37472 44.0052 6.68001 44H41.13C41.4353 44.0052 41.7359 43.9245 41.9976 43.7671C42.2592 43.6098 42.4714 43.3821 42.61 43.11C42.7569 42.8417 42.8262 42.5378 42.8103 42.2323C42.7944 41.9268 42.6939 41.6317 42.52 41.38L40 37.65C38.7843 35.852 38.1363 33.7304 38.14 31.56V19.23C38.14 15.456 36.6408 11.8365 33.9721 9.16789C31.3035 6.49924 27.684 5.00002 23.91 5.00002Z" fill="black"/>
<path d="M23.91 59C20.5956 58.9974 17.4177 57.6796 15.0741 55.3359C12.7305 52.9923 11.4127 49.8144 11.41 46.5C11.41 45.837 11.6734 45.2011 12.1422 44.7323C12.6111 44.2634 13.247 44 13.91 44C14.5731 44 15.2089 44.2634 15.6778 44.7323C16.1466 45.2011 16.41 45.837 16.41 46.5C16.41 48.4891 17.2002 50.3968 18.6067 51.8033C20.0132 53.2098 21.9209 54 23.91 54C25.8991 54 27.8068 53.2098 29.2133 51.8033C30.6198 50.3968 31.41 48.4891 31.41 46.5C31.41 45.837 31.6734 45.2011 32.1423 44.7323C32.6111 44.2634 33.247 44 33.91 44C34.5731 44 35.2089 44.2634 35.6778 44.7323C36.1466 45.2011 36.41 45.837 36.41 46.5C36.4047 49.8136 35.0861 52.99 32.743 55.333C30.3999 57.6761 27.2236 58.9947 23.91 59Z" fill="black"/>
</g>
<defs>
<clipPath id="clip0">
<rect width="47.81" height="59" fill="white"/>
</clipPath>
</defs>
</svg>
