<svg width="60" height="59" viewBox="0 0 60 59" fill="none" xmlns="http://www.w3.org/2000/svg">
<g clip-path="url(#clip0)">
<path d="M29.65 59C23.8154 59 18.1119 57.2699 13.2607 54.0284C8.40942 50.7868 4.62833 46.1796 2.39555 40.7892C0.16276 35.3987 -0.421438 29.4673 0.716826 23.7448C1.85509 18.0224 4.66469 12.766 8.79034 8.64035C12.916 4.5147 18.1724 1.7051 23.8948 0.566832C29.6173 -0.571432 35.5487 0.0127666 40.9392 2.24555C46.3296 4.47834 50.9368 8.25943 54.1783 13.1107C57.4198 17.9619 59.15 23.6654 59.15 29.5C59.142 37.3214 56.0315 44.8203 50.5009 50.3509C44.9703 55.8815 37.4714 58.9921 29.65 59ZM29.65 5C24.8043 5 20.0675 6.4369 16.0385 9.12899C12.0095 11.8211 8.86929 15.6475 7.01494 20.1243C5.1606 24.601 4.67542 29.5272 5.62075 34.2797C6.56609 39.0322 8.89949 43.3977 12.3259 46.8241C15.7523 50.2505 20.1177 52.5839 24.8703 53.5292C29.6228 54.4746 34.5489 53.9894 39.0257 52.135C43.5025 50.2807 47.3289 47.1405 50.021 43.1115C52.7131 39.0825 54.15 34.3456 54.15 29.5C54.1421 23.0046 51.5583 16.7776 46.9653 12.1847C42.3724 7.59173 36.1454 5.00794 29.65 5Z" fill="black"/>
<path d="M37.29 44C36.6269 44 35.9911 43.7366 35.5222 43.2678C35.0534 42.7989 34.79 42.163 34.79 41.5V17.5C34.79 16.837 35.0534 16.2011 35.5222 15.7322C35.9911 15.2634 36.6269 15 37.29 15C37.953 15 38.5889 15.2634 39.0578 15.7322C39.5266 16.2011 39.79 16.837 39.79 17.5V41.5C39.79 42.163 39.5266 42.7989 39.0578 43.2678C38.5889 43.7366 37.953 44 37.29 44Z" fill="black"/>
<path d="M22.01 44C21.347 44 20.7111 43.7366 20.2422 43.2678C19.7734 42.7989 19.51 42.163 19.51 41.5V17.5C19.51 16.837 19.7734 16.2011 20.2422 15.7322C20.7111 15.2634 21.347 15 22.01 15C22.673 15 23.3089 15.2634 23.7778 15.7322C24.2466 16.2011 24.51 16.837 24.51 17.5V41.5C24.5113 41.8287 24.4476 42.1544 24.3224 42.4583C24.1972 42.7622 24.0131 43.0383 23.7807 43.2707C23.5483 43.5031 23.2722 43.6872 22.9683 43.8124C22.6644 43.9376 22.3387 44.0013 22.01 44Z" fill="black"/>
</g>
<defs>
<clipPath id="clip0">
<rect width="59" height="59" fill="white" transform="translate(0.149994)"/>
</clipPath>
</defs>
</svg>
