<svg width="60" height="59" viewBox="0 0 60 59" fill="none" xmlns="http://www.w3.org/2000/svg">
<g clip-path="url(#clip0)">
<path d="M30.46 59C24.6254 59 18.9219 57.2699 14.0707 54.0284C9.21942 50.7869 5.43833 46.1796 3.20554 40.7892C0.972758 35.3988 0.38856 29.4673 1.52682 23.7448C2.66509 18.0224 5.47469 12.766 9.60034 8.64036C13.726 4.51471 18.9824 1.70511 24.7048 0.566848C30.4273 -0.571416 36.3587 0.0127819 41.7491 2.24557C47.1396 4.47835 51.7468 8.25944 54.9883 13.1107C58.2298 17.9619 59.96 23.6655 59.96 29.5C59.952 37.3215 56.8415 44.8203 51.3109 50.3509C45.7803 55.8815 38.2814 58.9921 30.46 59ZM30.46 5.00001C25.6143 5.00001 20.8775 6.43691 16.8485 9.12901C12.8195 11.8211 9.67929 15.6475 7.82494 20.1243C5.97059 24.6011 5.48541 29.5272 6.43075 34.2797C7.37609 39.0323 9.70949 43.3977 13.1359 46.8241C16.5623 50.2505 20.9277 52.5839 25.6803 53.5293C30.4328 54.4746 35.3589 53.9894 39.8357 52.1351C44.3125 50.2807 48.1389 47.1405 50.831 43.1115C53.5231 39.0825 54.96 34.3457 54.96 29.5C54.952 23.0046 52.3683 16.7776 47.7753 12.1847C43.1824 7.59174 36.9554 5.00795 30.46 5.00001Z" fill="black"/>
<path d="M23.56 44C22.7643 44.003 21.9828 43.7886 21.3 43.38C20.6214 42.9882 20.0585 42.4238 19.6686 41.7441C19.2787 41.0644 19.0756 40.2936 19.08 39.51V19.51C19.0787 18.7269 19.2827 17.9571 19.6717 17.2774C20.0607 16.5977 20.621 16.0319 21.2969 15.6363C21.9727 15.2407 22.7405 15.0291 23.5236 15.0228C24.3067 15.0164 25.0778 15.2154 25.76 15.6L43.56 25.6C44.2528 25.9911 44.8292 26.5592 45.2303 27.2462C45.6314 27.9332 45.8427 28.7145 45.8427 29.51C45.8427 30.3055 45.6314 31.0868 45.2303 31.7738C44.8292 32.4608 44.2528 33.0289 43.56 33.42L25.76 43.42C25.089 43.7999 24.3311 43.9997 23.56 44ZM24.08 20.37V38.63L40.31 29.5L24.08 20.37Z" fill="black"/>
</g>
<defs>
<clipPath id="clip0">
<rect width="59" height="59" fill="white" transform="translate(0.959991)"/>
</clipPath>
</defs>
</svg>
