<svg width="60" height="59" viewBox="0 0 60 59" fill="none" xmlns="http://www.w3.org/2000/svg">
<g clip-path="url(#clip0)">
<path d="M30.46 59C24.6255 59 18.9219 57.2699 14.0707 54.0284C9.21943 50.7869 5.43834 46.1796 3.20556 40.7892C0.972773 35.3988 0.388575 29.4673 1.52684 23.7448C2.6651 18.0224 5.47471 12.766 9.60036 8.64036C13.726 4.51471 18.9824 1.70511 24.7048 0.566848C30.4273 -0.571416 36.3587 0.0127819 41.7492 2.24557C47.1396 4.47835 51.7469 8.25944 54.9884 13.1107C58.2299 17.9619 59.96 23.6655 59.96 29.5C59.9521 37.3215 56.8415 44.8203 51.3109 50.3509C45.7803 55.8815 38.2815 58.9921 30.46 59ZM30.46 5.00001C25.6144 5.00001 20.8775 6.43691 16.8485 9.12901C12.8195 11.8211 9.6793 15.6475 7.82496 20.1243C5.97061 24.6011 5.48543 29.5272 6.43077 34.2797C7.3761 39.0323 9.7095 43.3977 13.1359 46.8241C16.5623 50.2505 20.9278 52.5839 25.6803 53.5293C30.4328 54.4746 35.359 53.9894 39.8357 52.1351C44.3125 50.2807 48.1389 47.1405 50.831 43.1115C53.5231 39.0825 54.96 34.3457 54.96 29.5C54.9521 23.0046 52.3683 16.7776 47.7753 12.1847C43.1824 7.59174 36.9554 5.00795 30.46 5.00001Z" fill="black"/>
<path d="M44.55 51.71C43.5505 48.7662 41.654 46.2093 39.1269 44.3985C36.5997 42.5877 33.5689 41.614 30.46 41.614C27.3511 41.614 24.3203 42.5877 21.7931 44.3985C19.266 46.2093 17.3695 48.7662 16.37 51.71L11.64 50.1C12.9774 46.1702 15.5114 42.7576 18.8866 40.341C22.2618 37.9243 26.3088 36.6249 30.46 36.6249C34.6112 36.6249 38.6582 37.9243 42.0334 40.341C45.4086 42.7576 47.9426 46.1702 49.28 50.1L44.55 51.71Z" fill="black"/>
<path d="M30.46 34.07C28.32 34.07 26.2281 33.4354 24.4487 32.2465C22.6694 31.0576 21.2826 29.3677 20.4636 27.3906C19.6447 25.4136 19.4304 23.238 19.8479 21.1391C20.2654 19.0403 21.2959 17.1123 22.8091 15.5991C24.3223 14.0859 26.2502 13.0554 28.3491 12.6379C30.448 12.2204 32.6235 12.4347 34.6006 13.2536C36.5777 14.0726 38.2676 15.4594 39.4565 17.2387C40.6454 19.0181 41.28 21.11 41.28 23.25C41.2774 26.1188 40.1365 28.8694 38.108 30.898C36.0794 32.9266 33.3288 34.0674 30.46 34.07ZM30.46 17.43C29.3089 17.43 28.1837 17.7714 27.2266 18.4109C26.2695 19.0504 25.5235 19.9593 25.083 21.0228C24.6425 22.0863 24.5273 23.2565 24.7518 24.3854C24.9764 25.5144 25.5307 26.5514 26.3446 27.3654C27.1586 28.1793 28.1956 28.7336 29.3246 28.9582C30.4535 29.1827 31.6238 29.0675 32.6872 28.627C33.7507 28.1865 34.6596 27.4405 35.2992 26.4834C35.9387 25.5263 36.28 24.4011 36.28 23.25C36.2774 21.7073 35.6633 20.2285 34.5724 19.1376C33.4816 18.0467 32.0028 17.4327 30.46 17.43Z" fill="black"/>
</g>
<defs>
<clipPath id="clip0">
<rect width="59" height="59" fill="white" transform="translate(0.959991)"/>
</clipPath>
</defs>
</svg>
