<svg width="59" height="46" viewBox="0 0 59 46" fill="none" xmlns="http://www.w3.org/2000/svg">
<g clip-path="url(#clip0)">
<path d="M28.17 45.21C25.0224 45.2021 21.907 44.577 19 43.37C18.6966 43.2439 18.4211 43.0593 18.1891 42.8268C17.9571 42.5942 17.7731 42.3182 17.6478 42.0146C17.5224 41.7109 17.4581 41.3856 17.4585 41.0571C17.4588 40.7285 17.5239 40.4033 17.65 40.1C17.7761 39.7966 17.9606 39.5211 18.1932 39.2891C18.4258 39.057 18.7018 38.8731 19.0054 38.7477C19.309 38.6224 19.6344 38.5581 19.9629 38.5584C20.2914 38.5588 20.6166 38.6239 20.92 38.75C24.2912 40.1499 27.9944 40.5491 31.5865 39.8997C35.1786 39.2504 38.5076 37.58 41.1754 35.0884C43.8431 32.5968 45.7367 29.3895 46.6295 25.85C47.5224 22.3106 47.3767 18.5888 46.21 15.13C45.9991 14.4948 46.0493 13.8019 46.3493 13.2036C46.6494 12.6054 47.1748 12.1508 47.81 11.94C48.4452 11.7291 49.1381 11.7793 49.7364 12.0793C50.3346 12.3794 50.7891 12.9048 51 13.54C52.22 17.1573 52.5596 21.0135 51.9904 24.7884C51.4212 28.5632 49.9598 32.1479 47.7274 35.2446C45.495 38.3414 42.5561 40.861 39.1547 42.5942C35.7533 44.3273 31.9875 45.2241 28.17 45.21Z" fill="black"/>
<path d="M56.5 25.33C56.1563 25.3302 55.8162 25.2592 55.5013 25.1215C55.1863 24.9838 54.9033 24.7824 54.67 24.53L48.46 17.87L41.79 24.08C41.3046 24.5322 40.6595 24.773 39.9966 24.7496C39.3337 24.7262 38.7072 24.4403 38.255 23.955C37.8028 23.4696 37.5619 22.8245 37.5854 22.1616C37.6088 21.4987 37.8946 20.8722 38.38 20.42L46.88 12.5C47.3667 12.0521 48.0089 11.8117 48.67 11.83C49.3329 11.8562 49.9585 12.1438 50.41 12.63L58.33 21.12C58.6593 21.4777 58.8776 21.9233 58.9585 22.4027C59.0393 22.8822 58.9792 23.3747 58.7853 23.8206C58.5915 24.2665 58.2724 24.6465 57.8667 24.9145C57.461 25.1824 56.9862 25.3268 56.5 25.33Z" fill="black"/>
<path d="M10.42 33.37C9.89674 33.3703 9.38658 33.2064 8.96139 32.9014C8.53621 32.5964 8.21744 32.1657 8.05 31.67C6.57713 27.3007 6.39405 22.5996 7.52265 18.129C8.65126 13.6585 11.0438 9.60759 14.414 6.46096C17.7843 3.31433 21.9896 1.20514 26.5271 0.385651C31.0645 -0.433839 35.742 0.0710682 40 1.83998C40.3188 1.95455 40.6109 2.13271 40.8588 2.36364C41.1066 2.59457 41.3049 2.87346 41.4417 3.18338C41.5784 3.49329 41.6508 3.82776 41.6543 4.16649C41.6579 4.50522 41.5925 4.84113 41.4623 5.15384C41.3321 5.46655 41.1396 5.74953 40.8967 5.98559C40.6538 6.22166 40.3654 6.4059 40.0491 6.52711C39.7327 6.64833 39.3951 6.704 39.0566 6.69074C38.7181 6.67748 38.3859 6.59557 38.08 6.44998C34.7078 5.04876 31.0032 4.64901 27.4097 5.29858C23.8162 5.94816 20.486 7.61953 17.8178 10.1126C15.1495 12.6058 13.2562 15.815 12.3646 19.3562C11.4729 22.8974 11.6206 26.6205 12.79 30.08C12.8951 30.3905 12.9378 30.7188 12.9157 31.0459C12.8937 31.373 12.8072 31.6925 12.6613 31.9861C12.5155 32.2797 12.313 32.5416 12.0657 32.7568C11.8184 32.9719 11.531 33.1362 11.22 33.24C10.962 33.326 10.6919 33.3699 10.42 33.37Z" fill="black"/>
<path d="M10.42 33.37C10.0769 33.372 9.73713 33.3029 9.42213 33.1669C9.10714 33.0309 8.82379 32.8311 8.58999 32.58L0.669995 24.09C0.446091 23.8497 0.271714 23.5676 0.15682 23.2599C0.0419258 22.9522 -0.0112352 22.6248 0.000372142 22.2966C0.0119795 21.9683 0.0881278 21.6456 0.224469 21.3468C0.360811 21.0479 0.554676 20.7789 0.794995 20.555C1.03531 20.3311 1.31738 20.1567 1.62509 20.0418C1.9328 19.9269 2.26013 19.8738 2.58838 19.8854C2.91664 19.897 3.23939 19.9731 3.53822 20.1095C3.83705 20.2458 4.10609 20.4397 4.32999 20.68L10.54 27.34L17.21 21.13C17.4462 20.8887 17.7289 20.6978 18.0409 20.5688C18.353 20.4398 18.6879 20.3753 19.0256 20.3793C19.3632 20.3833 19.6965 20.4556 20.0055 20.5919C20.3144 20.7282 20.5925 20.9257 20.823 21.1724C21.0535 21.4192 21.2317 21.71 21.3467 22.0275C21.4617 22.345 21.5112 22.6825 21.4923 23.0196C21.4733 23.3567 21.3862 23.6865 21.2363 23.9891C21.0864 24.2916 20.8767 24.5607 20.62 24.78L12.12 32.7C11.6598 33.1324 11.0515 33.3722 10.42 33.37Z" fill="black"/>
</g>
<defs>
<clipPath id="clip0">
<rect width="59" height="45.21" fill="white"/>
</clipPath>
</defs>
</svg>
