<svg width="59" height="59" viewBox="0 0 59 59" fill="none" xmlns="http://www.w3.org/2000/svg">
<g clip-path="url(#clip0)">
<path d="M50 46.33C49.4984 46.3284 49.0089 46.1754 48.5957 45.891C48.1826 45.6066 47.8649 45.204 47.6844 44.736C47.5039 44.268 47.469 43.7564 47.5842 43.2682C47.6994 42.78 47.9593 42.3379 48.33 42C50.8852 39.7984 52.7043 36.8666 53.5424 33.5996C54.3804 30.3325 54.1971 26.8871 53.0171 23.7274C51.8371 20.5677 49.7171 17.8455 46.9427 15.9275C44.1684 14.0095 40.8728 12.9878 37.5 13H21.5C20.8369 13 20.2011 12.7366 19.7322 12.2678C19.2634 11.7989 19 11.163 19 10.5C19 9.83694 19.2634 9.20106 19.7322 8.73222C20.2011 8.26338 20.8369 7.99998 21.5 7.99998H37.5C41.8792 8.00049 46.1538 9.33823 49.752 11.8343C53.3502 14.3303 56.1004 17.8656 57.6347 21.9672C59.169 26.0688 59.4143 30.5412 58.3376 34.7859C57.2609 39.0307 54.9137 42.8455 51.61 45.72C51.1629 46.1083 50.5921 46.3246 50 46.33Z" fill="black"/>
<path d="M37.5 51H21.5C17.1208 50.9995 12.8462 49.6617 9.24796 47.1657C5.64974 44.6697 2.89953 41.1344 1.36523 37.0328C-0.169069 32.9311 -0.414289 28.4588 0.662373 24.214C1.73904 19.9692 4.08624 16.1545 7.38998 13.28C7.63544 13.0514 7.9244 12.8745 8.23964 12.7599C8.55489 12.6452 8.88997 12.5952 9.22495 12.6128C9.55992 12.6304 9.88793 12.7152 10.1894 12.8622C10.491 13.0092 10.7598 13.2154 10.98 13.4684C11.2001 13.7215 11.3671 14.0163 11.471 14.3352C11.5749 14.6542 11.6135 14.9908 11.5846 15.325C11.5557 15.6591 11.4598 15.9841 11.3026 16.2804C11.1455 16.5768 10.9304 16.8385 10.67 17.05C8.13367 19.2559 6.33159 22.1838 5.50488 25.4419C4.67817 28.7 4.86628 32.1329 6.04404 35.2812C7.22179 38.4295 9.333 41.143 12.0951 43.0586C14.8573 44.9741 18.1386 46.0004 21.5 46H37.5C38.163 46 38.7989 46.2634 39.2678 46.7322C39.7366 47.2011 40 47.8369 40 48.5C40 49.163 39.7366 49.7989 39.2678 50.2678C38.7989 50.7366 38.163 51 37.5 51Z" fill="black"/>
<path d="M29.5 59C29.1714 59.0011 28.8458 58.9372 28.542 58.8119C28.2382 58.6866 27.9622 58.5024 27.73 58.27C27.2646 57.7984 27.0037 57.1625 27.0037 56.5C27.0037 55.8375 27.2646 55.2016 27.73 54.73L34 48.5L27.77 42.27C27.3006 41.8006 27.0368 41.1639 27.0368 40.5C27.0368 39.8361 27.3006 39.1994 27.77 38.73C28.2394 38.2606 28.8761 37.9968 29.54 37.9968C30.2039 37.9968 30.8405 38.2606 31.31 38.73L39.31 46.73C39.7753 47.2016 40.0362 47.8375 40.0362 48.5C40.0362 49.1625 39.7753 49.7984 39.31 50.27L31.31 58.27C31.073 58.5073 30.7905 58.6943 30.4795 58.8197C30.1685 58.9452 29.8353 59.0065 29.5 59Z" fill="black"/>
<path d="M29.5 21C29.1714 21.0011 28.8458 20.9372 28.542 20.8119C28.2382 20.6866 27.9622 20.5024 27.73 20.27L19.73 12.27C19.2646 11.7984 19.0037 11.1625 19.0037 10.5C19.0037 9.83745 19.2646 9.20157 19.73 8.72998L27.73 0.729984C28.1994 0.260551 28.8361 -0.00317383 29.5 -0.00317383C30.1639 -0.00317383 30.8006 0.260551 31.27 0.729984C31.7394 1.19942 32.0031 1.83611 32.0031 2.49998C32.0031 3.16386 31.7394 3.80055 31.27 4.26998L25 10.5L31.23 16.73C31.6953 17.2016 31.9562 17.8375 31.9562 18.5C31.9562 19.1625 31.6953 19.7984 31.23 20.27C30.7707 20.7298 30.1498 20.9917 29.5 21Z" fill="black"/>
</g>
<defs>
<clipPath id="clip0">
<rect width="59" height="59" fill="white"/>
</clipPath>
</defs>
</svg>
