<svg width="60" height="59" viewBox="0 0 60 59" fill="none" xmlns="http://www.w3.org/2000/svg">
<g clip-path="url(#clip0)">
<path d="M24.31 47C19.6621 47 15.1187 45.6218 11.2541 43.0395C7.38955 40.4573 4.3775 36.7871 2.59884 32.4931C0.82018 28.199 0.354801 23.4739 1.26155 18.9154C2.16831 14.3568 4.40646 10.1695 7.693 6.883C10.9795 3.59647 15.1668 1.35831 19.7254 0.451556C24.2839 -0.455196 29.009 0.0101823 33.3031 1.78884C37.5971 3.5675 41.2673 6.57955 43.8495 10.4441C46.4318 14.3087 47.81 18.8521 47.81 23.5C47.8047 29.731 45.3271 35.7052 40.9212 40.1112C36.5152 44.5171 30.541 46.9947 24.31 47ZM24.31 5.00001C20.6511 5.00001 17.0743 6.08502 14.032 8.11782C10.9896 10.1506 8.61846 13.0399 7.21824 16.4204C5.81802 19.8008 5.45165 23.5205 6.16548 27.1092C6.87931 30.6978 8.64126 33.9942 11.2285 36.5815C13.8158 39.1688 17.1122 40.9307 20.7008 41.6445C24.2895 42.3584 28.0092 41.992 31.3897 40.5918C34.7701 39.1916 37.6594 36.8204 39.6922 33.7781C41.725 30.7358 42.81 27.159 42.81 23.5C42.8047 18.5951 40.8539 13.8927 37.3856 10.4244C33.9174 6.95611 29.2149 5.0053 24.31 5.00001Z" fill="black"/>
<path d="M57.31 59C56.9814 59.0011 56.6558 58.9372 56.352 58.8119C56.0483 58.6866 55.7723 58.5025 55.54 58.27L37.39 40.12C36.9206 39.6506 36.6569 39.0139 36.6569 38.35C36.6569 37.6861 36.9206 37.0494 37.39 36.58C37.8594 36.1106 38.4961 35.8469 39.16 35.8469C39.8239 35.8469 40.4606 36.1106 40.93 36.58L59.08 54.73C59.5454 55.2016 59.8063 55.8375 59.8063 56.5C59.8063 57.1625 59.5454 57.7984 59.08 58.27C58.8477 58.5025 58.5718 58.6866 58.268 58.8119C57.9642 58.9372 57.6386 59.0011 57.31 59Z" fill="black"/>
</g>
<defs>
<clipPath id="clip0">
<rect width="59" height="59" fill="white" transform="translate(0.809998)"/>
</clipPath>
</defs>
</svg>
