<svg width="58" height="59" viewBox="0 0 58 59" fill="none" xmlns="http://www.w3.org/2000/svg">
<g clip-path="url(#clip0)">
<path d="M34.92 59H22.92C22.2569 59 21.6211 58.7366 21.1522 58.2678C20.6834 57.7989 20.42 57.163 20.42 56.5V51.2C20.4328 50.4859 20.2541 49.7814 19.9027 49.1597C19.5512 48.538 19.0396 48.0218 18.4212 47.6646C17.8027 47.3074 17.0999 47.1223 16.3857 47.1285C15.6716 47.1348 14.9721 47.3321 14.36 47.7L9.78999 50.35C9.21685 50.6803 8.53614 50.7701 7.89699 50.5995C7.25783 50.4289 6.71233 50.012 6.37999 49.44L0.379989 39.06C0.211971 38.7785 0.103142 38.4657 0.0601558 38.1408C0.01717 37.8158 0.0409321 37.4855 0.129989 37.17C0.299969 36.5296 0.717187 35.9829 1.28999 35.65L5.88999 33C6.51519 32.6541 7.03633 32.147 7.39922 31.5315C7.7621 30.916 7.9535 30.2145 7.9535 29.5C7.9535 28.7855 7.7621 28.084 7.39922 27.4685C7.03633 26.853 6.51519 26.3459 5.88999 26L1.29999 23.35C0.727187 23.0171 0.309969 22.4704 0.139989 21.83C0.0509321 21.5145 0.02717 21.1842 0.0701558 20.8592C0.113142 20.5343 0.221971 20.2215 0.389989 19.94L6.38999 9.56C6.72233 8.98802 7.26783 8.57108 7.90699 8.40052C8.54614 8.22995 9.22685 8.31966 9.79999 8.65L14.39 11.3C15.0021 11.6679 15.7016 11.8652 16.4157 11.8715C17.1299 11.8777 17.8327 11.6926 18.4512 11.3354C19.0696 10.9782 19.5812 10.462 19.9327 9.84026C20.2841 9.21855 20.4628 8.51408 20.45 7.8V2.5C20.45 1.83869 20.712 1.20431 21.1787 0.735759C21.6454 0.267205 22.2787 0.00264525 22.94 0H34.94C35.603 0 36.2389 0.263392 36.7078 0.732233C37.1766 1.20107 37.44 1.83696 37.44 2.5V7.8C37.4336 8.50822 37.6155 9.20543 37.9669 9.82036C38.3182 10.4353 38.8266 10.9459 39.44 11.3C40.0512 11.6416 40.7398 11.8209 41.44 11.8209C42.1402 11.8209 42.8287 11.6416 43.44 11.3L48.05 8.65C48.6231 8.31966 49.3038 8.22995 49.943 8.40052C50.5821 8.57108 51.1276 8.98802 51.46 9.56L57.46 19.94C57.7903 20.5131 57.88 21.1938 57.7095 21.833C57.5389 22.4722 57.122 23.0177 56.55 23.35L51.97 26C51.3448 26.3459 50.8236 26.853 50.4608 27.4685C50.0979 28.084 49.9065 28.7855 49.9065 29.5C49.9065 30.2145 50.0979 30.916 50.4608 31.5315C50.8236 32.147 51.3448 32.6541 51.97 33L56.56 35.65C57.132 35.9823 57.5489 36.5278 57.7195 37.167C57.89 37.8062 57.8003 38.4869 57.47 39.06L51.47 49.44C51.1376 50.012 50.5921 50.4289 49.953 50.5995C49.3138 50.7701 48.6331 50.6803 48.06 50.35L43.48 47.7C42.8687 47.3584 42.1802 47.1791 41.48 47.1791C40.7798 47.1791 40.0912 47.3584 39.48 47.7C38.8666 48.0541 38.3582 48.5647 38.0069 49.1796C37.6555 49.7946 37.4736 50.4918 37.48 51.2V56.5C37.4801 56.8334 37.4135 57.1635 37.2841 57.4708C37.1547 57.7781 36.9652 58.0564 36.7267 58.2893C36.4881 58.5223 36.2054 58.7052 35.8951 58.8272C35.5849 58.9492 35.2533 59.008 34.92 59ZM25.44 54H32.44V51.2C32.4275 49.6083 32.8373 48.0417 33.6277 46.6601C34.4181 45.2784 35.5608 44.1311 36.9392 43.3352C38.3177 42.5392 39.8826 42.1231 41.4743 42.1292C43.0661 42.1353 44.6277 42.5635 46 43.37L48.42 44.77L51.91 38.77L49.49 37.37C48.1049 36.585 46.9528 35.4467 46.1513 34.0712C45.3498 32.6956 44.9275 31.132 44.9275 29.54C44.9275 27.948 45.3498 26.3844 46.1513 25.0088C46.9528 23.6333 48.1049 22.495 49.49 21.71L51.91 20.31L48.42 14.31L46 15.71C44.6214 16.5253 43.0501 16.958 41.4484 16.9633C39.8468 16.9687 38.2727 16.5465 36.8887 15.7403C35.5046 14.9341 34.3608 13.7732 33.5753 12.3774C32.7897 10.9816 32.3909 9.40142 32.42 7.8V5H25.42V7.8C25.4325 9.39171 25.0227 10.9583 24.2323 12.3399C23.4419 13.7216 22.2992 14.8689 20.9208 15.6648C19.5423 16.4608 17.9774 16.8769 16.3857 16.8708C14.7939 16.8647 13.2323 16.4365 11.86 15.63L9.43999 14.23L5.94999 20.23L8.36999 21.63C9.75507 22.415 10.9071 23.5533 11.7087 24.9288C12.5102 26.3044 12.9325 27.868 12.9325 29.46C12.9325 31.052 12.5102 32.6156 11.7087 33.9912C10.9071 35.3667 9.75507 36.505 8.36999 37.29L5.94999 38.69L9.43999 44.69L11.86 43.29C13.2386 42.4747 14.8099 42.042 16.4115 42.0367C18.0132 42.0313 19.5873 42.4535 20.9713 43.2597C22.3553 44.0659 23.4992 45.2268 24.2847 46.6226C25.0702 48.0184 25.4691 49.5986 25.44 51.2V54Z" fill="black"/>
<path d="M28.93 39C27.0511 39 25.2143 38.4428 23.6521 37.399C22.0898 36.3551 20.8722 34.8714 20.1531 33.1355C19.4341 31.3996 19.246 29.4895 19.6125 27.6466C19.9791 25.8038 20.8839 24.1111 22.2125 22.7825C23.5411 21.4539 25.2338 20.5491 27.0766 20.1825C28.9194 19.816 30.8296 20.0041 32.5655 20.7231C34.3014 21.4422 35.7851 22.6598 36.8289 24.2221C37.8728 25.7843 38.43 27.6211 38.43 29.5C38.4273 32.0187 37.4256 34.4336 35.6446 36.2146C33.8636 37.9956 31.4487 38.9974 28.93 39ZM28.93 25C28.04 25 27.1699 25.2639 26.4299 25.7584C25.6899 26.2529 25.1131 26.9557 24.7725 27.7779C24.4319 28.6002 24.3428 29.505 24.5165 30.3779C24.6901 31.2508 25.1187 32.0526 25.748 32.682C26.3773 33.3113 27.1792 33.7399 28.0521 33.9135C28.925 34.0872 29.8298 33.9981 30.6521 33.6575C31.4743 33.3169 32.1771 32.7401 32.6716 32.0001C33.1661 31.26 33.43 30.39 33.43 29.5C33.4273 28.3073 32.9524 27.1643 32.1091 26.3209C31.2657 25.4776 30.1227 25.0026 28.93 25Z" fill="black"/>
</g>
<defs>
<clipPath id="clip0">
<rect width="57.76" height="59" fill="white" transform="translate(0.0499878)"/>
</clipPath>
</defs>
</svg>
