<svg width="59" height="59" viewBox="0 0 59 59" fill="none" xmlns="http://www.w3.org/2000/svg">
<g clip-path="url(#clip0)">
<path d="M46.5 25C44.0277 25 41.611 24.2669 39.5554 22.8934C37.4998 21.5199 35.8976 19.5676 34.9515 17.2835C34.0054 14.9995 33.7579 12.4861 34.2402 10.0614C34.7225 7.63661 35.913 5.40933 37.6612 3.66117C39.4093 1.91301 41.6366 0.722505 44.0614 0.24019C46.4861 -0.242126 48.9995 0.00541604 51.2835 0.951511C53.5676 1.89761 55.5199 3.49976 56.8934 5.55538C58.2669 7.61099 59 10.0277 59 12.5C58.9947 15.8136 57.6761 18.9899 55.333 21.333C52.9899 23.6761 49.8136 24.9947 46.5 25ZM46.5 5.00001C45.0166 5.00001 43.5666 5.43987 42.3332 6.26398C41.0999 7.08809 40.1386 8.25943 39.5709 9.62988C39.0033 11.0003 38.8547 12.5083 39.1441 13.9632C39.4335 15.418 40.1478 16.7544 41.1967 17.8033C42.2456 18.8522 43.582 19.5665 45.0368 19.8559C46.4917 20.1453 47.9997 19.9968 49.3701 19.4291C50.7406 18.8614 51.9119 17.9002 52.736 16.6668C53.5601 15.4334 54 13.9834 54 12.5C54 10.5109 53.2098 8.60323 51.8033 7.1967C50.3968 5.79018 48.4891 5.00001 46.5 5.00001Z" fill="black"/>
<path d="M11.5 41C9.22552 41 7.00211 40.3255 5.11095 39.0619C3.21978 37.7983 1.7458 36.0022 0.875391 33.9009C0.00498283 31.7995 -0.222756 29.4872 0.220974 27.2565C0.664704 25.0257 1.75997 22.9766 3.36828 21.3683C4.97658 19.76 7.02568 18.6647 9.25647 18.221C11.4872 17.7772 13.7995 18.005 15.9009 18.8754C18.0022 19.7458 19.7983 21.2198 21.0619 23.1109C22.3255 25.0021 23 27.2255 23 29.5C22.9974 32.5492 21.7849 35.4727 19.6288 37.6288C17.4727 39.7849 14.5492 40.9974 11.5 41ZM11.5 23C10.2144 23 8.95772 23.3812 7.8888 24.0955C6.81988 24.8097 5.98676 25.8248 5.49479 27.0126C5.00282 28.2003 4.8741 29.5072 5.1249 30.7681C5.3757 32.029 5.99477 33.1872 6.90381 34.0962C7.81285 35.0052 8.97104 35.6243 10.2319 35.8751C11.4928 36.1259 12.7997 35.9972 13.9874 35.5052C15.1752 35.0133 16.1903 34.1801 16.9046 33.1112C17.6188 32.0423 18 30.7856 18 29.5C17.9974 27.7769 17.3117 26.1251 16.0933 24.9067C14.8749 23.6883 13.2231 23.0027 11.5 23Z" fill="black"/>
<path d="M47.5 59C45.2255 59 43.0021 58.3255 41.111 57.0619C39.2198 55.7983 37.7458 54.0022 36.8754 51.9009C36.005 49.7995 35.7772 47.4873 36.221 45.2565C36.6647 43.0257 37.76 40.9766 39.3683 39.3683C40.9766 37.76 43.0257 36.6647 45.2565 36.221C47.4873 35.7772 49.7995 36.005 51.9009 36.8754C54.0022 37.7458 55.7983 39.2198 57.0619 41.111C58.3255 43.0021 59 45.2255 59 47.5C58.9974 50.5492 57.7849 53.4727 55.6288 55.6288C53.4727 57.7849 50.5492 58.9974 47.5 59ZM47.5 41C46.2144 41 44.9577 41.3812 43.8888 42.0955C42.8199 42.8097 41.9868 43.8248 41.4948 45.0126C41.0028 46.2003 40.8741 47.5072 41.1249 48.7681C41.3757 50.029 41.9948 51.1872 42.9038 52.0962C43.8129 53.0052 44.971 53.6243 46.2319 53.8751C47.4928 54.1259 48.7997 53.9972 49.9874 53.5052C51.1752 53.0133 52.1903 52.1801 52.9046 51.1112C53.6188 50.0423 54 48.7856 54 47.5C53.9974 45.7769 53.3117 44.1251 52.0933 42.9067C50.8749 41.6883 49.2231 41.0027 47.5 41Z" fill="black"/>
<path d="M39.45 46C39.0641 45.9972 38.6841 45.9048 38.34 45.73L18.43 35.73C18.1219 35.5925 17.8449 35.3941 17.6155 35.1467C17.3862 34.8993 17.2092 34.6081 17.0954 34.2905C16.9816 33.9729 16.9332 33.6356 16.9532 33.2989C16.9732 32.9621 17.0612 32.6329 17.2118 32.331C17.3624 32.0291 17.5725 31.7609 17.8295 31.5423C18.0865 31.3238 18.3851 31.1596 18.7073 31.0595C19.0295 30.9595 19.3686 30.9256 19.7042 30.9601C20.0397 30.9946 20.3649 31.0966 20.66 31.26L40.57 41.26C41.0761 41.5108 41.4823 41.9255 41.7225 42.4367C41.9627 42.9478 42.0228 43.5253 41.8929 44.0749C41.763 44.6246 41.4509 45.114 41.0073 45.4636C40.5637 45.8132 40.0148 46.0022 39.45 46Z" fill="black"/>
<path d="M19.55 28C18.9852 28.0022 18.4363 27.8132 17.9927 27.4636C17.5491 27.114 17.237 26.6246 17.1071 26.0749C16.9772 25.5253 17.0373 24.9478 17.2775 24.4367C17.5177 23.9255 17.924 23.5108 18.43 23.26L36.25 14.35C36.5451 14.1866 36.8703 14.0846 37.2059 14.0501C37.5414 14.0156 37.8805 14.0495 38.2027 14.1495C38.5249 14.2496 38.8235 14.4138 39.0805 14.6323C39.3375 14.8509 39.5476 15.1191 39.6982 15.421C39.8488 15.7229 39.9368 16.0521 39.9568 16.3889C39.9768 16.7256 39.9284 17.0629 39.8146 17.3805C39.7008 17.6981 39.5238 17.9893 39.2945 18.2367C39.0651 18.4841 38.7881 18.6825 38.48 18.82L20.67 27.71C20.3245 27.8929 19.9409 27.9922 19.55 28Z" fill="black"/>
</g>
<defs>
<clipPath id="clip0">
<rect width="59" height="59" fill="white"/>
</clipPath>
</defs>
</svg>
