<svg width="60" height="60" viewBox="0 0 60 60" fill="none" xmlns="http://www.w3.org/2000/svg">
<g clip-path="url(#clip0)">
<path d="M56.68 59.15C56.3508 59.1493 56.0249 59.0836 55.7212 58.9566C55.4174 58.8296 55.1418 58.6438 54.91 58.41L0.909989 4.41002C0.671562 4.17906 0.481518 3.90293 0.350945 3.59774C0.220372 3.29256 0.151885 2.96442 0.14948 2.63248C0.147074 2.30054 0.210799 1.97144 0.336935 1.66439C0.463072 1.35734 0.649094 1.07849 0.884149 0.844097C1.1192 0.609706 1.39858 0.424473 1.70599 0.299206C2.0134 0.173939 2.34267 0.111145 2.6746 0.11449C3.00653 0.117834 3.33448 0.187249 3.63929 0.318685C3.94411 0.450121 4.2197 0.640945 4.44999 0.880025L58.45 54.88C58.7957 55.2315 59.0302 55.677 59.1244 56.1609C59.2185 56.6449 59.168 57.1458 58.9792 57.6012C58.7904 58.0567 58.4717 58.4464 58.0628 58.7218C57.6539 58.9973 57.173 59.1462 56.68 59.15Z" fill="black"/>
<path d="M36.53 24.85C35.8669 24.85 35.2311 24.5866 34.7622 24.1178C34.2934 23.649 34.03 23.0131 34.03 22.35V8.23002L27.93 13.88C27.6928 14.1197 27.4097 14.309 27.0975 14.4364C26.7853 14.5638 26.4506 14.6267 26.1135 14.6214C25.7763 14.6161 25.4438 14.5427 25.1357 14.4055C24.8277 14.2683 24.5507 14.0703 24.3212 13.8232C24.0917 13.5762 23.9145 13.2853 23.8004 12.968C23.6863 12.6508 23.6375 12.3137 23.657 11.9771C23.6765 11.6405 23.7639 11.3113 23.9139 11.0093C24.0639 10.7074 24.2735 10.4389 24.53 10.22L34.83 0.670025C35.1865 0.339418 35.6316 0.119929 36.1109 0.0384287C36.5902 -0.0430711 37.0829 0.0169556 37.5286 0.211159C37.9743 0.405363 38.3537 0.725317 38.6204 1.13185C38.8871 1.53838 39.0294 2.01384 39.03 2.50002V22.35C39.03 23.0131 38.7666 23.649 38.2978 24.1178C37.8289 24.5866 37.193 24.85 36.53 24.85Z" fill="black"/>
<path d="M36.53 59.29C35.8987 59.2912 35.2907 59.0516 34.83 58.62L14.04 39.36H6.70999C4.97894 39.3574 3.31954 38.6686 2.0955 37.4445C0.871464 36.2205 0.182634 34.5611 0.179989 32.83V26.46C0.182634 24.729 0.871464 23.0696 2.0955 21.8455C3.31954 20.6215 4.97894 19.9327 6.70999 19.93H14.04L17.18 17C17.6667 16.5492 18.3125 16.3101 18.9754 16.3354C19.6384 16.3607 20.2641 16.6484 20.715 17.135C21.1659 17.6217 21.4049 18.2675 21.3796 18.9305C21.3543 19.5934 21.0667 20.2192 20.58 20.67L16.71 24.25C16.2451 24.6737 15.639 24.909 15.01 24.91H6.70999C6.50775 24.9113 6.30775 24.9525 6.12141 25.0311C5.93507 25.1097 5.76604 25.2242 5.62396 25.3681C5.48189 25.5121 5.36956 25.6826 5.29338 25.8699C5.2172 26.0573 5.17867 26.2578 5.17999 26.46V32.83C5.18261 33.235 5.34465 33.6226 5.63101 33.909C5.91738 34.1954 6.30502 34.3574 6.70999 34.36H15.02C15.649 34.361 16.2551 34.5963 16.72 35.02L34.03 51.02V36.49C34.03 35.827 34.2934 35.1911 34.7622 34.7223C35.2311 34.2534 35.8669 33.99 36.53 33.99C37.193 33.99 37.8289 34.2534 38.2978 34.7223C38.7666 35.1911 39.03 35.827 39.03 36.49V56.79C39.03 57.4531 38.7666 58.089 38.2978 58.5578C37.8289 59.0266 37.193 59.29 36.53 59.29Z" fill="black"/>
<path d="M15.02 39.36C14.3569 39.36 13.7211 39.0966 13.2522 38.6278C12.7834 38.159 12.52 37.5231 12.52 36.86V22.43C12.52 21.767 12.7834 21.1311 13.2522 20.6623C13.7211 20.1934 14.3569 19.93 15.02 19.93C15.683 19.93 16.3189 20.1934 16.7878 20.6623C17.2566 21.1311 17.52 21.767 17.52 22.43V36.86C17.52 37.5231 17.2566 38.159 16.7878 38.6278C16.3189 39.0966 15.683 39.36 15.02 39.36Z" fill="black"/>
<path d="M54 42.32C53.5625 42.3219 53.1322 42.2085 52.7525 41.9912C52.3728 41.7739 52.057 41.4603 51.837 41.0822C51.617 40.704 51.5005 40.2745 51.4993 39.837C51.498 39.3995 51.6121 38.9694 51.83 38.59C53.7741 35.1311 54.5333 31.1311 53.9916 27.2004C53.45 23.2697 51.6372 19.6242 48.83 16.82C48.3739 16.3492 48.121 15.718 48.1257 15.0625C48.1305 14.407 48.3925 13.7795 48.8554 13.3153C49.3183 12.8511 49.945 12.5873 50.6005 12.5807C51.256 12.5741 51.8878 12.8253 52.36 13.28C55.9393 16.8603 58.2498 21.5126 58.9395 26.5279C59.6291 31.5433 58.6601 36.6466 56.18 41.06C55.9606 41.4441 55.6432 41.7632 55.2602 41.9845C54.8772 42.2059 54.4423 42.3217 54 42.32Z" fill="black"/>
<path d="M46.71 34.73C46.3878 34.7335 46.0681 34.6723 45.77 34.55C45.1583 34.2992 44.6703 33.8172 44.4119 33.2087C44.1535 32.6002 44.1457 31.9143 44.39 31.3C44.7129 30.4983 44.7902 29.6187 44.6121 28.773C44.4341 27.9272 44.0087 27.1535 43.39 26.55C43.1569 26.315 42.9724 26.0363 42.847 25.7299C42.7216 25.4235 42.6578 25.0955 42.6592 24.7644C42.6605 24.4334 42.7271 24.1059 42.8551 23.8005C42.9831 23.4952 43.1699 23.2181 43.405 22.985C43.6401 22.7519 43.9187 22.5674 44.2251 22.442C44.5315 22.3166 44.8596 22.2528 45.1906 22.2542C45.5216 22.2556 45.8492 22.3222 46.1545 22.4501C46.4598 22.5781 46.7369 22.765 46.97 23C48.275 24.3029 49.1666 25.9619 49.5331 27.7692C49.8995 29.5765 49.7245 31.4517 49.03 33.16C48.8454 33.6243 48.5255 34.0222 48.1117 34.3022C47.698 34.5822 47.2096 34.7313 46.71 34.73Z" fill="black"/>
</g>
<defs>
<clipPath id="clip0">
<rect width="59" height="59.29" fill="white" transform="translate(0.179993)"/>
</clipPath>
</defs>
</svg>
