<svg width="60" height="60" viewBox="0 0 60 60" fill="none" xmlns="http://www.w3.org/2000/svg">
<g clip-path="url(#clip0)">
<path d="M36.53 59.29C35.8987 59.2912 35.2907 59.0516 34.83 58.62L14.04 39.36H6.70999C4.97894 39.3574 3.31955 38.6685 2.09551 37.4445C0.871467 36.2205 0.182638 34.5611 0.179993 32.83V26.46C0.182638 24.729 0.871467 23.0696 2.09551 21.8455C3.31955 20.6215 4.97894 19.9327 6.70999 19.93H14.04L34.83 0.670025C35.1865 0.339418 35.6316 0.119929 36.1109 0.0384287C36.5902 -0.0430711 37.0829 0.0169556 37.5286 0.211159C37.9743 0.405363 38.3537 0.725317 38.6204 1.13185C38.8871 1.53838 39.0294 2.01384 39.03 2.50002V56.79C39.03 57.4531 38.7666 58.0889 38.2978 58.5578C37.8289 59.0266 37.193 59.29 36.53 59.29ZM6.70999 24.93C6.30502 24.9326 5.91738 25.0947 5.63102 25.381C5.34465 25.6674 5.18261 26.0551 5.17999 26.46V32.83C5.18261 33.235 5.34465 33.6226 5.63102 33.909C5.91738 34.1954 6.30502 34.3574 6.70999 34.36H15.02C15.649 34.361 16.2551 34.5963 16.72 35.02L34.03 51.02V8.23002L16.72 24.23C16.2551 24.6537 15.649 24.889 15.02 24.89L6.70999 24.93Z" fill="black"/>
<path d="M15.02 39.36C14.357 39.36 13.7211 39.0966 13.2522 38.6278C12.7834 38.159 12.52 37.5231 12.52 36.86V22.43C12.52 21.767 12.7834 21.1311 13.2522 20.6623C13.7211 20.1934 14.357 19.93 15.02 19.93C15.683 19.93 16.3189 20.1934 16.7878 20.6623C17.2566 21.1311 17.52 21.767 17.52 22.43V36.86C17.52 37.5231 17.2566 38.159 16.7878 38.6278C16.3189 39.0966 15.683 39.36 15.02 39.36Z" fill="black"/>
<path d="M50.63 46.74C50.302 46.7408 49.9773 46.6756 49.6749 46.5485C49.3726 46.4214 49.0989 46.2349 48.87 46C48.6372 45.7678 48.4525 45.4919 48.3264 45.1882C48.2004 44.8845 48.1355 44.5589 48.1355 44.23C48.1355 43.9012 48.2004 43.5756 48.3264 43.2719C48.4525 42.9681 48.6372 42.6923 48.87 42.46C52.2707 39.0583 54.1812 34.4451 54.1812 29.635C54.1812 24.8249 52.2707 20.2118 48.87 16.81C48.4139 16.3392 48.161 15.708 48.1657 15.0525C48.1705 14.397 48.4325 13.7695 48.8954 13.3053C49.3583 12.8411 49.985 12.5773 50.6405 12.5707C51.296 12.5641 51.9279 12.8153 52.4 13.27C54.5495 15.4189 56.2546 17.9701 57.418 20.7781C58.5813 23.586 59.1801 26.5956 59.1801 29.635C59.1801 32.6744 58.5813 35.684 57.418 38.492C56.2546 41.2999 54.5495 43.8512 52.4 46C52.1686 46.2343 51.8929 46.4203 51.5891 46.5473C51.2853 46.6744 50.9593 46.7399 50.63 46.74Z" fill="black"/>
<path d="M45.18 37C44.8514 37.0012 44.5258 36.9372 44.222 36.812C43.9182 36.6867 43.6423 36.5025 43.41 36.27C42.9446 35.7984 42.6837 35.1626 42.6837 34.5C42.6837 33.8375 42.9446 33.2016 43.41 32.73C43.8185 32.3247 44.1427 31.8426 44.3639 31.3114C44.5852 30.7802 44.6991 30.2105 44.6991 29.635C44.6991 29.0596 44.5852 28.4899 44.3639 27.9587C44.1427 27.4275 43.8185 26.9453 43.41 26.54C42.9406 26.0679 42.6779 25.4287 42.6798 24.763C42.6816 24.0972 42.9479 23.4595 43.42 22.99C43.8921 22.5206 44.5313 22.2579 45.1971 22.2598C45.8628 22.2617 46.5006 22.5279 46.97 23C47.8417 23.8711 48.5332 24.9055 49.005 26.0439C49.4768 27.1824 49.7197 28.4027 49.7197 29.635C49.7197 30.8674 49.4768 32.0877 49.005 33.2261C48.5332 34.3646 47.8417 35.3989 46.97 36.27C46.7354 36.5049 46.4561 36.6905 46.1487 36.8158C45.8413 36.9412 45.512 37.0038 45.18 37Z" fill="black"/>
</g>
<defs>
<clipPath id="clip0">
<rect width="59" height="59.29" fill="white" transform="translate(0.179993)"/>
</clipPath>
</defs>
</svg>
