<svg width="60" height="59" viewBox="0 0 60 59" fill="none" xmlns="http://www.w3.org/2000/svg">
<g clip-path="url(#clip0)">
<path d="M30.31 59C24.4755 59 18.7719 57.2699 13.9207 54.0284C9.06944 50.7868 5.28835 46.1796 3.05556 40.7892C0.822779 35.3987 0.238581 29.4673 1.37685 23.7448C2.51511 18.0224 5.32471 12.766 9.45036 8.64035C13.576 4.5147 18.8324 1.7051 24.5548 0.566832C30.2773 -0.571432 36.2088 0.0127666 41.5992 2.24555C46.9896 4.47834 51.5969 8.25943 54.8384 13.1107C58.0799 17.9619 59.81 23.6654 59.81 29.5C59.8021 37.3214 56.6915 44.8203 51.1609 50.3509C45.6303 55.8815 38.1315 58.9921 30.31 59ZM30.31 5C25.4644 5 20.7275 6.4369 16.6985 9.12899C12.6695 11.8211 9.52931 15.6475 7.67496 20.1243C5.82062 24.601 5.33543 29.5272 6.28077 34.2797C7.22611 39.0322 9.55951 43.3977 12.9859 46.8241C16.4123 50.2505 20.7778 52.5839 25.5303 53.5292C30.2828 54.4746 35.209 53.9894 39.6858 52.135C44.1625 50.2807 47.9889 47.1405 50.681 43.1115C53.3731 39.0825 54.81 34.3456 54.81 29.5C54.8021 23.0046 52.2183 16.7776 47.6254 12.1847C43.0324 7.59173 36.8054 5.00794 30.31 5Z" fill="black"/>
<path d="M38.1 41.75C37.6487 41.7538 37.2041 41.6401 36.81 41.42L29.02 36.92C28.648 36.6936 28.3411 36.3748 28.129 35.9945C27.9169 35.6142 27.807 35.1854 27.81 34.75V19.75C27.81 19.087 28.0734 18.4511 28.5422 17.9822C29.0111 17.5134 29.647 17.25 30.31 17.25C30.9731 17.25 31.6089 17.5134 32.0778 17.9822C32.5466 18.4511 32.81 19.087 32.81 19.75V33.31L39.35 37.08C39.8291 37.3541 40.204 37.7789 40.4163 38.2884C40.6286 38.7979 40.6663 39.3633 40.5236 39.8964C40.3809 40.4296 40.0658 40.9005 39.6274 41.2358C39.189 41.5711 38.6519 41.7519 38.1 41.75Z" fill="black"/>
</g>
<defs>
<clipPath id="clip0">
<rect width="59" height="59" fill="white" transform="translate(0.809998)"/>
</clipPath>
</defs>
</svg>
