<svg width="60" height="49" viewBox="0 0 60 49" fill="none" xmlns="http://www.w3.org/2000/svg">
<g clip-path="url(#clip0)">
<path d="M29.99 49C29.327 49 28.6911 48.7366 28.2222 48.2678C27.7534 47.7989 27.49 47.163 27.49 46.5V20.5C27.49 19.837 27.7534 19.2011 28.2222 18.7322C28.6911 18.2634 29.327 18 29.99 18C30.653 18 31.2889 18.2634 31.7578 18.7322C32.2266 19.2011 32.49 19.837 32.49 20.5V46.5C32.49 47.163 32.2266 47.7989 31.7578 48.2678C31.2889 48.7366 30.653 49 29.99 49Z" fill="black"/>
<path d="M37.99 31C37.6614 31.0011 37.3358 30.9372 37.032 30.8119C36.7282 30.6866 36.4523 30.5025 36.22 30.27L29.99 24L23.76 30.23C23.2906 30.6994 22.6539 30.9632 21.99 30.9632C21.3261 30.9632 20.6894 30.6994 20.22 30.23C19.7506 29.7606 19.4868 29.1239 19.4868 28.46C19.4868 27.7961 19.7506 27.1594 20.22 26.69L28.22 18.69C28.6916 18.2247 29.3275 17.9637 29.99 17.9637C30.6525 17.9637 31.2884 18.2247 31.76 18.69L39.76 26.69C40.2253 27.1616 40.4863 27.7975 40.4863 28.46C40.4863 29.1225 40.2253 29.7584 39.76 30.23C39.5311 30.4697 39.2566 30.6613 38.9526 30.7935C38.6487 30.9257 38.3214 30.9959 37.99 31Z" fill="black"/>
<path d="M45.99 40.92H39.99C39.327 40.92 38.6911 40.6566 38.2222 40.1878C37.7534 39.7189 37.49 39.083 37.49 38.42C37.49 37.757 37.7534 37.1211 38.2222 36.6522C38.6911 36.1834 39.327 35.92 39.99 35.92H45.99C48.2443 35.92 50.4063 35.0245 52.0004 33.4304C53.5945 31.8364 54.49 29.6743 54.49 27.42C54.49 25.1657 53.5945 23.0037 52.0004 21.4096C50.4063 19.8155 48.2443 18.92 45.99 18.92H44.22C43.588 18.9215 42.9792 18.6826 42.5168 18.2518C42.0544 17.821 41.7731 17.2305 41.73 16.6C41.5108 13.4422 40.1018 10.4852 37.7873 8.3258C35.4729 6.16641 32.4254 4.96551 29.26 4.96551C26.0946 4.96551 23.0471 6.16641 20.7327 8.3258C18.4182 10.4852 17.0092 13.4422 16.79 16.6C16.7469 17.2305 16.4656 17.821 16.0032 18.2518C15.5408 18.6826 14.932 18.9215 14.3 18.92H13.99C11.7357 18.92 9.57365 19.8155 7.97959 21.4096C6.38553 23.0037 5.49 25.1657 5.49 27.42C5.49 29.6743 6.38553 31.8364 7.97959 33.4304C9.57365 35.0245 11.7357 35.92 13.99 35.92H19.99C20.653 35.92 21.2889 36.1834 21.7578 36.6522C22.2266 37.1211 22.49 37.757 22.49 38.42C22.49 39.083 22.2266 39.7189 21.7578 40.1878C21.2889 40.6566 20.653 40.92 19.99 40.92H13.99C10.5699 40.9254 7.27525 39.6324 4.77164 37.3024C2.26804 34.9724 0.742109 31.7789 0.502136 28.3673C0.262164 24.9556 1.32604 21.58 3.47882 18.9224C5.63161 16.2649 8.71283 14.5235 12.1 14.05C12.8942 10.0964 15.0294 6.53846 18.1445 3.97774C21.2596 1.41701 25.1635 0.0106792 29.196 -0.00343279C33.2285 -0.0175448 37.1422 1.36143 40.2752 3.90029C43.4081 6.43915 45.5682 9.9821 46.39 13.93C49.9704 13.983 53.3831 15.4562 55.8774 18.0255C58.3716 20.5947 59.743 24.0496 59.69 27.63C59.637 31.2104 58.1638 34.6231 55.5945 37.1174C53.0253 39.6116 49.5704 40.983 45.99 40.93V40.92Z" fill="black"/>
</g>
<defs>
<clipPath id="clip0">
<rect width="59" height="48.96" fill="white" transform="translate(0.48999)"/>
</clipPath>
</defs>
</svg>
