<svg width="60" height="39" viewBox="0 0 60 39" fill="none" xmlns="http://www.w3.org/2000/svg">
<g clip-path="url(#clip0)">
<path d="M35.31 39H11.31C8.52604 38.9974 5.85686 37.8903 3.8883 35.9217C1.91974 33.9531 0.812645 31.284 0.809998 28.5V10.5C0.812645 7.71604 1.91974 5.04686 3.8883 3.0783C5.85686 1.10974 8.52604 0.00264761 11.31 0H35.31C38.094 0.00264761 40.7631 1.10974 42.7317 3.0783C44.7003 5.04686 45.8074 7.71604 45.81 10.5V28.5C45.8074 31.284 44.7003 33.9531 42.7317 35.9217C40.7631 37.8903 38.094 38.9974 35.31 39ZM11.31 5C9.85212 5.00264 8.45471 5.58295 7.42383 6.61383C6.39295 7.64471 5.81264 9.04212 5.81 10.5V28.5C5.81264 29.9579 6.39295 31.3553 7.42383 32.3862C8.45471 33.417 9.85212 33.9974 11.31 34H35.31C36.7679 33.9974 38.1653 33.417 39.1962 32.3862C40.227 31.3553 40.8074 29.9579 40.81 28.5V10.5C40.8074 9.04212 40.227 7.64471 39.1962 6.61383C38.1653 5.58295 36.7679 5.00264 35.31 5H11.31Z" fill="black"/>
<path d="M57.31 32.49C56.9643 32.4836 56.6237 32.4053 56.31 32.26L42.31 25.92C41.9959 25.795 41.7104 25.6076 41.4707 25.3691C41.2311 25.1306 41.0423 24.846 40.9158 24.5325C40.7893 24.219 40.7278 23.8831 40.7348 23.5451C40.7418 23.2071 40.8174 22.874 40.9568 22.566C41.0962 22.258 41.2967 21.9815 41.546 21.7532C41.7954 21.5249 42.0885 21.3496 42.4075 21.2378C42.7266 21.126 43.065 21.0801 43.4023 21.1028C43.7396 21.1255 44.0688 21.2164 44.37 21.37L54.81 26.11V12.88L44.34 17.59C43.7313 17.8632 43.0391 17.8834 42.4155 17.6461C41.792 17.4089 41.2882 16.9337 41.015 16.325C40.7418 15.7163 40.7216 15.0241 40.9589 14.4005C41.1961 13.777 41.6713 13.2732 42.28 13L56.28 6.7C56.6625 6.52704 57.0823 6.45317 57.5009 6.48521C57.9194 6.51724 58.3232 6.65415 58.6749 6.8833C59.0266 7.11245 59.3149 7.42647 59.5133 7.7964C59.7117 8.16633 59.8137 8.58025 59.81 9V30C59.8102 30.4185 59.705 30.8303 59.504 31.1973C59.303 31.5643 59.0127 31.8748 58.66 32.1C58.2559 32.3549 57.7878 32.4901 57.31 32.49Z" fill="black"/>
</g>
<defs>
<clipPath id="clip0">
<rect width="59" height="39" fill="white" transform="translate(0.809998)"/>
</clipPath>
</defs>
</svg>
