<svg width="60" height="39" viewBox="0 0 60 39" fill="none" xmlns="http://www.w3.org/2000/svg">
<g clip-path="url(#clip0)">
<path d="M29.52 38.56C17.2 38.56 6.85 29.32 1.78 23.81C0.63715 22.5783 0.0020752 20.9602 0.0020752 19.28C0.0020752 17.5998 0.63715 15.9817 1.78 14.75C6.85 9.24 17.2 0 29.52 0C41.84 0 52.28 9.32 57.37 14.88C58.4755 16.0786 59.0892 17.6494 59.0892 19.28C59.0892 20.9106 58.4755 22.4814 57.37 23.68C52.28 29.24 41.91 38.56 29.52 38.56ZM5.46 18.14C5.17107 18.4493 5.01036 18.8568 5.01036 19.28C5.01036 19.7032 5.17107 20.1107 5.46 20.42C9.1 24.37 18.72 33.56 29.52 33.56C40.32 33.56 50 24.29 53.68 20.3C53.9358 20.0199 54.0776 19.6543 54.0776 19.275C54.0776 18.8957 53.9358 18.5301 53.68 18.25C50 14.27 40.38 5 29.52 5C18.66 5 9.1 14.19 5.46 18.14Z" fill="black"/>
<path d="M29.52 28.07C27.7815 28.07 26.082 27.5545 24.6365 26.5886C23.191 25.6228 22.0644 24.25 21.3991 22.6438C20.7338 21.0376 20.5597 19.2703 20.8989 17.5652C21.2381 15.8601 22.0752 14.2938 23.3045 13.0645C24.5338 11.8352 26.1001 10.9981 27.8052 10.6589C29.5102 10.3197 31.2776 10.4938 32.8838 11.1591C34.4899 11.8244 35.8628 12.951 36.8286 14.3965C37.7945 15.842 38.31 17.5415 38.31 19.28C38.3074 21.6104 37.3804 23.8447 35.7325 25.4925C34.0847 27.1404 31.8504 28.0674 29.52 28.07ZM29.52 15.49C28.7704 15.49 28.0376 15.7123 27.4144 16.1287C26.7911 16.5452 26.3053 17.1371 26.0185 17.8296C25.7316 18.5222 25.6566 19.2842 25.8028 20.0194C25.9491 20.7546 26.31 21.4299 26.8401 21.9599C27.3701 22.49 28.0454 22.8509 28.7806 22.9972C29.5158 23.1434 30.2778 23.0684 30.9704 22.7815C31.6629 22.4946 32.2548 22.0089 32.6713 21.3856C33.0877 20.7623 33.31 20.0296 33.31 19.28C33.3074 18.2756 32.9072 17.3132 32.197 16.603C31.4868 15.8928 30.5244 15.4926 29.52 15.49Z" fill="black"/>
</g>
<defs>
<clipPath id="clip0">
<rect width="59.09" height="38.56" fill="white"/>
</clipPath>
</defs>
</svg>
